BetecknaGS.ufo
<glyph name="exclam" format="2">
  <advance width="244"/>
  <unicode hex="0021"/>
  <outline>
    <contour>
      <point x="157" y="19" type="curve"/>
      <point x="155" y="14"/>
      <point x="152" y="9"/>
      <point x="147" y="5" type="curve"/>
      <point x="143" y="0"/>
      <point x="138" y="-3"/>
      <point x="132" y="-5" type="curve"/>
      <point x="127" y="-8"/>
      <point x="121" y="-9"/>
      <point x="115" y="-9" type="curve" smooth="yes"/>
      <point x="109" y="-9"/>
      <point x="103" y="-8"/>
      <point x="97" y="-5" type="curve"/>
      <point x="92" y="-3"/>
      <point x="87" y="0"/>
      <point x="82" y="5" type="curve" smooth="yes"/>
      <point x="78" y="9"/>
      <point x="75" y="14"/>
      <point x="73" y="19" type="curve"/>
      <point x="70" y="25"/>
      <point x="69" y="31"/>
      <point x="69" y="37" type="curve" smooth="yes"/>
      <point x="69" y="43"/>
      <point x="70" y="49"/>
      <point x="73" y="54" type="curve"/>
      <point x="75" y="60"/>
      <point x="78" y="65"/>
      <point x="82" y="69" type="curve" smooth="yes"/>
      <point x="87" y="74"/>
      <point x="92" y="77"/>
      <point x="97" y="79" type="curve"/>
      <point x="103" y="82"/>
      <point x="109" y="83"/>
      <point x="115" y="83" type="curve" smooth="yes"/>
      <point x="121" y="83"/>
      <point x="127" y="82"/>
      <point x="132" y="79" type="curve"/>
      <point x="138" y="77"/>
      <point x="143" y="74"/>
      <point x="147" y="69" type="curve"/>
      <point x="152" y="65"/>
      <point x="155" y="60"/>
      <point x="157" y="54" type="curve"/>
      <point x="160" y="49"/>
      <point x="161" y="43"/>
      <point x="161" y="37" type="curve" smooth="yes"/>
      <point x="161" y="31"/>
      <point x="160" y="25"/>
    </contour>
    <contour>
      <point x="70" y="722" type="curve"/>
      <point x="73" y="631"/>
      <point x="78" y="450"/>
      <point x="87" y="178" type="curve"/>
      <point x="97" y="178"/>
      <point x="117" y="178"/>
      <point x="147" y="178" type="curve"/>
      <point x="150" y="269"/>
      <point x="155" y="450"/>
      <point x="162" y="722" type="curve"/>
      <point x="147" y="722"/>
      <point x="116" y="722"/>
    </contour>
  </outline>
</glyph>
<glyph name="quotedbl" format="2">
  <advance width="314"/>
  <unicode hex="0022"/>
  <outline>
    <contour>
      <point x="157" y="769" type="curve"/>
      <point x="188" y="769"/>
      <point x="209" y="769"/>
      <point x="220" y="769" type="curve"/>
      <point x="220" y="720"/>
      <point x="220" y="647"/>
      <point x="220" y="549" type="curve"/>
      <point x="209" y="549"/>
      <point x="188" y="549"/>
      <point x="157" y="549" type="curve"/>
      <point x="157" y="612"/>
      <point x="157" y="685"/>
    </contour>
    <contour>
      <point x="31" y="769" type="curve"/>
      <point x="62" y="769"/>
      <point x="83" y="769"/>
      <point x="94" y="769" type="curve"/>
      <point x="94" y="720"/>
      <point x="94" y="647"/>
      <point x="94" y="549" type="curve"/>
      <point x="83" y="549"/>
      <point x="62" y="549"/>
      <point x="31" y="549" type="curve"/>
      <point x="31" y="565"/>
      <point x="31" y="582"/>
      <point x="31" y="599" type="curve" smooth="yes"/>
      <point x="31" y="650"/>
      <point x="31" y="706"/>
    </contour>
  </outline>
</glyph>
<glyph name="numbersign" format="2">
  <advance width="643"/>
  <unicode hex="0023"/>
  <outline>
    <contour>
      <point x="297" y="716" type="curve"/>
      <point x="266" y="597"/>
      <point x="203" y="358"/>
      <point x="110" y="0" type="curve"/>
      <point x="94" y="0"/>
      <point x="63" y="0"/>
      <point x="16" y="0" type="curve"/>
      <point x="47" y="119"/>
      <point x="109" y="358"/>
      <point x="203" y="716" type="curve"/>
      <point x="218" y="716"/>
      <point x="250" y="716"/>
    </contour>
    <contour>
      <point x="584" y="715" type="curve"/>
      <point x="552" y="596"/>
      <point x="488" y="357"/>
      <point x="391" y="0" type="curve"/>
      <point x="376" y="0"/>
      <point x="345" y="0"/>
      <point x="298" y="-1" type="curve"/>
      <point x="329" y="118"/>
      <point x="392" y="357"/>
      <point x="485" y="715" type="curve"/>
      <point x="502" y="715"/>
      <point x="535" y="715"/>
    </contour>
    <contour>
      <point x="55" y="528" type="curve"/>
      <point x="150" y="528"/>
      <point x="339" y="528"/>
      <point x="624" y="528" type="curve"/>
      <point x="619" y="515"/>
      <point x="611" y="489"/>
      <point x="599" y="450" type="curve"/>
      <point x="506" y="450"/>
      <point x="319" y="450"/>
      <point x="39" y="450" type="curve"/>
      <point x="46" y="481"/>
      <point x="51" y="507"/>
    </contour>
    <contour>
      <point x="571" y="275" type="curve"/>
      <point x="568" y="262"/>
      <point x="561" y="235"/>
      <point x="552" y="196" type="curve"/>
      <point x="457" y="196"/>
      <point x="268" y="196"/>
      <point x="-16" y="196" type="curve"/>
      <point x="-13" y="209"/>
      <point x="-8" y="236"/>
      <point x="0" y="275" type="curve"/>
      <point x="95" y="275"/>
      <point x="286" y="275"/>
    </contour>
  </outline>
</glyph>
<glyph name="dollar" format="2">
  <advance width="459"/>
  <unicode hex="0024"/>
  <outline>
    <contour>
      <point x="218" y="419" type="curve" smooth="yes"/>
      <point x="380" y="355"/>
      <point x="461" y="276"/>
      <point x="462" y="182" type="curve" smooth="yes"/>
      <point x="462" y="181"/>
      <point x="462" y="179"/>
      <point x="462" y="178" type="curve" smooth="yes"/>
      <point x="462" y="55"/>
      <point x="387" y="-8"/>
      <point x="238" y="-11" type="curve" smooth="yes"/>
      <point x="234" y="-11"/>
      <point x="230" y="-11"/>
      <point x="227" y="-11" type="curve" smooth="yes"/>
      <point x="146" y="-10"/>
      <point x="76" y="10"/>
      <point x="18" y="49" type="curve"/>
      <point x="18" y="71"/>
      <point x="18" y="104"/>
      <point x="17" y="148" type="curve"/>
      <point x="84" y="99"/>
      <point x="155" y="74"/>
      <point x="231" y="75" type="curve" smooth="yes"/>
      <point x="322" y="75"/>
      <point x="367" y="110"/>
      <point x="364" y="180" type="curve" smooth="yes"/>
      <point x="363" y="228"/>
      <point x="302" y="275"/>
      <point x="181" y="320" type="curve"/>
      <point x="60" y="375"/>
      <point x="-1" y="442"/>
      <point x="-1" y="522" type="curve" smooth="yes"/>
      <point x="-1" y="523"/>
      <point x="-1" y="525"/>
      <point x="-1" y="527" type="curve" smooth="yes"/>
      <point x="-1" y="585"/>
      <point x="18" y="633"/>
      <point x="57" y="670" type="curve" smooth="yes"/>
      <point x="94" y="707"/>
      <point x="151" y="725"/>
      <point x="226" y="725" type="curve" smooth="yes"/>
      <point x="229" y="725"/>
      <point x="232" y="725"/>
      <point x="235" y="725" type="curve" smooth="yes"/>
      <point x="300" y="725"/>
      <point x="353" y="711"/>
      <point x="396" y="682" type="curve"/>
      <point x="395" y="665"/>
      <point x="393" y="639"/>
      <point x="390" y="604" type="curve"/>
      <point x="335" y="631"/>
      <point x="283" y="644"/>
      <point x="234" y="643" type="curve" smooth="yes"/>
      <point x="146" y="641"/>
      <point x="101" y="603"/>
      <point x="98" y="528" type="curve" smooth="yes"/>
      <point x="96" y="489"/>
      <point x="136" y="453"/>
    </contour>
    <contour>
      <point x="213" y="797" type="curve"/>
      <point x="220" y="797"/>
      <point x="235" y="797"/>
      <point x="256" y="797" type="curve"/>
      <point x="256" y="651"/>
      <point x="256" y="359"/>
      <point x="256" y="-79" type="curve"/>
      <point x="248" y="-79"/>
      <point x="232" y="-79"/>
      <point x="209" y="-79" type="curve"/>
      <point x="210" y="67"/>
      <point x="211" y="359"/>
    </contour>
  </outline>
</glyph>
<glyph name="percent" format="2">
  <advance width="742"/>
  <unicode hex="0025"/>
  <outline>
    <contour>
      <point x="323" y="517" type="curve" smooth="yes"/>
      <point x="315" y="498"/>
      <point x="304" y="482"/>
      <point x="289" y="467" type="curve" smooth="yes"/>
      <point x="274" y="452"/>
      <point x="257" y="441"/>
      <point x="238" y="432" type="curve"/>
      <point x="219" y="425"/>
      <point x="199" y="421"/>
      <point x="178" y="421" type="curve" smooth="yes"/>
      <point x="177" y="421"/>
      <point x="177" y="421"/>
      <point x="177" y="421" type="curve"/>
      <point x="156" y="420"/>
      <point x="136" y="424"/>
      <point x="117" y="432" type="curve" smooth="yes"/>
      <point x="98" y="440"/>
      <point x="81" y="452"/>
      <point x="66" y="467" type="curve" smooth="yes"/>
      <point x="52" y="481"/>
      <point x="41" y="498"/>
      <point x="32" y="517" type="curve" smooth="yes"/>
      <point x="23" y="538"/>
      <point x="19" y="558"/>
      <point x="20" y="579" type="curve" smooth="yes"/>
      <point x="20" y="599"/>
      <point x="24" y="619"/>
      <point x="32" y="638" type="curve" smooth="yes"/>
      <point x="40" y="657"/>
      <point x="51" y="674"/>
      <point x="66" y="689" type="curve" smooth="yes"/>
      <point x="81" y="704"/>
      <point x="98" y="715"/>
      <point x="117" y="723" type="curve" smooth="yes"/>
      <point x="138" y="732"/>
      <point x="158" y="736"/>
      <point x="179" y="735" type="curve" smooth="yes"/>
      <point x="199" y="735"/>
      <point x="219" y="731"/>
      <point x="238" y="723" type="curve" smooth="yes"/>
      <point x="257" y="715"/>
      <point x="274" y="704"/>
      <point x="289" y="689" type="curve" smooth="yes"/>
      <point x="303" y="674"/>
      <point x="314" y="657"/>
      <point x="323" y="638" type="curve" smooth="yes"/>
      <point x="331" y="619"/>
      <point x="335" y="600"/>
      <point x="335" y="580" type="curve" smooth="yes"/>
      <point x="335" y="579"/>
      <point x="335" y="579"/>
      <point x="335" y="578" type="curve" smooth="yes"/>
      <point x="335" y="557"/>
      <point x="331" y="536"/>
    </contour>
    <contour>
      <point x="271" y="578" type="curve" smooth="yes"/>
      <point x="271" y="579"/>
      <point x="271" y="579"/>
      <point x="271" y="580" type="curve" smooth="yes"/>
      <point x="271" y="592"/>
      <point x="269" y="603"/>
      <point x="264" y="614" type="curve" smooth="yes"/>
      <point x="259" y="625"/>
      <point x="253" y="635"/>
      <point x="244" y="644" type="curve" smooth="yes"/>
      <point x="235" y="653"/>
      <point x="225" y="659"/>
      <point x="214" y="664" type="curve" smooth="yes"/>
      <point x="203" y="669"/>
      <point x="191" y="671"/>
      <point x="178" y="671" type="curve" smooth="yes"/>
      <point x="166" y="671"/>
      <point x="154" y="669"/>
      <point x="143" y="664" type="curve" smooth="yes"/>
      <point x="132" y="659"/>
      <point x="122" y="653"/>
      <point x="113" y="644" type="curve" smooth="yes"/>
      <point x="104" y="635"/>
      <point x="98" y="625"/>
      <point x="93" y="614" type="curve" smooth="yes"/>
      <point x="88" y="603"/>
      <point x="86" y="591"/>
      <point x="86" y="580" type="curve" smooth="yes"/>
      <point x="86" y="579"/>
      <point x="86" y="579"/>
      <point x="86" y="578" type="curve" smooth="yes"/>
      <point x="86" y="566"/>
      <point x="88" y="554"/>
      <point x="93" y="543" type="curve" smooth="yes"/>
      <point x="98" y="532"/>
      <point x="104" y="522"/>
      <point x="113" y="513" type="curve" smooth="yes"/>
      <point x="122" y="504"/>
      <point x="132" y="498"/>
      <point x="143" y="493" type="curve" smooth="yes"/>
      <point x="154" y="488"/>
      <point x="166" y="486"/>
      <point x="177" y="486" type="curve" smooth="yes"/>
      <point x="178" y="486"/>
      <point x="178" y="486"/>
      <point x="178" y="486" type="curve"/>
      <point x="191" y="486"/>
      <point x="203" y="488"/>
      <point x="214" y="493" type="curve" smooth="yes"/>
      <point x="225" y="498"/>
      <point x="235" y="504"/>
      <point x="244" y="513" type="curve" smooth="yes"/>
      <point x="253" y="522"/>
      <point x="259" y="532"/>
      <point x="264" y="543" type="curve" smooth="yes"/>
      <point x="269" y="554"/>
      <point x="271" y="566"/>
    </contour>
    <contour>
      <point x="55" y="44" type="curve"/>
      <point x="145" y="158"/>
      <point x="325" y="385"/>
      <point x="594" y="726" type="curve"/>
      <point x="629" y="703"/>
      <point x="651" y="688"/>
      <point x="660" y="683" type="curve"/>
      <point x="570" y="569"/>
      <point x="390" y="342"/>
      <point x="120" y="1" type="curve"/>
      <point x="109" y="8"/>
      <point x="88" y="23"/>
    </contour>
    <contour>
      <point x="689" y="77" type="curve" smooth="yes"/>
      <point x="681" y="58"/>
      <point x="670" y="41"/>
      <point x="655" y="26" type="curve" smooth="yes"/>
      <point x="641" y="11"/>
      <point x="624" y="0"/>
      <point x="604" y="-8" type="curve" smooth="yes"/>
      <point x="585" y="-16"/>
      <point x="565" y="-20"/>
      <point x="544" y="-20" type="curve" smooth="yes"/>
      <point x="543" y="-20"/>
      <point x="543" y="-20"/>
      <point x="543" y="-20" type="curve"/>
      <point x="523" y="-20"/>
      <point x="503" y="-16"/>
      <point x="484" y="-8" type="curve" smooth="yes"/>
      <point x="465" y="-1"/>
      <point x="448" y="11"/>
      <point x="433" y="26" type="curve" smooth="yes"/>
      <point x="418" y="40"/>
      <point x="407" y="57"/>
      <point x="399" y="77" type="curve" smooth="yes"/>
      <point x="390" y="97"/>
      <point x="386" y="117"/>
      <point x="387" y="138" type="curve" smooth="yes"/>
      <point x="387" y="158"/>
      <point x="391" y="178"/>
      <point x="399" y="197" type="curve" smooth="yes"/>
      <point x="406" y="216"/>
      <point x="418" y="233"/>
      <point x="433" y="248" type="curve" smooth="yes"/>
      <point x="447" y="263"/>
      <point x="464" y="274"/>
      <point x="484" y="282" type="curve" smooth="yes"/>
      <point x="505" y="291"/>
      <point x="525" y="295"/>
      <point x="545" y="294" type="curve" smooth="yes"/>
      <point x="565" y="294"/>
      <point x="585" y="290"/>
      <point x="604" y="282" type="curve" smooth="yes"/>
      <point x="623" y="275"/>
      <point x="640" y="263"/>
      <point x="655" y="248" type="curve" smooth="yes"/>
      <point x="670" y="233"/>
      <point x="681" y="216"/>
      <point x="689" y="197" type="curve" smooth="yes"/>
      <point x="697" y="179"/>
      <point x="701" y="160"/>
      <point x="701" y="139" type="curve" smooth="yes"/>
      <point x="701" y="138"/>
      <point x="701" y="138"/>
      <point x="701" y="137" type="curve" smooth="yes"/>
      <point x="701" y="116"/>
      <point x="697" y="96"/>
    </contour>
    <contour>
      <point x="637" y="139" type="curve"/>
      <point x="637" y="151"/>
      <point x="635" y="162"/>
      <point x="630" y="173" type="curve" smooth="yes"/>
      <point x="625" y="184"/>
      <point x="619" y="194"/>
      <point x="610" y="203" type="curve" smooth="yes"/>
      <point x="601" y="212"/>
      <point x="591" y="219"/>
      <point x="580" y="223" type="curve"/>
      <point x="569" y="228"/>
      <point x="557" y="230"/>
      <point x="546" y="230" type="curve" smooth="yes"/>
      <point x="545" y="230"/>
      <point x="545" y="230"/>
      <point x="545" y="230" type="curve"/>
      <point x="532" y="230"/>
      <point x="520" y="228"/>
      <point x="509" y="223" type="curve" smooth="yes"/>
      <point x="498" y="218"/>
      <point x="488" y="212"/>
      <point x="479" y="203" type="curve" smooth="yes"/>
      <point x="470" y="194"/>
      <point x="464" y="184"/>
      <point x="459" y="173" type="curve" smooth="yes"/>
      <point x="454" y="162"/>
      <point x="452" y="150"/>
      <point x="452" y="139" type="curve" smooth="yes"/>
      <point x="452" y="138"/>
      <point x="452" y="138"/>
      <point x="452" y="138" type="curve"/>
      <point x="452" y="125"/>
      <point x="454" y="113"/>
      <point x="459" y="102" type="curve" smooth="yes"/>
      <point x="464" y="91"/>
      <point x="470" y="81"/>
      <point x="479" y="72" type="curve" smooth="yes"/>
      <point x="488" y="63"/>
      <point x="498" y="57"/>
      <point x="509" y="52" type="curve" smooth="yes"/>
      <point x="521" y="47"/>
      <point x="533" y="45"/>
      <point x="545" y="45" type="curve" smooth="yes"/>
      <point x="557" y="45"/>
      <point x="569" y="47"/>
      <point x="580" y="52" type="curve" smooth="yes"/>
      <point x="592" y="57"/>
      <point x="602" y="63"/>
      <point x="610" y="72" type="curve"/>
      <point x="619" y="81"/>
      <point x="625" y="91"/>
      <point x="630" y="102" type="curve" smooth="yes"/>
      <point x="635" y="114"/>
      <point x="638" y="126"/>
    </contour>
  </outline>
</glyph>
<glyph name="ampersand" format="2">
  <advance width="772"/>
  <unicode hex="0026"/>
  <outline>
    <contour>
      <point x="475" y="121" type="curve"/>
      <point x="436" y="162"/>
      <point x="359" y="243"/>
      <point x="242" y="364" type="curve"/>
      <point x="229" y="353"/>
      <point x="217" y="343"/>
      <point x="207" y="332" type="curve"/>
      <point x="193" y="313"/>
      <point x="184" y="299"/>
      <point x="181" y="289" type="curve"/>
      <point x="175" y="275"/>
      <point x="171" y="253"/>
      <point x="168" y="224" type="curve"/>
      <point x="168" y="221"/>
      <point x="168" y="218"/>
      <point x="168" y="215" type="curve" smooth="yes"/>
      <point x="168" y="195"/>
      <point x="172" y="176"/>
      <point x="181" y="159" type="curve"/>
      <point x="190" y="138"/>
      <point x="202" y="119"/>
      <point x="218" y="104" type="curve"/>
      <point x="234" y="87"/>
      <point x="252" y="75"/>
      <point x="273" y="67" type="curve" smooth="yes"/>
      <point x="294" y="58"/>
      <point x="316" y="54"/>
      <point x="337" y="54" type="curve" smooth="yes"/>
      <point x="338" y="54"/>
      <point x="338" y="54"/>
      <point x="338" y="54" type="curve"/>
      <point x="361" y="54"/>
      <point x="383" y="58"/>
      <point x="403" y="67" type="curve" smooth="yes"/>
      <point x="424" y="76"/>
      <point x="443" y="88"/>
      <point x="459" y="104" type="curve"/>
      <point x="462" y="108"/>
      <point x="468" y="114"/>
    </contour>
    <contour>
      <point x="548" y="316" type="curve"/>
      <point x="561" y="316"/>
      <point x="588" y="316"/>
      <point x="628" y="316" type="curve"/>
      <point x="629" y="231"/>
      <point x="613" y="169"/>
      <point x="579" y="129" type="curve"/>
      <point x="607" y="100"/>
      <point x="649" y="57"/>
      <point x="706" y="0" type="curve"/>
      <point x="687" y="0"/>
      <point x="651" y="0"/>
      <point x="596" y="0" type="curve"/>
      <point x="586" y="11"/>
      <point x="566" y="33"/>
      <point x="535" y="66" type="curve"/>
      <point x="519" y="47"/>
      <point x="505" y="33"/>
      <point x="492" y="24" type="curve" smooth="yes"/>
      <point x="465" y="7"/>
      <point x="441" y="-6"/>
      <point x="421" y="-15" type="curve" smooth="yes"/>
      <point x="391" y="-27"/>
      <point x="359" y="-33"/>
      <point x="326" y="-34" type="curve" smooth="yes"/>
      <point x="325" y="-34"/>
      <point x="325" y="-34"/>
      <point x="324" y="-34" type="curve" smooth="yes"/>
      <point x="293" y="-34"/>
      <point x="262" y="-28"/>
      <point x="232" y="-15" type="curve" smooth="yes"/>
      <point x="202" y="-3"/>
      <point x="175" y="15"/>
      <point x="151" y="38" type="curve" smooth="yes"/>
      <point x="128" y="61"/>
      <point x="111" y="88"/>
      <point x="98" y="119" type="curve" smooth="yes"/>
      <point x="85" y="148"/>
      <point x="79" y="180"/>
      <point x="79" y="213" type="curve" smooth="yes"/>
      <point x="79" y="214"/>
      <point x="79" y="214"/>
      <point x="79" y="215" type="curve" smooth="yes"/>
      <point x="79" y="247"/>
      <point x="85" y="278"/>
      <point x="98" y="308" type="curve" smooth="yes"/>
      <point x="109" y="337"/>
      <point x="127" y="364"/>
      <point x="150" y="387" type="curve"/>
      <point x="163" y="402"/>
      <point x="178" y="417"/>
      <point x="196" y="433" type="curve"/>
      <point x="193" y="438"/>
      <point x="190" y="445"/>
      <point x="185" y="454" type="curve"/>
      <point x="176" y="476"/>
      <point x="171" y="499"/>
      <point x="171" y="523" type="curve" smooth="yes"/>
      <point x="171" y="546"/>
      <point x="176" y="569"/>
      <point x="185" y="592" type="curve" smooth="yes"/>
      <point x="194" y="614"/>
      <point x="207" y="633"/>
      <point x="224" y="650" type="curve" smooth="yes"/>
      <point x="241" y="667"/>
      <point x="260" y="680"/>
      <point x="282" y="689" type="curve" smooth="yes"/>
      <point x="303" y="698"/>
      <point x="327" y="703"/>
      <point x="352" y="703" type="curve" smooth="yes"/>
      <point x="375" y="703"/>
      <point x="398" y="698"/>
      <point x="420" y="689" type="curve" smooth="yes"/>
      <point x="442" y="680"/>
      <point x="461" y="667"/>
      <point x="477" y="648" type="curve"/>
      <point x="470" y="634"/>
      <point x="459" y="613"/>
      <point x="444" y="584" type="curve"/>
      <point x="447" y="585"/>
      <point x="444" y="590"/>
      <point x="434" y="600" type="curve"/>
      <point x="425" y="610"/>
      <point x="414" y="617"/>
      <point x="401" y="622" type="curve" smooth="yes"/>
      <point x="388" y="627"/>
      <point x="374" y="630"/>
      <point x="361" y="630" type="curve" smooth="yes"/>
      <point x="347" y="630"/>
      <point x="334" y="627"/>
      <point x="321" y="622" type="curve" smooth="yes"/>
      <point x="308" y="617"/>
      <point x="296" y="609"/>
      <point x="287" y="600" type="curve" smooth="yes"/>
      <point x="277" y="590"/>
      <point x="270" y="579"/>
      <point x="265" y="566" type="curve" smooth="yes"/>
      <point x="260" y="553"/>
      <point x="257" y="539"/>
      <point x="257" y="526" type="curve" smooth="yes"/>
      <point x="257" y="512"/>
      <point x="260" y="499"/>
      <point x="265" y="486" type="curve" smooth="yes"/>
      <point x="270" y="473"/>
      <point x="278" y="462"/>
      <point x="287" y="452" type="curve" smooth="yes"/>
      <point x="340" y="395"/>
      <point x="418" y="308"/>
      <point x="523" y="193" type="curve"/>
      <point x="548" y="228"/>
      <point x="556" y="269"/>
    </contour>
  </outline>
</glyph>
<glyph name="quotesingle" format="2">
  <advance width="127"/>
  <unicode hex="0027"/>
  <outline>
    <contour>
      <point x="31" y="769" type="curve"/>
      <point x="62" y="769"/>
      <point x="83" y="769"/>
      <point x="94" y="769" type="curve"/>
      <point x="94" y="720"/>
      <point x="94" y="647"/>
      <point x="94" y="549" type="curve"/>
      <point x="83" y="549"/>
      <point x="62" y="549"/>
      <point x="31" y="549" type="curve"/>
      <point x="31" y="565"/>
      <point x="31" y="582"/>
      <point x="31" y="599" type="curve" smooth="yes"/>
      <point x="31" y="650"/>
      <point x="31" y="706"/>
    </contour>
  </outline>
</glyph>
<glyph name="parenleft" format="2">
  <advance width="282"/>
  <unicode hex="0028"/>
  <outline>
    <contour>
      <point x="31" y="361" type="curve"/>
      <point x="36" y="110"/>
      <point x="93" y="-32"/>
      <point x="204" y="-63" type="curve"/>
      <point x="212" y="-63"/>
      <point x="220" y="-63"/>
      <point x="229" y="-63" type="curve" smooth="yes"/>
      <point x="238" y="-63"/>
      <point x="245" y="-63"/>
      <point x="251" y="-63" type="curve"/>
      <point x="251" y="-60"/>
      <point x="251" y="-58"/>
      <point x="251" y="-55" type="curve" smooth="yes"/>
      <point x="251" y="-52"/>
      <point x="251" y="-50"/>
      <point x="251" y="-47" type="curve"/>
      <point x="243" y="-42"/>
      <point x="236" y="-38"/>
      <point x="229" y="-35" type="curve"/>
      <point x="223" y="-32"/>
      <point x="215" y="-26"/>
      <point x="204" y="-16" type="curve"/>
      <point x="155" y="47"/>
      <point x="130" y="172"/>
      <point x="130" y="361" type="curve" smooth="yes"/>
      <point x="129" y="532"/>
      <point x="154" y="657"/>
      <point x="204" y="737" type="curve"/>
      <point x="215" y="748"/>
      <point x="223" y="754"/>
      <point x="229" y="757" type="curve"/>
      <point x="236" y="760"/>
      <point x="243" y="764"/>
      <point x="251" y="769" type="curve"/>
      <point x="251" y="772"/>
      <point x="251" y="774"/>
      <point x="251" y="777" type="curve" smooth="yes"/>
      <point x="251" y="779"/>
      <point x="251" y="781"/>
      <point x="251" y="784" type="curve"/>
      <point x="245" y="784"/>
      <point x="238" y="784"/>
      <point x="229" y="784" type="curve" smooth="yes"/>
      <point x="220" y="784"/>
      <point x="212" y="784"/>
      <point x="204" y="784" type="curve"/>
      <point x="139" y="766"/>
      <point x="93" y="710"/>
      <point x="64" y="616" type="curve" smooth="yes"/>
      <point x="44" y="550"/>
      <point x="33" y="465"/>
    </contour>
  </outline>
</glyph>
<glyph name="parenright" format="2">
  <advance width="249"/>
  <unicode hex="0029"/>
  <outline>
    <contour>
      <point x="185" y="616" type="curve" smooth="yes"/>
      <point x="156" y="710"/>
      <point x="110" y="766"/>
      <point x="45" y="784" type="curve"/>
      <point x="38" y="784"/>
      <point x="29" y="784"/>
      <point x="20" y="784" type="curve" smooth="yes"/>
      <point x="11" y="784"/>
      <point x="4" y="784"/>
      <point x="-2" y="784" type="curve"/>
      <point x="-2" y="781"/>
      <point x="-2" y="779"/>
      <point x="-2" y="777" type="curve" smooth="yes"/>
      <point x="-2" y="774"/>
      <point x="-2" y="772"/>
      <point x="-2" y="769" type="curve"/>
      <point x="6" y="764"/>
      <point x="13" y="760"/>
      <point x="20" y="757" type="curve" smooth="yes"/>
      <point x="27" y="754"/>
      <point x="35" y="748"/>
      <point x="45" y="737" type="curve"/>
      <point x="95" y="657"/>
      <point x="120" y="532"/>
      <point x="119" y="361" type="curve"/>
      <point x="119" y="172"/>
      <point x="94" y="47"/>
      <point x="45" y="-16" type="curve"/>
      <point x="35" y="-26"/>
      <point x="27" y="-32"/>
      <point x="20" y="-35" type="curve" smooth="yes"/>
      <point x="13" y="-38"/>
      <point x="6" y="-42"/>
      <point x="-2" y="-47" type="curve"/>
      <point x="-2" y="-50"/>
      <point x="-2" y="-52"/>
      <point x="-2" y="-55" type="curve" smooth="yes"/>
      <point x="-2" y="-58"/>
      <point x="-2" y="-60"/>
      <point x="-2" y="-63" type="curve"/>
      <point x="4" y="-63"/>
      <point x="11" y="-63"/>
      <point x="20" y="-63" type="curve" smooth="yes"/>
      <point x="29" y="-63"/>
      <point x="38" y="-63"/>
      <point x="45" y="-63" type="curve"/>
      <point x="156" y="-32"/>
      <point x="213" y="110"/>
      <point x="218" y="361" type="curve" smooth="yes"/>
      <point x="216" y="465"/>
      <point x="205" y="550"/>
    </contour>
  </outline>
</glyph>
<glyph name="asterisk" format="2">
  <advance width="217"/>
  <unicode hex="002A"/>
  <outline>
    <contour>
      <point x="78" y="769" type="curve"/>
      <point x="78" y="740"/>
      <point x="78" y="683"/>
      <point x="78" y="596" type="curve"/>
      <point x="83" y="596"/>
      <point x="94" y="596"/>
      <point x="110" y="596" type="curve"/>
      <point x="110" y="625"/>
      <point x="110" y="682"/>
      <point x="110" y="769" type="curve"/>
      <point x="105" y="769"/>
      <point x="94" y="769"/>
    </contour>
    <contour>
      <point x="180" y="701" type="curve"/>
      <point x="151" y="701"/>
      <point x="94" y="701"/>
      <point x="8" y="701" type="curve"/>
      <point x="8" y="696"/>
      <point x="8" y="685"/>
      <point x="8" y="670" type="curve"/>
      <point x="37" y="670"/>
      <point x="94" y="670"/>
      <point x="180" y="670" type="curve"/>
      <point x="180" y="675"/>
      <point x="180" y="686"/>
    </contour>
    <contour>
      <point x="53" y="608" type="curve"/>
      <point x="72" y="629"/>
      <point x="109" y="673"/>
      <point x="166" y="738" type="curve"/>
      <point x="162" y="741"/>
      <point x="154" y="748"/>
      <point x="142" y="759" type="curve"/>
      <point x="123" y="737"/>
      <point x="86" y="693"/>
      <point x="29" y="628" type="curve"/>
      <point x="33" y="625"/>
      <point x="41" y="618"/>
    </contour>
    <contour>
      <point x="23" y="731" type="curve"/>
      <point x="44" y="712"/>
      <point x="86" y="672"/>
      <point x="149" y="613" type="curve"/>
      <point x="153" y="617"/>
      <point x="160" y="625"/>
      <point x="171" y="636" type="curve"/>
      <point x="150" y="656"/>
      <point x="108" y="695"/>
      <point x="45" y="754" type="curve"/>
      <point x="41" y="750"/>
      <point x="34" y="742"/>
    </contour>
  </outline>
</glyph>
<glyph name="plus" format="2">
  <advance width="507"/>
  <unicode hex="002B"/>
  <outline>
    <contour>
      <point x="215" y="199" type="curve"/>
      <point x="215" y="221"/>
      <point x="215" y="264"/>
      <point x="215" y="329" type="curve"/>
      <point x="194" y="330"/>
      <point x="174" y="330"/>
      <point x="153" y="330" type="curve" smooth="yes"/>
      <point x="132" y="330"/>
      <point x="111" y="330"/>
      <point x="90" y="330" type="curve"/>
      <point x="90" y="341"/>
      <point x="90" y="352"/>
      <point x="90" y="363" type="curve" smooth="yes"/>
      <point x="90" y="374"/>
      <point x="90" y="385"/>
      <point x="90" y="396" type="curve"/>
      <point x="111" y="396"/>
      <point x="131" y="396"/>
      <point x="151" y="396" type="curve" smooth="yes"/>
      <point x="172" y="396"/>
      <point x="192" y="396"/>
      <point x="213" y="397" type="curve"/>
      <point x="213" y="418"/>
      <point x="213" y="440"/>
      <point x="213" y="463" type="curve" smooth="yes"/>
      <point x="212" y="486"/>
      <point x="212" y="507"/>
      <point x="212" y="527" type="curve"/>
      <point x="223" y="527"/>
      <point x="235" y="527"/>
      <point x="248" y="527" type="curve"/>
      <point x="261" y="528"/>
      <point x="274" y="528"/>
      <point x="286" y="528" type="curve"/>
      <point x="287" y="499"/>
      <point x="287" y="455"/>
      <point x="288" y="396" type="curve"/>
      <point x="307" y="396"/>
      <point x="346" y="396"/>
      <point x="405" y="396" type="curve"/>
      <point x="405" y="385"/>
      <point x="405" y="363"/>
      <point x="405" y="330" type="curve"/>
      <point x="386" y="330"/>
      <point x="347" y="330"/>
      <point x="288" y="330" type="curve"/>
      <point x="288" y="309"/>
      <point x="289" y="265"/>
      <point x="290" y="200" type="curve"/>
      <point x="286" y="200"/>
      <point x="261" y="200"/>
    </contour>
  </outline>
</glyph>
<glyph name="comma" format="2">
  <advance width="158"/>
  <unicode hex="002C"/>
  <outline>
    <contour>
      <point x="96" y="47" type="curve"/>
      <point x="83" y="21"/>
      <point x="56" y="-31"/>
      <point x="16" y="-110" type="curve"/>
      <point x="8" y="-110"/>
      <point x="-8" y="-110"/>
      <point x="-31" y="-110" type="curve"/>
      <point x="-23" y="-84"/>
      <point x="-6" y="-32"/>
      <point x="19" y="47" type="curve"/>
      <point x="32" y="47"/>
      <point x="57" y="47"/>
    </contour>
  </outline>
</glyph>
<glyph name="hyphen" format="2">
  <advance width="402"/>
  <unicode hex="002D"/>
  <outline>
    <contour>
      <point x="347" y="246" type="curve"/>
      <point x="296" y="246"/>
      <point x="194" y="246"/>
      <point x="41" y="246" type="curve"/>
      <point x="41" y="257"/>
      <point x="41" y="279"/>
      <point x="41" y="312" type="curve"/>
      <point x="92" y="312"/>
      <point x="194" y="312"/>
      <point x="347" y="312" type="curve"/>
      <point x="347" y="273"/>
      <point x="347" y="251"/>
    </contour>
  </outline>
</glyph>
<glyph name="period" format="2">
  <advance width="127"/>
  <unicode hex="002E"/>
  <outline>
    <contour>
      <point x="96" y="23" type="curve"/>
      <point x="94" y="17"/>
      <point x="91" y="12"/>
      <point x="86" y="8" type="curve"/>
      <point x="82" y="4"/>
      <point x="77" y="1"/>
      <point x="71" y="-2" type="curve"/>
      <point x="66" y="-4"/>
      <point x="60" y="-5"/>
      <point x="54" y="-6" type="curve"/>
      <point x="48" y="-6"/>
      <point x="42" y="-5"/>
      <point x="36" y="-2" type="curve"/>
      <point x="31" y="0"/>
      <point x="26" y="3"/>
      <point x="22" y="8" type="curve"/>
      <point x="17" y="12"/>
      <point x="14" y="17"/>
      <point x="12" y="23" type="curve"/>
      <point x="9" y="28"/>
      <point x="8" y="34"/>
      <point x="8" y="40" type="curve" smooth="yes"/>
      <point x="8" y="46"/>
      <point x="9" y="52"/>
      <point x="12" y="58" type="curve"/>
      <point x="14" y="63"/>
      <point x="17" y="68"/>
      <point x="22" y="73" type="curve" smooth="yes"/>
      <point x="26" y="77"/>
      <point x="31" y="80"/>
      <point x="36" y="83" type="curve"/>
      <point x="42" y="85"/>
      <point x="48" y="86"/>
      <point x="54" y="86" type="curve" smooth="yes"/>
      <point x="60" y="86"/>
      <point x="66" y="85"/>
      <point x="71" y="83" type="curve"/>
      <point x="77" y="80"/>
      <point x="82" y="77"/>
      <point x="86" y="73" type="curve" smooth="yes"/>
      <point x="91" y="68"/>
      <point x="94" y="63"/>
      <point x="96" y="58" type="curve"/>
      <point x="99" y="53"/>
      <point x="100" y="47"/>
      <point x="100" y="40" type="curve" smooth="yes"/>
      <point x="100" y="34"/>
      <point x="99" y="28"/>
    </contour>
  </outline>
</glyph>
<glyph name="slash" format="2">
  <advance width="407"/>
  <unicode hex="002F"/>
  <outline>
    <contour>
      <point x="103" y="0" type="curve"/>
      <point x="86" y="0"/>
      <point x="53" y="0"/>
      <point x="2" y="0" type="curve"/>
      <point x="49" y="120"/>
      <point x="142" y="360"/>
      <point x="282" y="719" type="curve"/>
      <point x="298" y="719"/>
      <point x="330" y="719"/>
      <point x="377" y="720" type="curve"/>
      <point x="332" y="600"/>
      <point x="240" y="360"/>
    </contour>
  </outline>
</glyph>
<glyph name="zero" format="2">
  <advance width="593"/>
  <unicode hex="0030"/>
  <outline>
    <contour>
      <point x="290" y="-7" type="curve" smooth="yes"/>
      <point x="321" y="-7"/>
      <point x="349" y="-2"/>
      <point x="374" y="8" type="curve" smooth="yes"/>
      <point x="399" y="18"/>
      <point x="421" y="32"/>
      <point x="440" y="49" type="curve" smooth="yes"/>
      <point x="475" y="81"/>
      <point x="501" y="124"/>
      <point x="517" y="179" type="curve" smooth="yes"/>
      <point x="533" y="234"/>
      <point x="541" y="294"/>
      <point x="541" y="359" type="curve" smooth="yes"/>
      <point x="541" y="394"/>
      <point x="539" y="427"/>
      <point x="535" y="460" type="curve" smooth="yes"/>
      <point x="531" y="493"/>
      <point x="524" y="523"/>
      <point x="515" y="552" type="curve" smooth="yes"/>
      <point x="498" y="604"/>
      <point x="472" y="646"/>
      <point x="435" y="679" type="curve" smooth="yes"/>
      <point x="398" y="711"/>
      <point x="348" y="727"/>
      <point x="285" y="727" type="curve" smooth="yes"/>
      <point x="251" y="727"/>
      <point x="221" y="722"/>
      <point x="195" y="713" type="curve" smooth="yes"/>
      <point x="169" y="703"/>
      <point x="147" y="689"/>
      <point x="128" y="671" type="curve" smooth="yes"/>
      <point x="92" y="638"/>
      <point x="67" y="594"/>
      <point x="53" y="539" type="curve" smooth="yes"/>
      <point x="38" y="484"/>
      <point x="31" y="424"/>
      <point x="31" y="358" type="curve" smooth="yes"/>
      <point x="31" y="293"/>
      <point x="39" y="233"/>
      <point x="55" y="179" type="curve" smooth="yes"/>
      <point x="72" y="124"/>
      <point x="98" y="81"/>
      <point x="134" y="48" type="curve" smooth="yes"/>
      <point x="153" y="31"/>
      <point x="176" y="17"/>
      <point x="202" y="8" type="curve" smooth="yes"/>
      <point x="228" y="-2"/>
      <point x="257" y="-7"/>
    </contour>
    <contour>
      <point x="135" y="353" type="curve" smooth="yes"/>
      <point x="135" y="380"/>
      <point x="136" y="407"/>
      <point x="138" y="433" type="curve" smooth="yes"/>
      <point x="140" y="459"/>
      <point x="144" y="483"/>
      <point x="149" y="505" type="curve" smooth="yes"/>
      <point x="158" y="546"/>
      <point x="174" y="580"/>
      <point x="195" y="605" type="curve" smooth="yes"/>
      <point x="216" y="631"/>
      <point x="247" y="644"/>
      <point x="286" y="644" type="curve" smooth="yes"/>
      <point x="324" y="644"/>
      <point x="355" y="631"/>
      <point x="378" y="605" type="curve" smooth="yes"/>
      <point x="401" y="580"/>
      <point x="417" y="546"/>
      <point x="428" y="505" type="curve" smooth="yes"/>
      <point x="434" y="483"/>
      <point x="438" y="459"/>
      <point x="441" y="433" type="curve" smooth="yes"/>
      <point x="444" y="408"/>
      <point x="445" y="381"/>
      <point x="445" y="354" type="curve" smooth="yes"/>
      <point x="445" y="328"/>
      <point x="443" y="303"/>
      <point x="439" y="279" type="curve" smooth="yes"/>
      <point x="435" y="254"/>
      <point x="430" y="231"/>
      <point x="423" y="209" type="curve" smooth="yes"/>
      <point x="410" y="170"/>
      <point x="391" y="137"/>
      <point x="368" y="111" type="curve" smooth="yes"/>
      <point x="344" y="85"/>
      <point x="317" y="72"/>
      <point x="287" y="72" type="curve" smooth="yes"/>
      <point x="271" y="72"/>
      <point x="256" y="76"/>
      <point x="242" y="84" type="curve" smooth="yes"/>
      <point x="229" y="92"/>
      <point x="216" y="103"/>
      <point x="204" y="116" type="curve"/>
      <point x="183" y="142"/>
      <point x="166" y="176"/>
      <point x="153" y="218" type="curve" smooth="yes"/>
      <point x="141" y="261"/>
      <point x="135" y="306"/>
    </contour>
  </outline>
</glyph>
<glyph name="one" format="2">
  <advance width="302"/>
  <unicode hex="0031"/>
  <outline>
    <contour>
      <point x="105" y="628" type="curve"/>
      <point x="100" y="628"/>
      <point x="90" y="628"/>
      <point x="75" y="628" type="curve" smooth="yes"/>
      <point x="70" y="628"/>
      <point x="58" y="629"/>
      <point x="41" y="630" type="curve"/>
      <point x="41" y="643"/>
      <point x="41" y="671"/>
      <point x="41" y="712" type="curve"/>
      <point x="68" y="713"/>
      <point x="120" y="714"/>
      <point x="199" y="717" type="curve"/>
      <point x="198" y="701"/>
      <point x="198" y="668"/>
      <point x="197" y="619" type="curve"/>
      <point x="198" y="529"/>
      <point x="198" y="349"/>
      <point x="198" y="80" type="curve"/>
      <point x="199" y="80"/>
      <point x="199" y="80"/>
      <point x="199" y="80" type="curve"/>
      <point x="199" y="67"/>
      <point x="199" y="40"/>
      <point x="199" y="0" type="curve"/>
      <point x="184" y="0"/>
      <point x="153" y="0"/>
      <point x="107" y="0" type="curve"/>
      <point x="107" y="11"/>
      <point x="106" y="38"/>
      <point x="105" y="80" type="curve" smooth="yes"/>
      <point x="105" y="161"/>
      <point x="105" y="324"/>
      <point x="105" y="569" type="curve" smooth="yes"/>
      <point x="105" y="579"/>
      <point x="105" y="599"/>
    </contour>
  </outline>
</glyph>
<glyph name="two" format="2">
  <advance width="537"/>
  <unicode hex="0032"/>
  <outline>
    <contour>
      <point x="204" y="86" type="curve"/>
      <point x="251" y="85"/>
      <point x="344" y="85"/>
      <point x="485" y="84" type="curve"/>
      <point x="484" y="70"/>
      <point x="484" y="42"/>
      <point x="483" y="-1" type="curve"/>
      <point x="409" y="0"/>
      <point x="262" y="0"/>
      <point x="41" y="0" type="curve"/>
      <point x="92" y="75"/>
      <point x="190" y="222"/>
      <point x="336" y="441" type="curve" smooth="yes"/>
      <point x="345" y="454"/>
      <point x="354" y="466"/>
      <point x="361" y="479" type="curve"/>
      <point x="366" y="493"/>
      <point x="369" y="508"/>
      <point x="369" y="523" type="curve"/>
      <point x="370" y="538"/>
      <point x="367" y="553"/>
      <point x="361" y="566" type="curve"/>
      <point x="355" y="581"/>
      <point x="347" y="593"/>
      <point x="336" y="604" type="curve" smooth="yes"/>
      <point x="325" y="615"/>
      <point x="312" y="623"/>
      <point x="298" y="629" type="curve" smooth="yes"/>
      <point x="284" y="635"/>
      <point x="269" y="638"/>
      <point x="254" y="637" type="curve"/>
      <point x="239" y="637"/>
      <point x="224" y="634"/>
      <point x="211" y="629" type="curve" smooth="yes"/>
      <point x="196" y="623"/>
      <point x="184" y="615"/>
      <point x="173" y="604" type="curve" smooth="yes"/>
      <point x="162" y="593"/>
      <point x="154" y="580"/>
      <point x="148" y="566" type="curve"/>
      <point x="121" y="565"/>
      <point x="93" y="565"/>
      <point x="66" y="564" type="curve"/>
      <point x="66" y="576"/>
      <point x="68" y="589"/>
      <point x="73" y="604" type="curve" smooth="yes"/>
      <point x="82" y="628"/>
      <point x="96" y="649"/>
      <point x="115" y="668" type="curve" smooth="yes"/>
      <point x="133" y="686"/>
      <point x="154" y="700"/>
      <point x="179" y="710" type="curve" smooth="yes"/>
      <point x="203" y="721"/>
      <point x="228" y="726"/>
      <point x="254" y="725" type="curve" smooth="yes"/>
      <point x="255" y="725"/>
      <point x="255" y="725"/>
      <point x="255" y="725" type="curve"/>
      <point x="280" y="725"/>
      <point x="305" y="720"/>
      <point x="330" y="710" type="curve" smooth="yes"/>
      <point x="354" y="701"/>
      <point x="375" y="687"/>
      <point x="394" y="668" type="curve" smooth="yes"/>
      <point x="412" y="650"/>
      <point x="426" y="629"/>
      <point x="436" y="604" type="curve"/>
      <point x="447" y="581"/>
      <point x="452" y="556"/>
      <point x="451" y="529" type="curve" smooth="yes"/>
      <point x="448" y="477"/>
      <point x="431" y="426"/>
      <point x="401" y="377" type="curve" smooth="yes"/>
      <point x="357" y="312"/>
      <point x="291" y="215"/>
    </contour>
  </outline>
</glyph>
<glyph name="three" format="2">
  <advance width="471"/>
  <unicode hex="0033"/>
  <outline>
    <contour>
      <point x="295" y="435" type="curve"/>
      <point x="306" y="446"/>
      <point x="314" y="459"/>
      <point x="320" y="473" type="curve" smooth="yes"/>
      <point x="326" y="487"/>
      <point x="329" y="502"/>
      <point x="329" y="517" type="curve" smooth="yes"/>
      <point x="329" y="533"/>
      <point x="326" y="548"/>
      <point x="320" y="562" type="curve" smooth="yes"/>
      <point x="314" y="577"/>
      <point x="306" y="589"/>
      <point x="295" y="600" type="curve" smooth="yes"/>
      <point x="284" y="611"/>
      <point x="272" y="619"/>
      <point x="257" y="625" type="curve" smooth="yes"/>
      <point x="242" y="631"/>
      <point x="228" y="634"/>
      <point x="213" y="634" type="curve" smooth="yes"/>
      <point x="197" y="634"/>
      <point x="182" y="631"/>
      <point x="168" y="625" type="curve" smooth="yes"/>
      <point x="153" y="619"/>
      <point x="141" y="611"/>
      <point x="130" y="600" type="curve" smooth="yes"/>
      <point x="119" y="589"/>
      <point x="111" y="576"/>
      <point x="105" y="562" type="curve"/>
      <point x="77" y="561"/>
      <point x="49" y="560"/>
      <point x="22" y="559" type="curve"/>
      <point x="21" y="571"/>
      <point x="23" y="585"/>
      <point x="28" y="600" type="curve"/>
      <point x="38" y="624"/>
      <point x="53" y="646"/>
      <point x="72" y="665" type="curve" smooth="yes"/>
      <point x="90" y="683"/>
      <point x="111" y="697"/>
      <point x="136" y="708" type="curve" smooth="yes"/>
      <point x="159" y="718"/>
      <point x="185" y="723"/>
      <point x="214" y="723" type="curve" smooth="yes"/>
      <point x="239" y="723"/>
      <point x="264" y="718"/>
      <point x="289" y="708" type="curve" smooth="yes"/>
      <point x="314" y="698"/>
      <point x="335" y="684"/>
      <point x="354" y="665" type="curve" smooth="yes"/>
      <point x="372" y="646"/>
      <point x="386" y="625"/>
      <point x="397" y="600" type="curve" smooth="yes"/>
      <point x="408" y="576"/>
      <point x="413" y="551"/>
      <point x="412" y="524" type="curve"/>
      <point x="412" y="497"/>
      <point x="407" y="472"/>
      <point x="397" y="447" type="curve" smooth="yes"/>
      <point x="387" y="423"/>
      <point x="373" y="401"/>
      <point x="354" y="382" type="curve" smooth="yes"/>
      <point x="351" y="379"/>
      <point x="348" y="375"/>
      <point x="343" y="370" type="curve"/>
      <point x="347" y="368"/>
      <point x="354" y="364"/>
      <point x="365" y="358" type="curve"/>
      <point x="384" y="338"/>
      <point x="400" y="315"/>
      <point x="411" y="288" type="curve" smooth="yes"/>
      <point x="422" y="263"/>
      <point x="427" y="237"/>
      <point x="427" y="209" type="curve" smooth="yes"/>
      <point x="427" y="208"/>
      <point x="427" y="208"/>
      <point x="427" y="207" type="curve" smooth="yes"/>
      <point x="427" y="178"/>
      <point x="422" y="151"/>
      <point x="411" y="125" type="curve" smooth="yes"/>
      <point x="400" y="99"/>
      <point x="385" y="76"/>
      <point x="365" y="56" type="curve" smooth="yes"/>
      <point x="346" y="36"/>
      <point x="322" y="20"/>
      <point x="295" y="9" type="curve" smooth="yes"/>
      <point x="270" y="-1"/>
      <point x="243" y="-6"/>
      <point x="214" y="-7" type="curve" smooth="yes"/>
      <point x="213" y="-7"/>
      <point x="213" y="-7"/>
      <point x="212" y="-7" type="curve" smooth="yes"/>
      <point x="185" y="-7"/>
      <point x="158" y="-2"/>
      <point x="132" y="9" type="curve" smooth="yes"/>
      <point x="106" y="20"/>
      <point x="83" y="35"/>
      <point x="63" y="56" type="curve"/>
      <point x="43" y="75"/>
      <point x="27" y="98"/>
      <point x="16" y="125" type="curve" smooth="yes"/>
      <point x="6" y="150"/>
      <point x="1" y="181"/>
      <point x="0" y="218" type="curve"/>
      <point x="20" y="218"/>
      <point x="50" y="218"/>
      <point x="90" y="219" type="curve"/>
      <point x="91" y="196"/>
      <point x="94" y="178"/>
      <point x="99" y="163" type="curve"/>
      <point x="106" y="148"/>
      <point x="115" y="134"/>
      <point x="126" y="123" type="curve" smooth="yes"/>
      <point x="137" y="111"/>
      <point x="151" y="102"/>
      <point x="166" y="96" type="curve" smooth="yes"/>
      <point x="181" y="90"/>
      <point x="197" y="87"/>
      <point x="213" y="87" type="curve" smooth="yes"/>
      <point x="229" y="87"/>
      <point x="245" y="90"/>
      <point x="260" y="96" type="curve"/>
      <point x="275" y="103"/>
      <point x="289" y="112"/>
      <point x="300" y="123" type="curve" smooth="yes"/>
      <point x="311" y="134"/>
      <point x="320" y="148"/>
      <point x="326" y="163" type="curve"/>
      <point x="333" y="178"/>
      <point x="336" y="193"/>
      <point x="336" y="210" type="curve" smooth="yes"/>
      <point x="336" y="227"/>
      <point x="333" y="242"/>
      <point x="326" y="257" type="curve" smooth="yes"/>
      <point x="319" y="272"/>
      <point x="311" y="286"/>
      <point x="300" y="297" type="curve" smooth="yes"/>
      <point x="288" y="308"/>
      <point x="275" y="317"/>
      <point x="260" y="323" type="curve" smooth="yes"/>
      <point x="242" y="330"/>
      <point x="224" y="333"/>
      <point x="205" y="333" type="curve"/>
      <point x="205" y="351"/>
      <point x="205" y="378"/>
      <point x="205" y="414" type="curve"/>
      <point x="253" y="414"/>
      <point x="283" y="421"/>
    </contour>
  </outline>
</glyph>
<glyph name="four" format="2">
  <advance width="488"/>
  <unicode hex="0034"/>
  <outline>
    <contour>
      <point x="327" y="249" type="curve"/>
      <point x="327" y="292"/>
      <point x="327" y="379"/>
      <point x="327" y="509" type="curve"/>
      <point x="296" y="466"/>
      <point x="235" y="379"/>
      <point x="143" y="249" type="curve"/>
      <point x="174" y="249"/>
      <point x="235" y="249"/>
    </contour>
    <contour>
      <point x="424" y="725" type="curve"/>
      <point x="424" y="646"/>
      <point x="424" y="487"/>
      <point x="424" y="250" type="curve"/>
      <point x="432" y="250"/>
      <point x="448" y="250"/>
      <point x="471" y="250" type="curve"/>
      <point x="471" y="235"/>
      <point x="471" y="206"/>
      <point x="470" y="163" type="curve"/>
      <point x="463" y="163"/>
      <point x="448" y="163"/>
      <point x="427" y="163" type="curve"/>
      <point x="427" y="136"/>
      <point x="427" y="81"/>
      <point x="427" y="0" type="curve"/>
      <point x="410" y="0"/>
      <point x="376" y="0"/>
      <point x="325" y="0" type="curve"/>
      <point x="325" y="27"/>
      <point x="325" y="83"/>
      <point x="325" y="166" type="curve"/>
      <point x="292" y="166"/>
      <point x="226" y="166"/>
      <point x="127" y="166" type="curve" smooth="yes"/>
      <point x="109" y="166"/>
      <point x="72" y="166"/>
      <point x="17" y="166" type="curve"/>
      <point x="17" y="168"/>
      <point x="17" y="172"/>
      <point x="17" y="177" type="curve" smooth="yes"/>
      <point x="17" y="182"/>
      <point x="17" y="193"/>
      <point x="17" y="210" type="curve"/>
      <point x="78" y="296"/>
      <point x="199" y="468"/>
      <point x="381" y="725" type="curve"/>
      <point x="388" y="725"/>
      <point x="403" y="725"/>
    </contour>
  </outline>
</glyph>
<glyph name="five" format="2">
  <advance width="550"/>
  <unicode hex="0035"/>
  <outline>
    <contour>
      <point x="66" y="338" type="curve"/>
      <point x="92" y="465"/>
      <point x="118" y="591"/>
      <point x="145" y="718" type="curve"/>
      <point x="260" y="719"/>
      <point x="364" y="719"/>
      <point x="457" y="720" type="curve"/>
      <point x="457" y="692"/>
      <point x="456" y="666"/>
      <point x="454" y="642" type="curve"/>
      <point x="403" y="642"/>
      <point x="328" y="642"/>
      <point x="227" y="642" type="curve"/>
      <point x="220" y="615"/>
      <point x="207" y="560"/>
      <point x="188" y="477" type="curve"/>
      <point x="214" y="486"/>
      <point x="242" y="491"/>
      <point x="271" y="491" type="curve" smooth="yes"/>
      <point x="303" y="491"/>
      <point x="334" y="485"/>
      <point x="365" y="472" type="curve" smooth="yes"/>
      <point x="395" y="460"/>
      <point x="422" y="442"/>
      <point x="445" y="419" type="curve" smooth="yes"/>
      <point x="468" y="396"/>
      <point x="485" y="370"/>
      <point x="498" y="339" type="curve" smooth="yes"/>
      <point x="511" y="311"/>
      <point x="517" y="281"/>
      <point x="517" y="249" type="curve" smooth="yes"/>
      <point x="517" y="248"/>
      <point x="517" y="247"/>
      <point x="517" y="246" type="curve" smooth="yes"/>
      <point x="517" y="213"/>
      <point x="511" y="181"/>
      <point x="498" y="152" type="curve" smooth="yes"/>
      <point x="485" y="122"/>
      <point x="468" y="95"/>
      <point x="445" y="72" type="curve" smooth="yes"/>
      <point x="423" y="49"/>
      <point x="396" y="32"/>
      <point x="365" y="19" type="curve" smooth="yes"/>
      <point x="336" y="7"/>
      <point x="304" y="1"/>
      <point x="271" y="0" type="curve" smooth="yes"/>
      <point x="270" y="0"/>
      <point x="270" y="0"/>
      <point x="269" y="0" type="curve" smooth="yes"/>
      <point x="238" y="0"/>
      <point x="207" y="6"/>
      <point x="178" y="19" type="curve" smooth="yes"/>
      <point x="148" y="31"/>
      <point x="121" y="49"/>
      <point x="98" y="72" type="curve" smooth="yes"/>
      <point x="75" y="95"/>
      <point x="58" y="121"/>
      <point x="45" y="152" type="curve"/>
      <point x="44" y="157"/>
      <point x="43" y="165"/>
      <point x="41" y="176" type="curve"/>
      <point x="54" y="178"/>
      <point x="78" y="181"/>
      <point x="115" y="186" type="curve"/>
      <point x="124" y="167"/>
      <point x="136" y="149"/>
      <point x="151" y="134" type="curve" smooth="yes"/>
      <point x="166" y="118"/>
      <point x="184" y="106"/>
      <point x="204" y="99" type="curve"/>
      <point x="224" y="90"/>
      <point x="245" y="86"/>
      <point x="266" y="86" type="curve" smooth="yes"/>
      <point x="287" y="87"/>
      <point x="308" y="91"/>
      <point x="328" y="99" type="curve" smooth="yes"/>
      <point x="348" y="107"/>
      <point x="365" y="119"/>
      <point x="380" y="134" type="curve" smooth="yes"/>
      <point x="395" y="149"/>
      <point x="407" y="167"/>
      <point x="415" y="186" type="curve" smooth="yes"/>
      <point x="424" y="206"/>
      <point x="428" y="227"/>
      <point x="428" y="248" type="curve" smooth="yes"/>
      <point x="428" y="270"/>
      <point x="424" y="291"/>
      <point x="415" y="310" type="curve"/>
      <point x="407" y="330"/>
      <point x="395" y="348"/>
      <point x="380" y="363" type="curve" smooth="yes"/>
      <point x="365" y="378"/>
      <point x="347" y="390"/>
      <point x="328" y="398" type="curve" smooth="yes"/>
      <point x="307" y="406"/>
      <point x="287" y="410"/>
      <point x="266" y="410" type="curve" smooth="yes"/>
      <point x="244" y="410"/>
      <point x="223" y="406"/>
      <point x="204" y="398" type="curve" smooth="yes"/>
      <point x="183" y="389"/>
      <point x="166" y="378"/>
      <point x="151" y="363" type="curve" smooth="yes"/>
      <point x="137" y="350"/>
      <point x="126" y="333"/>
      <point x="118" y="313" type="curve"/>
      <point x="84" y="329"/>
      <point x="67" y="337"/>
    </contour>
  </outline>
</glyph>
<glyph name="six" format="2">
  <advance width="549"/>
  <unicode hex="0036"/>
  <outline>
    <contour>
      <point x="441" y="231" type="curve" smooth="yes"/>
      <point x="441" y="232"/>
      <point x="441" y="232"/>
      <point x="441" y="233" type="curve" smooth="yes"/>
      <point x="441" y="252"/>
      <point x="437" y="271"/>
      <point x="430" y="288" type="curve" smooth="yes"/>
      <point x="422" y="307"/>
      <point x="411" y="324"/>
      <point x="397" y="337" type="curve"/>
      <point x="383" y="352"/>
      <point x="367" y="363"/>
      <point x="348" y="370" type="curve" smooth="yes"/>
      <point x="329" y="377"/>
      <point x="311" y="381"/>
      <point x="292" y="381" type="curve" smooth="yes"/>
      <point x="291" y="381"/>
      <point x="291" y="381"/>
      <point x="291" y="381" type="curve"/>
      <point x="270" y="382"/>
      <point x="251" y="378"/>
      <point x="233" y="370" type="curve" smooth="yes"/>
      <point x="214" y="362"/>
      <point x="198" y="351"/>
      <point x="184" y="337" type="curve" smooth="yes"/>
      <point x="169" y="323"/>
      <point x="158" y="307"/>
      <point x="151" y="288" type="curve" smooth="yes"/>
      <point x="144" y="270"/>
      <point x="140" y="251"/>
      <point x="140" y="232" type="curve" smooth="yes"/>
      <point x="140" y="231"/>
      <point x="140" y="231"/>
      <point x="140" y="231" type="curve"/>
      <point x="140" y="210"/>
      <point x="144" y="191"/>
      <point x="151" y="173" type="curve" smooth="yes"/>
      <point x="159" y="154"/>
      <point x="170" y="138"/>
      <point x="184" y="124" type="curve" smooth="yes"/>
      <point x="199" y="109"/>
      <point x="215" y="98"/>
      <point x="233" y="91" type="curve" smooth="yes"/>
      <point x="253" y="83"/>
      <point x="272" y="79"/>
      <point x="291" y="80" type="curve"/>
      <point x="311" y="80"/>
      <point x="330" y="84"/>
      <point x="348" y="91" type="curve" smooth="yes"/>
      <point x="367" y="99"/>
      <point x="384" y="110"/>
      <point x="397" y="124" type="curve" smooth="yes"/>
      <point x="411" y="139"/>
      <point x="422" y="155"/>
      <point x="430" y="173" type="curve"/>
      <point x="437" y="192"/>
      <point x="441" y="211"/>
    </contour>
    <contour>
      <point x="356" y="93" type="curve"/>
      <point x="356" y="92"/>
      <point x="356" y="92"/>
      <point x="355" y="91" type="curve"/>
      <point x="354" y="91"/>
      <point x="354" y="91"/>
      <point x="354" y="91" type="curve"/>
      <point x="353" y="91"/>
      <point x="353" y="91"/>
      <point x="353" y="91" type="curve"/>
      <point x="352" y="92"/>
      <point x="352" y="92"/>
      <point x="352" y="92" type="curve"/>
      <point x="349" y="95"/>
      <point x="350" y="96"/>
      <point x="355" y="96" type="curve"/>
      <point x="356" y="95"/>
      <point x="356" y="95"/>
      <point x="356" y="95" type="curve"/>
      <point x="356" y="94"/>
      <point x="356" y="94"/>
      <point x="356" y="94" type="curve"/>
      <point x="356" y="93"/>
      <point x="356" y="93"/>
    </contour>
    <contour>
      <point x="250" y="452" type="curve"/>
      <point x="342" y="472"/>
      <point x="412" y="457"/>
      <point x="461" y="408" type="curve" smooth="yes"/>
      <point x="484" y="385"/>
      <point x="501" y="359"/>
      <point x="514" y="329" type="curve" smooth="yes"/>
      <point x="527" y="300"/>
      <point x="533" y="270"/>
      <point x="533" y="238" type="curve" smooth="yes"/>
      <point x="533" y="237"/>
      <point x="533" y="235"/>
      <point x="533" y="234" type="curve" smooth="yes"/>
      <point x="533" y="201"/>
      <point x="527" y="170"/>
      <point x="514" y="140" type="curve" smooth="yes"/>
      <point x="501" y="111"/>
      <point x="484" y="84"/>
      <point x="461" y="61" type="curve" smooth="yes"/>
      <point x="438" y="38"/>
      <point x="412" y="20"/>
      <point x="381" y="7" type="curve" smooth="yes"/>
      <point x="351" y="-5"/>
      <point x="320" y="-11"/>
      <point x="287" y="-12" type="curve" smooth="yes"/>
      <point x="286" y="-12"/>
      <point x="286" y="-12"/>
      <point x="285" y="-12" type="curve" smooth="yes"/>
      <point x="254" y="-12"/>
      <point x="223" y="-6"/>
      <point x="193" y="7" type="curve" smooth="yes"/>
      <point x="163" y="19"/>
      <point x="136" y="37"/>
      <point x="113" y="61" type="curve" smooth="yes"/>
      <point x="90" y="83"/>
      <point x="73" y="109"/>
      <point x="60" y="140" type="curve" smooth="yes"/>
      <point x="47" y="170"/>
      <point x="41" y="201"/>
      <point x="41" y="234" type="curve" smooth="yes"/>
      <point x="41" y="235"/>
      <point x="41" y="236"/>
      <point x="41" y="237" type="curve" smooth="yes"/>
      <point x="41" y="257"/>
      <point x="43" y="274"/>
      <point x="47" y="289" type="curve" smooth="yes"/>
      <point x="56" y="320"/>
      <point x="150" y="463"/>
      <point x="329" y="716" type="curve"/>
      <point x="366" y="715"/>
      <point x="402" y="715"/>
      <point x="439" y="714" type="curve"/>
      <point x="397" y="656"/>
      <point x="334" y="569"/>
    </contour>
  </outline>
</glyph>
<glyph name="seven" format="2">
  <advance width="503"/>
  <unicode hex="0037"/>
  <outline>
    <contour>
      <point x="42" y="717" type="curve"/>
      <point x="109" y="717"/>
      <point x="244" y="717"/>
      <point x="447" y="716" type="curve" smooth="yes"/>
      <point x="454" y="716"/>
      <point x="469" y="716"/>
      <point x="490" y="716" type="curve"/>
      <point x="483" y="697"/>
      <point x="468" y="660"/>
      <point x="445" y="605" type="curve" smooth="yes"/>
      <point x="403" y="504"/>
      <point x="319" y="303"/>
      <point x="192" y="1" type="curve"/>
      <point x="176" y="1"/>
      <point x="143" y="1"/>
      <point x="94" y="0" type="curve"/>
      <point x="139" y="107"/>
      <point x="227" y="320"/>
      <point x="360" y="640" type="curve"/>
      <point x="307" y="640"/>
      <point x="201" y="640"/>
      <point x="41" y="641" type="curve"/>
      <point x="41" y="654"/>
      <point x="41" y="679"/>
    </contour>
  </outline>
</glyph>
<glyph name="eight" format="2">
  <advance width="534"/>
  <unicode hex="0038"/>
  <outline>
    <contour>
      <point x="422" y="370" type="curve" smooth="yes"/>
      <point x="443" y="349"/>
      <point x="459" y="325"/>
      <point x="471" y="297" type="curve" smooth="yes"/>
      <point x="482" y="271"/>
      <point x="488" y="243"/>
      <point x="488" y="214" type="curve" smooth="yes"/>
      <point x="488" y="213"/>
      <point x="488" y="213"/>
      <point x="488" y="212" type="curve" smooth="yes"/>
      <point x="488" y="182"/>
      <point x="482" y="154"/>
      <point x="471" y="127" type="curve" smooth="yes"/>
      <point x="459" y="100"/>
      <point x="443" y="75"/>
      <point x="422" y="54" type="curve" smooth="yes"/>
      <point x="402" y="33"/>
      <point x="378" y="17"/>
      <point x="350" y="6" type="curve" smooth="yes"/>
      <point x="323" y="-5"/>
      <point x="294" y="-11"/>
      <point x="264" y="-11" type="curve" smooth="yes"/>
      <point x="263" y="-11"/>
      <point x="263" y="-11"/>
      <point x="262" y="-11" type="curve" smooth="yes"/>
      <point x="234" y="-11"/>
      <point x="206" y="-5"/>
      <point x="179" y="6" type="curve" smooth="yes"/>
      <point x="152" y="17"/>
      <point x="127" y="33"/>
      <point x="106" y="54" type="curve" smooth="yes"/>
      <point x="85" y="75"/>
      <point x="69" y="99"/>
      <point x="58" y="127" type="curve" smooth="yes"/>
      <point x="47" y="154"/>
      <point x="41" y="182"/>
      <point x="41" y="212" type="curve" smooth="yes"/>
      <point x="41" y="213"/>
      <point x="41" y="213"/>
      <point x="41" y="214" type="curve" smooth="yes"/>
      <point x="41" y="243"/>
      <point x="47" y="270"/>
      <point x="58" y="297" type="curve" smooth="yes"/>
      <point x="69" y="324"/>
      <point x="85" y="349"/>
      <point x="106" y="370" type="curve"/>
      <point x="115" y="378"/>
      <point x="124" y="385"/>
      <point x="131" y="391" type="curve"/>
      <point x="129" y="393"/>
      <point x="126" y="396"/>
      <point x="121" y="400" type="curve"/>
      <point x="103" y="417"/>
      <point x="89" y="438"/>
      <point x="80" y="462" type="curve"/>
      <point x="70" y="485"/>
      <point x="65" y="509"/>
      <point x="65" y="535" type="curve" smooth="yes"/>
      <point x="65" y="560"/>
      <point x="70" y="584"/>
      <point x="80" y="607" type="curve" smooth="yes"/>
      <point x="89" y="630"/>
      <point x="102" y="651"/>
      <point x="121" y="669" type="curve"/>
      <point x="138" y="687"/>
      <point x="159" y="701"/>
      <point x="182" y="710" type="curve" smooth="yes"/>
      <point x="205" y="720"/>
      <point x="230" y="725"/>
      <point x="255" y="725" type="curve" smooth="yes"/>
      <point x="256" y="725"/>
      <point x="256" y="725"/>
      <point x="256" y="725" type="curve"/>
      <point x="281" y="725"/>
      <point x="305" y="720"/>
      <point x="328" y="710" type="curve" smooth="yes"/>
      <point x="351" y="701"/>
      <point x="371" y="688"/>
      <point x="389" y="669" type="curve"/>
      <point x="407" y="652"/>
      <point x="421" y="631"/>
      <point x="431" y="607" type="curve" smooth="yes"/>
      <point x="440" y="584"/>
      <point x="445" y="560"/>
      <point x="445" y="535" type="curve" smooth="yes"/>
      <point x="446" y="509"/>
      <point x="442" y="485"/>
      <point x="431" y="462" type="curve" smooth="yes"/>
      <point x="420" y="438"/>
      <point x="405" y="417"/>
      <point x="386" y="400" type="curve"/>
      <point x="399" y="391"/>
      <point x="411" y="381"/>
    </contour>
    <contour>
      <point x="256" y="643" type="curve" smooth="yes"/>
      <point x="230" y="643"/>
      <point x="207" y="633"/>
      <point x="186" y="613" type="curve" smooth="yes"/>
      <point x="165" y="593"/>
      <point x="155" y="566"/>
      <point x="155" y="532" type="curve" smooth="yes"/>
      <point x="155" y="498"/>
      <point x="166" y="472"/>
      <point x="189" y="453" type="curve" smooth="yes"/>
      <point x="211" y="434"/>
      <point x="234" y="425"/>
      <point x="257" y="424" type="curve" smooth="yes"/>
      <point x="286" y="424"/>
      <point x="311" y="433"/>
      <point x="330" y="452" type="curve" smooth="yes"/>
      <point x="349" y="471"/>
      <point x="360" y="497"/>
      <point x="361" y="530" type="curve" smooth="yes"/>
      <point x="361" y="531"/>
      <point x="361" y="533"/>
      <point x="361" y="534" type="curve" smooth="yes"/>
      <point x="361" y="566"/>
      <point x="351" y="592"/>
      <point x="330" y="612" type="curve" smooth="yes"/>
      <point x="309" y="633"/>
      <point x="284" y="643"/>
    </contour>
    <contour>
      <point x="264" y="347" type="curve" smooth="yes"/>
      <point x="235" y="347"/>
      <point x="206" y="335"/>
      <point x="176" y="310" type="curve" smooth="yes"/>
      <point x="146" y="286"/>
      <point x="131" y="255"/>
      <point x="131" y="217" type="curve" smooth="yes"/>
      <point x="131" y="192"/>
      <point x="139" y="169"/>
      <point x="154" y="148" type="curve" smooth="yes"/>
      <point x="169" y="126"/>
      <point x="186" y="109"/>
      <point x="205" y="96" type="curve" smooth="yes"/>
      <point x="216" y="89"/>
      <point x="226" y="83"/>
      <point x="236" y="79" type="curve"/>
      <point x="247" y="76"/>
      <point x="256" y="74"/>
      <point x="264" y="73" type="curve"/>
      <point x="265" y="73"/>
      <point x="265" y="73"/>
      <point x="265" y="73" type="curve"/>
      <point x="298" y="73"/>
      <point x="329" y="87"/>
      <point x="356" y="116" type="curve" smooth="yes"/>
      <point x="384" y="145"/>
      <point x="398" y="177"/>
      <point x="399" y="214" type="curve" smooth="yes"/>
      <point x="399" y="215"/>
      <point x="399" y="217"/>
      <point x="399" y="218" type="curve" smooth="yes"/>
      <point x="399" y="254"/>
      <point x="385" y="284"/>
      <point x="356" y="309" type="curve" smooth="yes"/>
      <point x="327" y="334"/>
      <point x="296" y="347"/>
    </contour>
  </outline>
</glyph>
<glyph name="nine" format="2">
  <advance width="595"/>
  <unicode hex="0039"/>
  <outline>
    <contour>
      <point x="132" y="483" type="curve" smooth="yes"/>
      <point x="132" y="482"/>
      <point x="132" y="482"/>
      <point x="132" y="481" type="curve"/>
      <point x="133" y="462"/>
      <point x="137" y="443"/>
      <point x="144" y="425" type="curve" smooth="yes"/>
      <point x="152" y="406"/>
      <point x="163" y="390"/>
      <point x="177" y="376" type="curve" smooth="yes"/>
      <point x="191" y="362"/>
      <point x="207" y="351"/>
      <point x="226" y="344" type="curve"/>
      <point x="244" y="336"/>
      <point x="263" y="332"/>
      <point x="282" y="332" type="curve" smooth="yes"/>
      <point x="283" y="332"/>
      <point x="283" y="332"/>
      <point x="283" y="332" type="curve"/>
      <point x="304" y="332"/>
      <point x="323" y="336"/>
      <point x="341" y="344" type="curve"/>
      <point x="360" y="351"/>
      <point x="376" y="362"/>
      <point x="390" y="376" type="curve" smooth="yes"/>
      <point x="404" y="391"/>
      <point x="415" y="407"/>
      <point x="422" y="425" type="curve"/>
      <point x="431" y="445"/>
      <point x="435" y="464"/>
      <point x="434" y="483" type="curve"/>
      <point x="434" y="504"/>
      <point x="430" y="523"/>
      <point x="422" y="541" type="curve"/>
      <point x="415" y="560"/>
      <point x="404" y="576"/>
      <point x="390" y="590" type="curve" smooth="yes"/>
      <point x="375" y="604"/>
      <point x="359" y="615"/>
      <point x="341" y="622" type="curve"/>
      <point x="321" y="631"/>
      <point x="302" y="635"/>
      <point x="283" y="634" type="curve" smooth="yes"/>
      <point x="263" y="633"/>
      <point x="244" y="629"/>
      <point x="226" y="622" type="curve" smooth="yes"/>
      <point x="207" y="614"/>
      <point x="190" y="603"/>
      <point x="177" y="590" type="curve" smooth="yes"/>
      <point x="163" y="575"/>
      <point x="152" y="559"/>
      <point x="144" y="541" type="curve" smooth="yes"/>
      <point x="136" y="522"/>
      <point x="132" y="503"/>
    </contour>
    <contour>
      <point x="218" y="622" type="curve"/>
      <point x="219" y="622"/>
      <point x="219" y="622"/>
      <point x="219" y="622" type="curve"/>
      <point x="220" y="623"/>
      <point x="220" y="623"/>
      <point x="220" y="623" type="curve"/>
      <point x="221" y="623"/>
      <point x="221" y="623"/>
      <point x="221" y="622" type="curve"/>
      <point x="222" y="622"/>
      <point x="222" y="622"/>
      <point x="222" y="622" type="curve"/>
      <point x="222" y="621"/>
      <point x="222" y="621"/>
      <point x="223" y="621" type="curve"/>
      <point x="223" y="620"/>
      <point x="223" y="620"/>
      <point x="223" y="620" type="curve"/>
      <point x="223" y="619"/>
      <point x="223" y="619"/>
      <point x="223" y="619" type="curve"/>
      <point x="222" y="618"/>
      <point x="222" y="618"/>
      <point x="221" y="618" type="curve"/>
      <point x="220" y="617"/>
      <point x="219" y="617"/>
      <point x="218" y="620" type="curve"/>
      <point x="218" y="621"/>
      <point x="218" y="621"/>
    </contour>
    <contour>
      <point x="368" y="295" type="curve"/>
      <point x="333" y="267"/>
      <point x="296" y="253"/>
      <point x="255" y="254" type="curve" smooth="yes"/>
      <point x="200" y="253"/>
      <point x="152" y="270"/>
      <point x="113" y="305" type="curve" smooth="yes"/>
      <point x="90" y="327"/>
      <point x="73" y="354"/>
      <point x="60" y="385" type="curve" smooth="yes"/>
      <point x="48" y="415"/>
      <point x="42" y="446"/>
      <point x="41" y="479" type="curve" smooth="yes"/>
      <point x="41" y="480"/>
      <point x="41" y="480"/>
      <point x="41" y="480" type="curve"/>
      <point x="41" y="513"/>
      <point x="47" y="544"/>
      <point x="60" y="573" type="curve" smooth="yes"/>
      <point x="73" y="603"/>
      <point x="90" y="630"/>
      <point x="113" y="653" type="curve" smooth="yes"/>
      <point x="135" y="676"/>
      <point x="162" y="693"/>
      <point x="193" y="706" type="curve" smooth="yes"/>
      <point x="222" y="718"/>
      <point x="254" y="724"/>
      <point x="287" y="725" type="curve" smooth="yes"/>
      <point x="288" y="725"/>
      <point x="288" y="725"/>
      <point x="289" y="725" type="curve" smooth="yes"/>
      <point x="320" y="725"/>
      <point x="351" y="719"/>
      <point x="381" y="706" type="curve" smooth="yes"/>
      <point x="411" y="694"/>
      <point x="438" y="676"/>
      <point x="461" y="653" type="curve" smooth="yes"/>
      <point x="484" y="630"/>
      <point x="501" y="604"/>
      <point x="514" y="573" type="curve"/>
      <point x="522" y="550"/>
      <point x="526" y="525"/>
      <point x="526" y="498" type="curve" smooth="yes"/>
      <point x="526" y="443"/>
      <point x="509" y="382"/>
      <point x="476" y="314" type="curve" smooth="yes"/>
      <point x="427" y="220"/>
      <point x="375" y="115"/>
      <point x="319" y="0" type="curve"/>
      <point x="282" y="1"/>
      <point x="246" y="1"/>
      <point x="209" y="0" type="curve"/>
      <point x="244" y="65"/>
      <point x="297" y="164"/>
    </contour>
  </outline>
</glyph>
<glyph name="colon" format="2">
  <advance width="158"/>
  <unicode hex="003A"/>
  <outline>
    <contour>
      <point x="127" y="431" type="curve"/>
      <point x="124" y="426"/>
      <point x="121" y="421"/>
      <point x="117" y="416" type="curve"/>
      <point x="113" y="412"/>
      <point x="108" y="409"/>
      <point x="102" y="406" type="curve"/>
      <point x="97" y="404"/>
      <point x="91" y="403"/>
      <point x="85" y="403" type="curve" smooth="yes"/>
      <point x="79" y="403"/>
      <point x="73" y="404"/>
      <point x="67" y="406" type="curve"/>
      <point x="62" y="409"/>
      <point x="57" y="412"/>
      <point x="52" y="416" type="curve"/>
      <point x="48" y="421"/>
      <point x="45" y="426"/>
      <point x="42" y="431" type="curve"/>
      <point x="40" y="436"/>
      <point x="39" y="442"/>
      <point x="39" y="449" type="curve" smooth="yes"/>
      <point x="39" y="455"/>
      <point x="40" y="461"/>
      <point x="42" y="466" type="curve"/>
      <point x="45" y="472"/>
      <point x="48" y="477"/>
      <point x="52" y="481" type="curve"/>
      <point x="57" y="485"/>
      <point x="62" y="488"/>
      <point x="67" y="491" type="curve" smooth="yes"/>
      <point x="72" y="494"/>
      <point x="78" y="495"/>
      <point x="85" y="494" type="curve"/>
      <point x="91" y="495"/>
      <point x="97" y="494"/>
      <point x="102" y="491" type="curve"/>
      <point x="108" y="489"/>
      <point x="113" y="486"/>
      <point x="117" y="481" type="curve"/>
      <point x="121" y="477"/>
      <point x="124" y="472"/>
      <point x="127" y="466" type="curve"/>
      <point x="130" y="461"/>
      <point x="131" y="455"/>
      <point x="130" y="449" type="curve"/>
      <point x="130" y="443"/>
      <point x="129" y="437"/>
    </contour>
    <contour>
      <point x="128" y="23" type="curve"/>
      <point x="125" y="17"/>
      <point x="122" y="12"/>
      <point x="118" y="8" type="curve"/>
      <point x="113" y="4"/>
      <point x="108" y="1"/>
      <point x="103" y="-2" type="curve"/>
      <point x="97" y="-4"/>
      <point x="91" y="-5"/>
      <point x="85" y="-6" type="curve"/>
      <point x="79" y="-6"/>
      <point x="73" y="-5"/>
      <point x="68" y="-2" type="curve"/>
      <point x="62" y="0"/>
      <point x="57" y="3"/>
      <point x="53" y="8" type="curve"/>
      <point x="49" y="12"/>
      <point x="46" y="17"/>
      <point x="43" y="23" type="curve"/>
      <point x="40" y="28"/>
      <point x="39" y="34"/>
      <point x="39" y="40" type="curve" smooth="yes"/>
      <point x="39" y="46"/>
      <point x="40" y="52"/>
      <point x="43" y="58" type="curve"/>
      <point x="45" y="63"/>
      <point x="48" y="68"/>
      <point x="53" y="73" type="curve" smooth="yes"/>
      <point x="57" y="77"/>
      <point x="62" y="80"/>
      <point x="68" y="83" type="curve"/>
      <point x="73" y="85"/>
      <point x="79" y="86"/>
      <point x="85" y="86" type="curve" smooth="yes"/>
      <point x="91" y="86"/>
      <point x="97" y="85"/>
      <point x="103" y="83" type="curve"/>
      <point x="108" y="80"/>
      <point x="113" y="77"/>
      <point x="118" y="73" type="curve"/>
      <point x="122" y="68"/>
      <point x="125" y="63"/>
      <point x="128" y="58" type="curve"/>
      <point x="130" y="53"/>
      <point x="131" y="47"/>
      <point x="131" y="40" type="curve" smooth="yes"/>
      <point x="131" y="34"/>
      <point x="130" y="28"/>
    </contour>
  </outline>
</glyph>
<glyph name="semicolon" format="2">
  <advance width="158"/>
  <unicode hex="003B"/>
  <outline>
    <contour>
      <point x="121" y="47" type="curve"/>
      <point x="108" y="21"/>
      <point x="81" y="-31"/>
      <point x="41" y="-110" type="curve"/>
      <point x="34" y="-110"/>
      <point x="18" y="-110"/>
      <point x="-6" y="-110" type="curve"/>
      <point x="3" y="-84"/>
      <point x="20" y="-32"/>
      <point x="45" y="47" type="curve"/>
      <point x="58" y="47"/>
      <point x="83" y="47"/>
    </contour>
    <contour>
      <point x="118" y="431" type="curve"/>
      <point x="115" y="426"/>
      <point x="112" y="421"/>
      <point x="108" y="416" type="curve"/>
      <point x="104" y="412"/>
      <point x="99" y="409"/>
      <point x="93" y="406" type="curve"/>
      <point x="88" y="404"/>
      <point x="82" y="403"/>
      <point x="75" y="403" type="curve" smooth="yes"/>
      <point x="70" y="403"/>
      <point x="64" y="404"/>
      <point x="58" y="406" type="curve"/>
      <point x="53" y="409"/>
      <point x="48" y="412"/>
      <point x="43" y="416" type="curve"/>
      <point x="39" y="421"/>
      <point x="36" y="426"/>
      <point x="33" y="431" type="curve"/>
      <point x="31" y="436"/>
      <point x="30" y="442"/>
      <point x="30" y="449" type="curve" smooth="yes"/>
      <point x="30" y="455"/>
      <point x="31" y="461"/>
      <point x="33" y="466" type="curve"/>
      <point x="36" y="472"/>
      <point x="39" y="477"/>
      <point x="43" y="481" type="curve" smooth="yes"/>
      <point x="47" y="485"/>
      <point x="52" y="488"/>
      <point x="58" y="491" type="curve"/>
      <point x="63" y="494"/>
      <point x="69" y="495"/>
      <point x="75" y="494" type="curve"/>
      <point x="81" y="495"/>
      <point x="87" y="494"/>
      <point x="93" y="491" type="curve"/>
      <point x="98" y="489"/>
      <point x="103" y="486"/>
      <point x="108" y="481" type="curve" smooth="yes"/>
      <point x="112" y="477"/>
      <point x="115" y="472"/>
      <point x="118" y="466" type="curve"/>
      <point x="120" y="461"/>
      <point x="121" y="455"/>
      <point x="121" y="449" type="curve" smooth="yes"/>
      <point x="121" y="443"/>
      <point x="120" y="437"/>
    </contour>
  </outline>
</glyph>
<glyph name="less" format="2">
  <advance width="392"/>
  <unicode hex="003C"/>
  <outline>
    <contour>
      <point x="345" y="400" type="curve"/>
      <point x="314" y="375"/>
      <point x="251" y="326"/>
      <point x="157" y="253" type="curve"/>
      <point x="188" y="226"/>
      <point x="251" y="173"/>
      <point x="345" y="94" type="curve"/>
      <point x="345" y="79"/>
      <point x="345" y="47"/>
      <point x="345" y="0" type="curve"/>
      <point x="337" y="0"/>
      <point x="321" y="0"/>
      <point x="298" y="0" type="curve"/>
      <point x="251" y="39"/>
      <point x="157" y="118"/>
      <point x="16" y="235" type="curve"/>
      <point x="16" y="240"/>
      <point x="16" y="251"/>
      <point x="16" y="267" type="curve"/>
      <point x="65" y="306"/>
      <point x="165" y="385"/>
      <point x="314" y="502" type="curve"/>
      <point x="319" y="502"/>
      <point x="330" y="502"/>
      <point x="345" y="502" type="curve"/>
      <point x="345" y="485"/>
      <point x="345" y="451"/>
    </contour>
  </outline>
</glyph>
<glyph name="equal" format="2">
  <advance width="681"/>
  <unicode hex="003D"/>
  <outline>
    <contour>
      <point x="596" y="481" type="curve"/>
      <point x="596" y="468"/>
      <point x="596" y="443"/>
      <point x="596" y="405" type="curve"/>
      <point x="510" y="405"/>
      <point x="337" y="405"/>
      <point x="78" y="405" type="curve"/>
      <point x="78" y="418"/>
      <point x="78" y="443"/>
      <point x="78" y="481" type="curve"/>
      <point x="165" y="481"/>
      <point x="337" y="481"/>
    </contour>
    <contour>
      <point x="78" y="277" type="curve"/>
      <point x="165" y="277"/>
      <point x="337" y="277"/>
      <point x="596" y="277" type="curve"/>
      <point x="596" y="264"/>
      <point x="596" y="237"/>
      <point x="596" y="198" type="curve"/>
      <point x="510" y="198"/>
      <point x="337" y="198"/>
      <point x="78" y="198" type="curve"/>
      <point x="78" y="211"/>
      <point x="78" y="238"/>
    </contour>
  </outline>
</glyph>
<glyph name="greater" format="2">
  <advance width="392"/>
  <unicode hex="003E"/>
  <outline>
    <contour>
      <point x="16" y="502" type="curve"/>
      <point x="21" y="502"/>
      <point x="32" y="502"/>
      <point x="47" y="502" type="curve"/>
      <point x="97" y="463"/>
      <point x="196" y="384"/>
      <point x="345" y="267" type="curve"/>
      <point x="345" y="262"/>
      <point x="345" y="251"/>
      <point x="345" y="235" type="curve"/>
      <point x="298" y="196"/>
      <point x="204" y="117"/>
      <point x="63" y="0" type="curve"/>
      <point x="55" y="0"/>
      <point x="39" y="0"/>
      <point x="16" y="0" type="curve"/>
      <point x="16" y="16"/>
      <point x="16" y="47"/>
      <point x="16" y="94" type="curve"/>
      <point x="47" y="121"/>
      <point x="110" y="174"/>
      <point x="204" y="253" type="curve"/>
      <point x="173" y="278"/>
      <point x="110" y="327"/>
      <point x="16" y="400" type="curve"/>
      <point x="16" y="417"/>
      <point x="16" y="451"/>
    </contour>
  </outline>
</glyph>
<glyph name="question" format="2">
  <advance width="466"/>
  <unicode hex="003F"/>
  <outline>
    <contour>
      <point x="172" y="382" type="curve" smooth="yes"/>
      <point x="185" y="395"/>
      <point x="209" y="418"/>
      <point x="242" y="451" type="curve" smooth="yes"/>
      <point x="253" y="462"/>
      <point x="262" y="474"/>
      <point x="268" y="489" type="curve" smooth="yes"/>
      <point x="274" y="503"/>
      <point x="277" y="518"/>
      <point x="277" y="534" type="curve" smooth="yes"/>
      <point x="277" y="550"/>
      <point x="274" y="565"/>
      <point x="268" y="579" type="curve" smooth="yes"/>
      <point x="262" y="594"/>
      <point x="253" y="606"/>
      <point x="242" y="617" type="curve" smooth="yes"/>
      <point x="231" y="628"/>
      <point x="219" y="637"/>
      <point x="204" y="642" type="curve"/>
      <point x="189" y="648"/>
      <point x="174" y="651"/>
      <point x="159" y="651" type="curve" smooth="yes"/>
      <point x="143" y="651"/>
      <point x="128" y="648"/>
      <point x="114" y="642" type="curve" smooth="yes"/>
      <point x="99" y="636"/>
      <point x="87" y="628"/>
      <point x="76" y="617" type="curve" smooth="yes"/>
      <point x="65" y="606"/>
      <point x="56" y="593"/>
      <point x="51" y="579" type="curve"/>
      <point x="44" y="586"/>
      <point x="33" y="597"/>
      <point x="18" y="612" type="curve"/>
      <point x="27" y="634"/>
      <point x="40" y="654"/>
      <point x="57" y="672" type="curve" smooth="yes"/>
      <point x="74" y="689"/>
      <point x="94" y="702"/>
      <point x="117" y="711" type="curve"/>
      <point x="139" y="721"/>
      <point x="162" y="726"/>
      <point x="187" y="725" type="curve" smooth="yes"/>
      <point x="188" y="725"/>
      <point x="188" y="725"/>
      <point x="188" y="725" type="curve"/>
      <point x="212" y="725"/>
      <point x="235" y="720"/>
      <point x="258" y="711" type="curve" smooth="yes"/>
      <point x="280" y="702"/>
      <point x="300" y="689"/>
      <point x="317" y="672" type="curve" smooth="yes"/>
      <point x="334" y="655"/>
      <point x="348" y="635"/>
      <point x="357" y="612" type="curve" smooth="yes"/>
      <point x="366" y="591"/>
      <point x="371" y="568"/>
      <point x="371" y="544" type="curve" smooth="yes"/>
      <point x="371" y="543"/>
      <point x="371" y="543"/>
      <point x="371" y="542" type="curve" smooth="yes"/>
      <point x="371" y="517"/>
      <point x="366" y="494"/>
      <point x="357" y="471" type="curve" smooth="yes"/>
      <point x="348" y="449"/>
      <point x="334" y="429"/>
      <point x="317" y="412" type="curve" smooth="yes"/>
      <point x="294" y="389"/>
      <point x="275" y="371"/>
      <point x="260" y="359" type="curve" smooth="yes"/>
      <point x="223" y="329"/>
      <point x="203" y="300"/>
      <point x="200" y="272" type="curve"/>
      <point x="199" y="253"/>
      <point x="199" y="223"/>
      <point x="198" y="184" type="curve"/>
      <point x="185" y="183"/>
      <point x="158" y="183"/>
      <point x="118" y="182" type="curve"/>
      <point x="117" y="213"/>
      <point x="116" y="245"/>
      <point x="116" y="276" type="curve" smooth="yes"/>
      <point x="116" y="309"/>
      <point x="135" y="345"/>
    </contour>
    <contour>
      <point x="200" y="23" type="curve"/>
      <point x="197" y="18"/>
      <point x="194" y="13"/>
      <point x="190" y="9" type="curve"/>
      <point x="186" y="4"/>
      <point x="181" y="1"/>
      <point x="175" y="-1" type="curve"/>
      <point x="170" y="-4"/>
      <point x="164" y="-5"/>
      <point x="158" y="-5" type="curve" smooth="yes"/>
      <point x="152" y="-5"/>
      <point x="146" y="-4"/>
      <point x="140" y="-1" type="curve"/>
      <point x="135" y="1"/>
      <point x="130" y="4"/>
      <point x="125" y="9" type="curve" smooth="yes"/>
      <point x="121" y="13"/>
      <point x="118" y="18"/>
      <point x="115" y="23" type="curve"/>
      <point x="113" y="29"/>
      <point x="112" y="35"/>
      <point x="112" y="41" type="curve" smooth="yes"/>
      <point x="112" y="47"/>
      <point x="113" y="53"/>
      <point x="115" y="59" type="curve"/>
      <point x="118" y="64"/>
      <point x="121" y="69"/>
      <point x="125" y="73" type="curve" smooth="yes"/>
      <point x="130" y="78"/>
      <point x="135" y="81"/>
      <point x="140" y="83" type="curve"/>
      <point x="145" y="86"/>
      <point x="151" y="87"/>
      <point x="158" y="87" type="curve" smooth="yes"/>
      <point x="164" y="87"/>
      <point x="170" y="86"/>
      <point x="175" y="83" type="curve"/>
      <point x="180" y="81"/>
      <point x="185" y="78"/>
      <point x="190" y="73" type="curve" smooth="yes"/>
      <point x="194" y="69"/>
      <point x="197" y="64"/>
      <point x="200" y="59" type="curve"/>
      <point x="202" y="53"/>
      <point x="203" y="47"/>
      <point x="203" y="41" type="curve" smooth="yes"/>
      <point x="203" y="35"/>
      <point x="202" y="29"/>
    </contour>
  </outline>
</glyph>
<glyph name="at" format="2">
  <advance width="802"/>
  <unicode hex="0040"/>
  <outline>
    <contour>
      <point x="496" y="285" type="curve"/>
      <point x="497" y="286"/>
      <point x="497" y="287"/>
      <point x="497" y="288" type="curve" smooth="yes"/>
      <point x="497" y="307"/>
      <point x="484" y="323"/>
      <point x="457" y="338" type="curve"/>
      <point x="446" y="345"/>
      <point x="429" y="348"/>
      <point x="406" y="349" type="curve" smooth="yes"/>
      <point x="405" y="349"/>
      <point x="404" y="349"/>
      <point x="403" y="349" type="curve" smooth="yes"/>
      <point x="388" y="349"/>
      <point x="376" y="347"/>
      <point x="365" y="342" type="curve" smooth="yes"/>
      <point x="350" y="336"/>
      <point x="336" y="327"/>
      <point x="325" y="316" type="curve"/>
      <point x="312" y="305"/>
      <point x="302" y="293"/>
      <point x="295" y="278" type="curve" smooth="yes"/>
      <point x="288" y="263"/>
      <point x="283" y="248"/>
      <point x="282" y="233" type="curve"/>
      <point x="281" y="229"/>
      <point x="281" y="225"/>
      <point x="281" y="220" type="curve" smooth="yes"/>
      <point x="281" y="209"/>
      <point x="283" y="199"/>
      <point x="286" y="188" type="curve"/>
      <point x="291" y="173"/>
      <point x="298" y="161"/>
      <point x="308" y="150" type="curve" smooth="yes"/>
      <point x="318" y="139"/>
      <point x="330" y="130"/>
      <point x="344" y="125" type="curve"/>
      <point x="358" y="118"/>
      <point x="373" y="115"/>
      <point x="388" y="116" type="curve"/>
      <point x="389" y="116"/>
      <point x="390" y="116"/>
      <point x="391" y="116" type="curve" smooth="yes"/>
      <point x="406" y="116"/>
      <point x="420" y="119"/>
      <point x="434" y="125" type="curve" smooth="yes"/>
      <point x="451" y="133"/>
      <point x="464" y="143"/>
      <point x="475" y="156" type="curve"/>
      <point x="478" y="159"/>
      <point x="480" y="163"/>
      <point x="483" y="166" type="curve"/>
      <point x="486" y="193"/>
      <point x="491" y="232"/>
    </contour>
    <contour>
      <point x="528" y="-73" type="curve"/>
      <point x="482" y="-108"/>
      <point x="427" y="-126"/>
      <point x="362" y="-127" type="curve" smooth="yes"/>
      <point x="359" y="-127"/>
      <point x="357" y="-127"/>
      <point x="355" y="-127" type="curve" smooth="yes"/>
      <point x="311" y="-127"/>
      <point x="269" y="-118"/>
      <point x="228" y="-100" type="curve" smooth="yes"/>
      <point x="187" y="-83"/>
      <point x="151" y="-57"/>
      <point x="120" y="-23" type="curve" smooth="yes"/>
      <point x="90" y="10"/>
      <point x="68" y="48"/>
      <point x="54" y="93" type="curve" smooth="yes"/>
      <point x="43" y="125"/>
      <point x="38" y="158"/>
      <point x="38" y="192" type="curve" smooth="yes"/>
      <point x="38" y="205"/>
      <point x="39" y="217"/>
      <point x="40" y="230" type="curve" smooth="yes"/>
      <point x="45" y="277"/>
      <point x="58" y="322"/>
      <point x="81" y="367" type="curve" smooth="yes"/>
      <point x="103" y="410"/>
      <point x="133" y="448"/>
      <point x="170" y="482" type="curve" smooth="yes"/>
      <point x="206" y="515"/>
      <point x="247" y="541"/>
      <point x="294" y="560" type="curve" smooth="yes"/>
      <point x="339" y="578"/>
      <point x="385" y="587"/>
      <point x="433" y="587" type="curve" smooth="yes"/>
      <point x="434" y="587"/>
      <point x="434" y="587"/>
      <point x="435" y="587" type="curve" smooth="yes"/>
      <point x="481" y="587"/>
      <point x="525" y="578"/>
      <point x="567" y="560" type="curve" smooth="yes"/>
      <point x="609" y="543"/>
      <point x="645" y="517"/>
      <point x="675" y="482" type="curve" smooth="yes"/>
      <point x="705" y="449"/>
      <point x="727" y="411"/>
      <point x="741" y="367" type="curve" smooth="yes"/>
      <point x="751" y="334"/>
      <point x="756" y="301"/>
      <point x="756" y="266" type="curve" smooth="yes"/>
      <point x="756" y="254"/>
      <point x="755" y="242"/>
      <point x="754" y="230" type="curve" smooth="yes"/>
      <point x="750" y="182"/>
      <point x="737" y="136"/>
      <point x="714" y="93" type="curve"/>
      <point x="692" y="60"/>
      <point x="670" y="39"/>
      <point x="648" y="30" type="curve"/>
      <point x="611" y="17"/>
      <point x="578" y="18"/>
      <point x="551" y="31" type="curve" smooth="yes"/>
      <point x="524" y="44"/>
      <point x="505" y="74"/>
      <point x="495" y="122" type="curve"/>
      <point x="494" y="121"/>
      <point x="494" y="121"/>
      <point x="494" y="121" type="curve"/>
      <point x="479" y="101"/>
      <point x="460" y="85"/>
      <point x="436" y="73" type="curve"/>
      <point x="414" y="64"/>
      <point x="391" y="60"/>
      <point x="368" y="60" type="curve" smooth="yes"/>
      <point x="345" y="59"/>
      <point x="324" y="64"/>
      <point x="303" y="73" type="curve" smooth="yes"/>
      <point x="283" y="81"/>
      <point x="266" y="93"/>
      <point x="251" y="110" type="curve" smooth="yes"/>
      <point x="236" y="126"/>
      <point x="226" y="145"/>
      <point x="219" y="166" type="curve" smooth="yes"/>
      <point x="212" y="187"/>
      <point x="210" y="210"/>
      <point x="212" y="233" type="curve" smooth="yes"/>
      <point x="214" y="256"/>
      <point x="221" y="278"/>
      <point x="232" y="299" type="curve" smooth="yes"/>
      <point x="243" y="320"/>
      <point x="257" y="339"/>
      <point x="275" y="355" type="curve" smooth="yes"/>
      <point x="292" y="371"/>
      <point x="312" y="384"/>
      <point x="335" y="393" type="curve" smooth="yes"/>
      <point x="357" y="402"/>
      <point x="380" y="406"/>
      <point x="403" y="406" type="curve" smooth="yes"/>
      <point x="426" y="406"/>
      <point x="447" y="402"/>
      <point x="468" y="393" type="curve" smooth="yes"/>
      <point x="485" y="385"/>
      <point x="497" y="376"/>
      <point x="504" y="366" type="curve"/>
      <point x="505" y="373"/>
      <point x="506" y="383"/>
      <point x="507" y="394" type="curve"/>
      <point x="530" y="394"/>
      <point x="554" y="394"/>
      <point x="577" y="394" type="curve"/>
      <point x="572" y="345"/>
      <point x="563" y="270"/>
      <point x="552" y="171" type="curve" smooth="yes"/>
      <point x="548" y="114"/>
      <point x="563" y="82"/>
      <point x="598" y="75" type="curve" smooth="yes"/>
      <point x="628" y="69"/>
      <point x="651" y="83"/>
      <point x="666" y="117" type="curve" smooth="yes"/>
      <point x="680" y="153"/>
      <point x="688" y="190"/>
      <point x="691" y="229" type="curve" smooth="yes"/>
      <point x="694" y="268"/>
      <point x="690" y="305"/>
      <point x="680" y="339" type="curve" smooth="yes"/>
      <point x="669" y="375"/>
      <point x="651" y="406"/>
      <point x="627" y="433" type="curve" smooth="yes"/>
      <point x="602" y="460"/>
      <point x="573" y="481"/>
      <point x="540" y="495" type="curve" smooth="yes"/>
      <point x="505" y="510"/>
      <point x="469" y="517"/>
      <point x="432" y="517" type="curve" smooth="yes"/>
      <point x="393" y="517"/>
      <point x="356" y="510"/>
      <point x="320" y="495" type="curve" smooth="yes"/>
      <point x="283" y="480"/>
      <point x="249" y="460"/>
      <point x="220" y="433" type="curve" smooth="yes"/>
      <point x="190" y="406"/>
      <point x="166" y="374"/>
      <point x="148" y="339" type="curve" smooth="yes"/>
      <point x="130" y="304"/>
      <point x="119" y="267"/>
      <point x="115" y="229" type="curve" smooth="yes"/>
      <point x="111" y="190"/>
      <point x="115" y="154"/>
      <point x="126" y="119" type="curve" smooth="yes"/>
      <point x="137" y="83"/>
      <point x="155" y="52"/>
      <point x="179" y="26" type="curve" smooth="yes"/>
      <point x="204" y="-2"/>
      <point x="233" y="-23"/>
      <point x="267" y="-37" type="curve" smooth="yes"/>
      <point x="301" y="-52"/>
      <point x="337" y="-59"/>
      <point x="374" y="-58" type="curve" smooth="yes"/>
      <point x="407" y="-57"/>
      <point x="445" y="-49"/>
      <point x="486" y="-32" type="curve"/>
      <point x="495" y="-41"/>
      <point x="509" y="-55"/>
    </contour>
  </outline>
</glyph>
<glyph name="A" format="2">
  <advance width="730"/>
  <unicode hex="0041"/>
  <outline>
    <contour>
      <point x="326" y="749" type="curve"/>
      <point x="381" y="624"/>
      <point x="492" y="375"/>
      <point x="657" y="1" type="curve"/>
      <point x="641" y="1"/>
      <point x="609" y="1"/>
      <point x="560" y="1" type="curve"/>
      <point x="545" y="32"/>
      <point x="516" y="94"/>
      <point x="472" y="187" type="curve"/>
      <point x="425" y="187"/>
      <point x="331" y="187"/>
      <point x="190" y="187" type="curve"/>
      <point x="177" y="156"/>
      <point x="149" y="94"/>
      <point x="108" y="1" type="curve"/>
      <point x="91" y="1"/>
      <point x="59" y="1"/>
      <point x="10" y="1" type="curve"/>
      <point x="63" y="126"/>
      <point x="168" y="375"/>
    </contour>
    <contour>
      <point x="433" y="272" type="curve"/>
      <point x="416" y="315"/>
      <point x="380" y="399"/>
      <point x="327" y="526" type="curve"/>
      <point x="310" y="484"/>
      <point x="277" y="399"/>
      <point x="227" y="272" type="curve"/>
      <point x="262" y="272"/>
      <point x="330" y="272"/>
    </contour>
  </outline>
</glyph>
<glyph name="B" format="2">
  <advance width="534"/>
  <unicode hex="0042"/>
  <outline>
    <contour>
      <point x="220" y="719" type="curve" smooth="yes"/>
      <point x="240" y="719"/>
      <point x="262" y="718"/>
      <point x="286" y="715" type="curve" smooth="yes"/>
      <point x="310" y="712"/>
      <point x="333" y="704"/>
      <point x="354" y="693" type="curve" smooth="yes"/>
      <point x="377" y="680"/>
      <point x="396" y="661"/>
      <point x="410" y="636" type="curve" smooth="yes"/>
      <point x="424" y="610"/>
      <point x="430" y="575"/>
      <point x="429" y="531" type="curve" smooth="yes"/>
      <point x="428" y="500"/>
      <point x="419" y="473"/>
      <point x="400" y="450" type="curve" smooth="yes"/>
      <point x="381" y="427"/>
      <point x="360" y="410"/>
      <point x="338" y="399" type="curve"/>
      <point x="349" y="399"/>
      <point x="360" y="398"/>
      <point x="371" y="395" type="curve" smooth="yes"/>
      <point x="383" y="392"/>
      <point x="394" y="387"/>
      <point x="405" y="380" type="curve" smooth="yes"/>
      <point x="426" y="367"/>
      <point x="443" y="346"/>
      <point x="458" y="317" type="curve" smooth="yes"/>
      <point x="473" y="288"/>
      <point x="480" y="247"/>
      <point x="480" y="196" type="curve" smooth="yes"/>
      <point x="480" y="181"/>
      <point x="478" y="166"/>
      <point x="475" y="150" type="curve"/>
      <point x="471" y="134"/>
      <point x="466" y="118"/>
      <point x="459" y="103" type="curve" smooth="yes"/>
      <point x="446" y="76"/>
      <point x="427" y="52"/>
      <point x="404" y="31" type="curve" smooth="yes"/>
      <point x="380" y="11"/>
      <point x="352" y="1"/>
      <point x="319" y="0" type="curve" smooth="yes"/>
      <point x="289" y="-1"/>
      <point x="259" y="-2"/>
      <point x="229" y="-2" type="curve" smooth="yes"/>
      <point x="213" y="-2"/>
      <point x="197" y="-2"/>
      <point x="180" y="-1" type="curve" smooth="yes"/>
      <point x="134" y="0"/>
      <point x="88" y="0"/>
      <point x="41" y="0" type="curve"/>
      <point x="41" y="48"/>
      <point x="41" y="93"/>
      <point x="41" y="135" type="curve" smooth="yes"/>
      <point x="41" y="164"/>
      <point x="41" y="191"/>
      <point x="41" y="217" type="curve" smooth="yes"/>
      <point x="41" y="282"/>
      <point x="41" y="353"/>
      <point x="41" y="429" type="curve" smooth="yes"/>
      <point x="41" y="470"/>
      <point x="41" y="514"/>
      <point x="41" y="561" type="curve" smooth="yes"/>
      <point x="41" y="608"/>
      <point x="41" y="661"/>
      <point x="41" y="718" type="curve"/>
      <point x="81" y="718"/>
      <point x="141" y="718"/>
    </contour>
    <contour>
      <point x="133" y="645" type="curve"/>
      <point x="133" y="619"/>
      <point x="133" y="592"/>
      <point x="133" y="565" type="curve" smooth="yes"/>
      <point x="134" y="538"/>
      <point x="134" y="512"/>
      <point x="134" y="487" type="curve" smooth="yes"/>
      <point x="134" y="474"/>
      <point x="134" y="463"/>
      <point x="134" y="452" type="curve"/>
      <point x="135" y="442"/>
      <point x="135" y="431"/>
      <point x="135" y="418" type="curve"/>
      <point x="156" y="418"/>
      <point x="170" y="418"/>
      <point x="178" y="418" type="curve" smooth="yes"/>
      <point x="189" y="418"/>
      <point x="206" y="418"/>
      <point x="228" y="419" type="curve" smooth="yes"/>
      <point x="255" y="420"/>
      <point x="280" y="431"/>
      <point x="301" y="452" type="curve" smooth="yes"/>
      <point x="322" y="472"/>
      <point x="333" y="498"/>
      <point x="334" y="529" type="curve" smooth="yes"/>
      <point x="334" y="531"/>
      <point x="334" y="533"/>
      <point x="334" y="535" type="curve" smooth="yes"/>
      <point x="334" y="578"/>
      <point x="322" y="607"/>
      <point x="298" y="622" type="curve" smooth="yes"/>
      <point x="273" y="637"/>
      <point x="245" y="645"/>
      <point x="216" y="645" type="curve" smooth="yes"/>
      <point x="215" y="645"/>
      <point x="215" y="645"/>
      <point x="215" y="645" type="curve"/>
      <point x="196" y="645"/>
      <point x="169" y="645"/>
    </contour>
    <contour>
      <point x="133" y="339" type="curve"/>
      <point x="134" y="282"/>
      <point x="134" y="197"/>
      <point x="134" y="83" type="curve"/>
      <point x="162" y="83"/>
      <point x="186" y="83"/>
      <point x="207" y="83" type="curve" smooth="yes"/>
      <point x="228" y="84"/>
      <point x="255" y="84"/>
      <point x="286" y="84" type="curve" smooth="yes"/>
      <point x="307" y="85"/>
      <point x="328" y="93"/>
      <point x="351" y="110" type="curve" smooth="yes"/>
      <point x="373" y="127"/>
      <point x="385" y="157"/>
      <point x="386" y="202" type="curve" smooth="yes"/>
      <point x="386" y="204"/>
      <point x="386" y="206"/>
      <point x="386" y="207" type="curve" smooth="yes"/>
      <point x="386" y="246"/>
      <point x="376" y="277"/>
      <point x="355" y="301" type="curve" smooth="yes"/>
      <point x="333" y="326"/>
      <point x="307" y="338"/>
      <point x="278" y="338" type="curve" smooth="yes"/>
      <point x="254" y="339"/>
      <point x="233" y="339"/>
      <point x="214" y="339" type="curve" smooth="yes"/>
      <point x="209" y="339"/>
      <point x="205" y="339"/>
      <point x="201" y="339" type="curve" smooth="yes"/>
      <point x="180" y="339"/>
      <point x="157" y="339"/>
    </contour>
  </outline>
</glyph>
<glyph name="C" format="2">
  <advance width="684"/>
  <unicode hex="0043"/>
  <outline>
    <contour>
      <point x="615" y="41" type="curve"/>
      <point x="599" y="32"/>
      <point x="579" y="23"/>
      <point x="556" y="12" type="curve"/>
      <point x="511" y="-6"/>
      <point x="464" y="-15"/>
      <point x="414" y="-16" type="curve" smooth="yes"/>
      <point x="413" y="-16"/>
      <point x="412" y="-16"/>
      <point x="411" y="-16" type="curve" smooth="yes"/>
      <point x="363" y="-16"/>
      <point x="316" y="-7"/>
      <point x="271" y="12" type="curve" smooth="yes"/>
      <point x="226" y="30"/>
      <point x="185" y="57"/>
      <point x="150" y="93" type="curve" smooth="yes"/>
      <point x="115" y="127"/>
      <point x="88" y="167"/>
      <point x="69" y="214" type="curve" smooth="yes"/>
      <point x="50" y="259"/>
      <point x="41" y="306"/>
      <point x="41" y="357" type="curve" smooth="yes"/>
      <point x="41" y="358"/>
      <point x="41" y="359"/>
      <point x="41" y="360" type="curve" smooth="yes"/>
      <point x="41" y="407"/>
      <point x="50" y="454"/>
      <point x="69" y="499" type="curve" smooth="yes"/>
      <point x="88" y="544"/>
      <point x="115" y="585"/>
      <point x="150" y="620" type="curve" smooth="yes"/>
      <point x="184" y="655"/>
      <point x="224" y="682"/>
      <point x="271" y="701" type="curve" smooth="yes"/>
      <point x="316" y="720"/>
      <point x="363" y="730"/>
      <point x="414" y="729" type="curve"/>
      <point x="421" y="730"/>
      <point x="427" y="730"/>
      <point x="434" y="730" type="curve" smooth="yes"/>
      <point x="447" y="730"/>
      <point x="459" y="729"/>
      <point x="472" y="728" type="curve"/>
      <point x="492" y="725"/>
      <point x="511" y="721"/>
      <point x="530" y="716" type="curve" smooth="yes"/>
      <point x="542" y="713"/>
      <point x="556" y="707"/>
      <point x="571" y="699" type="curve"/>
      <point x="586" y="690"/>
      <point x="597" y="683"/>
      <point x="604" y="676" type="curve"/>
      <point x="604" y="655"/>
      <point x="604" y="638"/>
      <point x="604" y="625" type="curve" smooth="yes"/>
      <point x="604" y="611"/>
      <point x="604" y="594"/>
      <point x="604" y="573" type="curve"/>
      <point x="583" y="594"/>
      <point x="555" y="611"/>
      <point x="518" y="626" type="curve"/>
      <point x="484" y="634"/>
      <point x="451" y="638"/>
      <point x="419" y="638" type="curve" smooth="yes"/>
      <point x="381" y="639"/>
      <point x="345" y="632"/>
      <point x="311" y="617" type="curve" smooth="yes"/>
      <point x="276" y="602"/>
      <point x="246" y="582"/>
      <point x="220" y="556" type="curve" smooth="yes"/>
      <point x="193" y="529"/>
      <point x="173" y="499"/>
      <point x="160" y="465" type="curve" smooth="yes"/>
      <point x="145" y="430"/>
      <point x="138" y="395"/>
      <point x="138" y="358" type="curve" smooth="yes"/>
      <point x="138" y="320"/>
      <point x="145" y="284"/>
      <point x="160" y="250" type="curve" smooth="yes"/>
      <point x="174" y="215"/>
      <point x="194" y="185"/>
      <point x="220" y="159" type="curve" smooth="yes"/>
      <point x="247" y="132"/>
      <point x="277" y="112"/>
      <point x="311" y="99" type="curve" smooth="yes"/>
      <point x="346" y="84"/>
      <point x="382" y="77"/>
      <point x="419" y="77" type="curve" smooth="yes"/>
      <point x="456" y="78"/>
      <point x="492" y="85"/>
      <point x="526" y="99" type="curve" smooth="yes"/>
      <point x="563" y="115"/>
      <point x="593" y="132"/>
      <point x="615" y="149" type="curve"/>
      <point x="615" y="125"/>
      <point x="615" y="89"/>
    </contour>
  </outline>
</glyph>
<glyph name="D" format="2">
  <advance width="657"/>
  <unicode hex="0044"/>
  <outline>
    <contour>
      <point x="262" y="722" type="curve" smooth="yes"/>
      <point x="302" y="721"/>
      <point x="339" y="715"/>
      <point x="372" y="704" type="curve" smooth="yes"/>
      <point x="406" y="693"/>
      <point x="434" y="678"/>
      <point x="457" y="659" type="curve" smooth="yes"/>
      <point x="479" y="641"/>
      <point x="497" y="623"/>
      <point x="511" y="606" type="curve" smooth="yes"/>
      <point x="524" y="589"/>
      <point x="536" y="572"/>
      <point x="545" y="553" type="curve" smooth="yes"/>
      <point x="568" y="504"/>
      <point x="581" y="451"/>
      <point x="585" y="393" type="curve" smooth="yes"/>
      <point x="586" y="380"/>
      <point x="586" y="367"/>
      <point x="586" y="355" type="curve" smooth="yes"/>
      <point x="586" y="311"/>
      <point x="580" y="270"/>
      <point x="569" y="232" type="curve" smooth="yes"/>
      <point x="556" y="185"/>
      <point x="531" y="141"/>
      <point x="496" y="102" type="curve" smooth="yes"/>
      <point x="461" y="63"/>
      <point x="418" y="34"/>
      <point x="367" y="16" type="curve" smooth="yes"/>
      <point x="334" y="5"/>
      <point x="300" y="0"/>
      <point x="266" y="0" type="curve" smooth="yes"/>
      <point x="242" y="0"/>
      <point x="220" y="0"/>
      <point x="200" y="0" type="curve" smooth="yes"/>
      <point x="179" y="0"/>
      <point x="126" y="0"/>
      <point x="41" y="0" type="curve"/>
      <point x="41" y="116"/>
      <point x="41" y="290"/>
      <point x="41" y="522" type="curve" smooth="yes"/>
      <point x="41" y="567"/>
      <point x="41" y="633"/>
      <point x="41" y="722" type="curve"/>
      <point x="78" y="722"/>
      <point x="151" y="722"/>
    </contour>
    <contour>
      <point x="471" y="502" type="curve" smooth="yes"/>
      <point x="453" y="545"/>
      <point x="426" y="581"/>
      <point x="389" y="609" type="curve" smooth="yes"/>
      <point x="352" y="636"/>
      <point x="307" y="650"/>
      <point x="256" y="650" type="curve" smooth="yes"/>
      <point x="215" y="650"/>
      <point x="191" y="650"/>
      <point x="184" y="650" type="curve" smooth="yes"/>
      <point x="170" y="650"/>
      <point x="153" y="650"/>
      <point x="133" y="649" type="curve"/>
      <point x="133" y="356"/>
      <point x="133" y="201"/>
      <point x="133" y="182" type="curve" smooth="yes"/>
      <point x="133" y="163"/>
      <point x="133" y="127"/>
      <point x="133" y="72" type="curve"/>
      <point x="146" y="72"/>
      <point x="159" y="72"/>
      <point x="171" y="72" type="curve" smooth="yes"/>
      <point x="177" y="72"/>
      <point x="183" y="72"/>
      <point x="189" y="72" type="curve" smooth="yes"/>
      <point x="206" y="72"/>
      <point x="229" y="72"/>
      <point x="256" y="72" type="curve" smooth="yes"/>
      <point x="311" y="73"/>
      <point x="361" y="93"/>
      <point x="406" y="130" type="curve" smooth="yes"/>
      <point x="451" y="168"/>
      <point x="478" y="221"/>
      <point x="487" y="289" type="curve" smooth="yes"/>
      <point x="490" y="312"/>
      <point x="492" y="336"/>
      <point x="492" y="360" type="curve" smooth="yes"/>
      <point x="492" y="376"/>
      <point x="491" y="392"/>
      <point x="490" y="408" type="curve" smooth="yes"/>
      <point x="486" y="448"/>
      <point x="480" y="479"/>
    </contour>
  </outline>
</glyph>
<glyph name="E" format="2">
  <advance width="520"/>
  <unicode hex="0045"/>
  <outline>
    <contour>
      <point x="135" y="84" type="curve"/>
      <point x="184" y="84"/>
      <point x="280" y="84"/>
      <point x="425" y="84" type="curve"/>
      <point x="425" y="70"/>
      <point x="425" y="42"/>
      <point x="425" y="0" type="curve"/>
      <point x="361" y="0"/>
      <point x="233" y="0"/>
      <point x="41" y="0" type="curve"/>
      <point x="41" y="119"/>
      <point x="41" y="358"/>
      <point x="41" y="717" type="curve"/>
      <point x="104" y="717"/>
      <point x="229" y="717"/>
      <point x="416" y="717" type="curve"/>
      <point x="416" y="703"/>
      <point x="416" y="675"/>
      <point x="416" y="634" type="curve"/>
      <point x="369" y="634"/>
      <point x="276" y="634"/>
      <point x="135" y="634" type="curve"/>
      <point x="135" y="606"/>
      <point x="135" y="576"/>
      <point x="135" y="543" type="curve" smooth="yes"/>
      <point x="135" y="510"/>
      <point x="135" y="466"/>
      <point x="135" y="410" type="curve"/>
      <point x="190" y="410"/>
      <point x="273" y="410"/>
      <point x="384" y="409" type="curve"/>
      <point x="385" y="395"/>
      <point x="385" y="367"/>
      <point x="386" y="326" type="curve"/>
      <point x="345" y="326"/>
      <point x="261" y="326"/>
      <point x="135" y="326" type="curve"/>
      <point x="135" y="285"/>
      <point x="135" y="205"/>
    </contour>
  </outline>
</glyph>
<glyph name="F" format="2">
  <advance width="441"/>
  <unicode hex="0046"/>
  <outline>
    <contour>
      <point x="31" y="717" type="curve"/>
      <point x="92" y="717"/>
      <point x="213" y="717"/>
      <point x="395" y="717" type="curve"/>
      <point x="395" y="703"/>
      <point x="395" y="675"/>
      <point x="395" y="633" type="curve"/>
      <point x="350" y="633"/>
      <point x="259" y="633"/>
      <point x="123" y="633" type="curve"/>
      <point x="122" y="596"/>
      <point x="122" y="520"/>
      <point x="121" y="407" type="curve"/>
      <point x="161" y="407"/>
      <point x="241" y="407"/>
      <point x="361" y="406" type="curve"/>
      <point x="361" y="393"/>
      <point x="361" y="365"/>
      <point x="361" y="323" type="curve"/>
      <point x="321" y="323"/>
      <point x="241" y="323"/>
      <point x="122" y="322" type="curve"/>
      <point x="122" y="269"/>
      <point x="122" y="161"/>
      <point x="122" y="0" type="curve"/>
      <point x="108" y="0"/>
      <point x="78" y="0"/>
      <point x="31" y="0" type="curve"/>
      <point x="31" y="119"/>
      <point x="31" y="358"/>
    </contour>
  </outline>
</glyph>
<glyph name="G" format="2">
  <advance width="740"/>
  <unicode hex="0047"/>
  <outline>
    <contour>
      <point x="594" y="586" type="curve"/>
      <point x="556" y="609"/>
      <point x="524" y="623"/>
      <point x="497" y="627" type="curve"/>
      <point x="472" y="632"/>
      <point x="443" y="635"/>
      <point x="411" y="634" type="curve" smooth="yes"/>
      <point x="374" y="634"/>
      <point x="331" y="626"/>
      <point x="284" y="609" type="curve" smooth="yes"/>
      <point x="250" y="595"/>
      <point x="221" y="575"/>
      <point x="196" y="550" type="curve" smooth="yes"/>
      <point x="169" y="524"/>
      <point x="149" y="494"/>
      <point x="136" y="461" type="curve" smooth="yes"/>
      <point x="122" y="427"/>
      <point x="115" y="392"/>
      <point x="115" y="357" type="curve" smooth="yes"/>
      <point x="115" y="320"/>
      <point x="122" y="285"/>
      <point x="136" y="252" type="curve" smooth="yes"/>
      <point x="150" y="218"/>
      <point x="170" y="188"/>
      <point x="196" y="163" type="curve" smooth="yes"/>
      <point x="222" y="137"/>
      <point x="251" y="117"/>
      <point x="284" y="104" type="curve" smooth="yes"/>
      <point x="319" y="89"/>
      <point x="354" y="82"/>
      <point x="389" y="83" type="curve" smooth="yes"/>
      <point x="424" y="83"/>
      <point x="459" y="88"/>
      <point x="494" y="97" type="curve" smooth="yes"/>
      <point x="525" y="106"/>
      <point x="550" y="120"/>
      <point x="568" y="139" type="curve"/>
      <point x="568" y="168"/>
      <point x="568" y="213"/>
      <point x="568" y="273" type="curve"/>
      <point x="539" y="273"/>
      <point x="482" y="273"/>
      <point x="395" y="273" type="curve"/>
      <point x="395" y="286"/>
      <point x="395" y="314"/>
      <point x="395" y="355" type="curve"/>
      <point x="439" y="355"/>
      <point x="527" y="355"/>
      <point x="660" y="355" type="curve"/>
      <point x="660" y="316"/>
      <point x="660" y="239"/>
      <point x="660" y="122" type="curve"/>
      <point x="659" y="97"/>
      <point x="647" y="76"/>
      <point x="622" y="60" type="curve" smooth="yes"/>
      <point x="589" y="37"/>
      <point x="557" y="22"/>
      <point x="527" y="15" type="curve"/>
      <point x="482" y="-2"/>
      <point x="435" y="-11"/>
      <point x="388" y="-11" type="curve" smooth="yes"/>
      <point x="387" y="-11"/>
      <point x="387" y="-11"/>
      <point x="387" y="-11" type="curve"/>
      <point x="339" y="-11"/>
      <point x="292" y="-2"/>
      <point x="247" y="17" type="curve" smooth="yes"/>
      <point x="202" y="35"/>
      <point x="163" y="62"/>
      <point x="128" y="97" type="curve" smooth="yes"/>
      <point x="94" y="130"/>
      <point x="67" y="170"/>
      <point x="48" y="215" type="curve" smooth="yes"/>
      <point x="29" y="259"/>
      <point x="20" y="306"/>
      <point x="20" y="356" type="curve" smooth="yes"/>
      <point x="20" y="357"/>
      <point x="20" y="358"/>
      <point x="20" y="359" type="curve" smooth="yes"/>
      <point x="20" y="406"/>
      <point x="29" y="451"/>
      <point x="48" y="496" type="curve" smooth="yes"/>
      <point x="66" y="540"/>
      <point x="93" y="580"/>
      <point x="128" y="615" type="curve" smooth="yes"/>
      <point x="161" y="649"/>
      <point x="201" y="675"/>
      <point x="247" y="694" type="curve" smooth="yes"/>
      <point x="291" y="713"/>
      <point x="338" y="722"/>
      <point x="387" y="722" type="curve"/>
      <point x="400" y="723"/>
      <point x="412" y="723"/>
      <point x="423" y="723" type="curve" smooth="yes"/>
      <point x="456" y="723"/>
      <point x="483" y="721"/>
      <point x="506" y="716" type="curve" smooth="yes"/>
      <point x="545" y="709"/>
      <point x="590" y="693"/>
      <point x="641" y="667" type="curve"/>
      <point x="631" y="649"/>
      <point x="615" y="622"/>
    </contour>
  </outline>
</glyph>
<glyph name="H" format="2">
  <advance width="658"/>
  <unicode hex="0048"/>
  <outline>
    <contour>
      <point x="474" y="724" type="curve"/>
      <point x="489" y="724"/>
      <point x="520" y="724"/>
      <point x="567" y="724" type="curve"/>
      <point x="567" y="603"/>
      <point x="567" y="362"/>
      <point x="567" y="0" type="curve"/>
      <point x="552" y="0"/>
      <point x="521" y="0"/>
      <point x="474" y="0" type="curve"/>
      <point x="474" y="53"/>
      <point x="474" y="159"/>
      <point x="474" y="318" type="curve"/>
      <point x="418" y="319"/>
      <point x="305" y="319"/>
      <point x="136" y="319" type="curve"/>
      <point x="136" y="266"/>
      <point x="136" y="160"/>
      <point x="136" y="0" type="curve"/>
      <point x="120" y="0"/>
      <point x="88" y="0"/>
      <point x="41" y="0" type="curve"/>
      <point x="41" y="90"/>
      <point x="41" y="270"/>
      <point x="41" y="540" type="curve" smooth="yes"/>
      <point x="41" y="570"/>
      <point x="41" y="630"/>
      <point x="41" y="720" type="curve"/>
      <point x="57" y="720"/>
      <point x="88" y="720"/>
      <point x="135" y="720" type="curve"/>
      <point x="135" y="707"/>
      <point x="135" y="682"/>
      <point x="136" y="645" type="curve" smooth="yes"/>
      <point x="136" y="605"/>
      <point x="136" y="524"/>
      <point x="136" y="403" type="curve"/>
      <point x="193" y="403"/>
      <point x="305" y="403"/>
      <point x="474" y="403" type="curve"/>
      <point x="474" y="457"/>
      <point x="474" y="564"/>
    </contour>
  </outline>
</glyph>
<glyph name="I" format="2">
  <advance width="235"/>
  <unicode hex="0049"/>
  <outline>
    <contour>
      <point x="41" y="720" type="curve"/>
      <point x="56" y="720"/>
      <point x="87" y="720"/>
      <point x="133" y="720" type="curve"/>
      <point x="133" y="600"/>
      <point x="133" y="360"/>
      <point x="133" y="1" type="curve"/>
      <point x="118" y="1"/>
      <point x="87" y="1"/>
      <point x="41" y="1" type="curve"/>
      <point x="41" y="121"/>
      <point x="41" y="361"/>
    </contour>
  </outline>
</glyph>
<glyph name="J" format="2">
  <advance width="461"/>
  <unicode hex="004A"/>
  <outline>
    <contour>
      <point x="40" y="132" type="curve"/>
      <point x="60" y="113"/>
      <point x="86" y="98"/>
      <point x="119" y="88" type="curve" smooth="yes"/>
      <point x="152" y="77"/>
      <point x="179" y="79"/>
      <point x="200" y="92" type="curve" smooth="yes"/>
      <point x="222" y="105"/>
      <point x="238" y="127"/>
      <point x="248" y="158" type="curve" smooth="yes"/>
      <point x="258" y="189"/>
      <point x="263" y="239"/>
      <point x="262" y="310" type="curve" smooth="yes"/>
      <point x="262" y="401"/>
      <point x="262" y="536"/>
      <point x="263" y="717" type="curve"/>
      <point x="278" y="717"/>
      <point x="309" y="717"/>
      <point x="356" y="717" type="curve"/>
      <point x="356" y="648"/>
      <point x="356" y="511"/>
      <point x="357" y="304" type="curve"/>
      <point x="358" y="295"/>
      <point x="358" y="285"/>
      <point x="358" y="276" type="curve" smooth="yes"/>
      <point x="358" y="211"/>
      <point x="353" y="161"/>
      <point x="344" y="126" type="curve" smooth="yes"/>
      <point x="334" y="86"/>
      <point x="314" y="55"/>
      <point x="284" y="33" type="curve" smooth="yes"/>
      <point x="257" y="14"/>
      <point x="231" y="2"/>
      <point x="205" y="-1" type="curve" smooth="yes"/>
      <point x="195" y="-2"/>
      <point x="184" y="-3"/>
      <point x="173" y="-3" type="curve" smooth="yes"/>
      <point x="155" y="-3"/>
      <point x="136" y="-1"/>
      <point x="116" y="2" type="curve"/>
      <point x="66" y="15"/>
      <point x="28" y="35"/>
      <point x="3" y="64" type="curve"/>
      <point x="11" y="79"/>
      <point x="23" y="102"/>
    </contour>
  </outline>
</glyph>
<glyph name="K" format="2">
  <advance width="599"/>
  <unicode hex="004B"/>
  <outline>
    <contour>
      <point x="416" y="717" type="curve"/>
      <point x="435" y="717"/>
      <point x="474" y="717"/>
      <point x="532" y="717" type="curve"/>
      <point x="484" y="660"/>
      <point x="389" y="544"/>
      <point x="246" y="371" type="curve"/>
      <point x="303" y="309"/>
      <point x="419" y="185"/>
      <point x="592" y="-2" type="curve"/>
      <point x="572" y="-2"/>
      <point x="533" y="-2"/>
      <point x="474" y="-2" type="curve"/>
      <point x="418" y="59"/>
      <point x="305" y="182"/>
      <point x="136" y="367" type="curve"/>
      <point x="136" y="305"/>
      <point x="136" y="182"/>
      <point x="136" y="-2" type="curve"/>
      <point x="120" y="-2"/>
      <point x="88" y="-2"/>
      <point x="41" y="-2" type="curve"/>
      <point x="41" y="118"/>
      <point x="42" y="358"/>
      <point x="43" y="717" type="curve"/>
      <point x="58" y="717"/>
      <point x="90" y="717"/>
      <point x="138" y="717" type="curve"/>
      <point x="137" y="659"/>
      <point x="137" y="543"/>
      <point x="136" y="370" type="curve"/>
      <point x="183" y="428"/>
      <point x="276" y="544"/>
    </contour>
  </outline>
</glyph>
<glyph name="L" format="2">
  <advance width="478"/>
  <unicode hex="004C"/>
  <outline>
    <contour>
      <point x="133" y="717" type="curve"/>
      <point x="133" y="610"/>
      <point x="133" y="395"/>
      <point x="133" y="72" type="curve"/>
      <point x="182" y="72"/>
      <point x="281" y="72"/>
      <point x="430" y="72" type="curve"/>
      <point x="430" y="60"/>
      <point x="430" y="36"/>
      <point x="430" y="0" type="curve"/>
      <point x="365" y="0"/>
      <point x="236" y="0"/>
      <point x="41" y="0" type="curve"/>
      <point x="41" y="119"/>
      <point x="41" y="358"/>
      <point x="41" y="717" type="curve"/>
      <point x="56" y="717"/>
      <point x="87" y="717"/>
    </contour>
  </outline>
</glyph>
<glyph name="M" format="2">
  <advance width="756"/>
  <unicode hex="004D"/>
  <outline>
    <contour>
      <point x="352" y="338" type="curve"/>
      <point x="401" y="405"/>
      <point x="498" y="537"/>
      <point x="644" y="736" type="curve"/>
      <point x="650" y="613"/>
      <point x="662" y="366"/>
      <point x="680" y="-4" type="curve"/>
      <point x="665" y="-4"/>
      <point x="636" y="-4"/>
      <point x="592" y="-4" type="curve"/>
      <point x="587" y="75"/>
      <point x="576" y="232"/>
      <point x="560" y="468" type="curve"/>
      <point x="525" y="423"/>
      <point x="456" y="332"/>
      <point x="352" y="195" type="curve"/>
      <point x="317" y="241"/>
      <point x="246" y="333"/>
      <point x="140" y="471" type="curve"/>
      <point x="135" y="392"/>
      <point x="124" y="235"/>
      <point x="109" y="-1" type="curve"/>
      <point x="94" y="-1"/>
      <point x="65" y="-1"/>
      <point x="20" y="-1" type="curve"/>
      <point x="26" y="122"/>
      <point x="38" y="369"/>
      <point x="56" y="740" type="curve"/>
      <point x="105" y="673"/>
      <point x="204" y="539"/>
    </contour>
  </outline>
</glyph>
<glyph name="N" format="2">
  <advance width="674"/>
  <unicode hex="004E"/>
  <outline>
    <contour>
      <point x="130" y="489" type="curve"/>
      <point x="130" y="408"/>
      <point x="130" y="246"/>
      <point x="130" y="3" type="curve"/>
      <point x="115" y="3"/>
      <point x="86" y="3"/>
      <point x="41" y="3" type="curve"/>
      <point x="41" y="74"/>
      <point x="41" y="215"/>
      <point x="41" y="426" type="curve" smooth="yes"/>
      <point x="41" y="476"/>
      <point x="41" y="576"/>
      <point x="41" y="727" type="curve"/>
      <point x="117" y="641"/>
      <point x="269" y="468"/>
      <point x="497" y="209" type="curve"/>
      <point x="496" y="294"/>
      <point x="495" y="466"/>
      <point x="494" y="723" type="curve"/>
      <point x="509" y="723"/>
      <point x="539" y="723"/>
      <point x="584" y="723" type="curve"/>
      <point x="584" y="598"/>
      <point x="584" y="347"/>
      <point x="584" y="-29" type="curve"/>
      <point x="508" y="58"/>
      <point x="357" y="230"/>
    </contour>
  </outline>
</glyph>
<glyph name="P" format="2">
  <advance width="533"/>
  <unicode hex="0050"/>
  <outline>
    <contour>
      <point x="203" y="637" type="curve" smooth="yes"/>
      <point x="190" y="637"/>
      <point x="178" y="637"/>
      <point x="169" y="637" type="curve" smooth="yes"/>
      <point x="160" y="637"/>
      <point x="148" y="637"/>
      <point x="134" y="637" type="curve"/>
      <point x="133" y="578"/>
      <point x="133" y="488"/>
      <point x="132" y="369" type="curve"/>
      <point x="141" y="369"/>
      <point x="150" y="369"/>
      <point x="158" y="369" type="curve" smooth="yes"/>
      <point x="167" y="369"/>
      <point x="176" y="369"/>
      <point x="184" y="369" type="curve" smooth="yes"/>
      <point x="199" y="369"/>
      <point x="213" y="369"/>
      <point x="226" y="369" type="curve" smooth="yes"/>
      <point x="270" y="369"/>
      <point x="306" y="381"/>
      <point x="335" y="406" type="curve" smooth="yes"/>
      <point x="364" y="431"/>
      <point x="378" y="463"/>
      <point x="378" y="504" type="curve" smooth="yes"/>
      <point x="378" y="532"/>
      <point x="371" y="557"/>
      <point x="357" y="578" type="curve" smooth="yes"/>
      <point x="343" y="599"/>
      <point x="325" y="615"/>
      <point x="302" y="626" type="curve" smooth="yes"/>
      <point x="289" y="633"/>
      <point x="274" y="636"/>
      <point x="257" y="636" type="curve"/>
      <point x="240" y="637"/>
      <point x="222" y="637"/>
    </contour>
    <contour>
      <point x="245" y="287" type="curve" smooth="yes"/>
      <point x="230" y="286"/>
      <point x="211" y="286"/>
      <point x="188" y="287" type="curve" smooth="yes"/>
      <point x="165" y="287"/>
      <point x="147" y="287"/>
      <point x="132" y="287" type="curve"/>
      <point x="132" y="223"/>
      <point x="132" y="127"/>
      <point x="132" y="0" type="curve"/>
      <point x="117" y="0"/>
      <point x="86" y="0"/>
      <point x="41" y="0" type="curve"/>
      <point x="41" y="39"/>
      <point x="41" y="116"/>
      <point x="41" y="232" type="curve" smooth="yes"/>
      <point x="41" y="313"/>
      <point x="41" y="474"/>
      <point x="41" y="717" type="curve"/>
      <point x="80" y="717"/>
      <point x="112" y="717"/>
      <point x="135" y="717" type="curve" smooth="yes"/>
      <point x="158" y="717"/>
      <point x="174" y="717"/>
      <point x="184" y="717" type="curve" smooth="yes"/>
      <point x="204" y="717"/>
      <point x="232" y="716"/>
      <point x="267" y="714" type="curve" smooth="yes"/>
      <point x="302" y="713"/>
      <point x="328" y="708"/>
      <point x="344" y="701" type="curve" smooth="yes"/>
      <point x="381" y="685"/>
      <point x="411" y="661"/>
      <point x="434" y="628" type="curve" smooth="yes"/>
      <point x="457" y="596"/>
      <point x="469" y="551"/>
      <point x="470" y="494" type="curve" smooth="yes"/>
      <point x="471" y="435"/>
      <point x="448" y="386"/>
      <point x="403" y="347" type="curve" smooth="yes"/>
      <point x="358" y="308"/>
      <point x="305" y="288"/>
    </contour>
  </outline>
</glyph>
<glyph name="Q" format="2">
  <advance width="882"/>
  <unicode hex="0051"/>
  <outline>
    <contour>
      <point x="720" y="216" type="curve" smooth="yes"/>
      <point x="701" y="171"/>
      <point x="675" y="132"/>
      <point x="641" y="97" type="curve" smooth="yes"/>
      <point x="608" y="63"/>
      <point x="568" y="37"/>
      <point x="522" y="18" type="curve" smooth="yes"/>
      <point x="478" y="0"/>
      <point x="431" y="-9"/>
      <point x="382" y="-10" type="curve" smooth="yes"/>
      <point x="381" y="-10"/>
      <point x="380" y="-10"/>
      <point x="379" y="-10" type="curve" smooth="yes"/>
      <point x="332" y="-10"/>
      <point x="287" y="-1"/>
      <point x="242" y="18" type="curve" smooth="yes"/>
      <point x="197" y="36"/>
      <point x="158" y="62"/>
      <point x="123" y="97" type="curve" smooth="yes"/>
      <point x="89" y="131"/>
      <point x="62" y="171"/>
      <point x="43" y="216" type="curve" smooth="yes"/>
      <point x="24" y="260"/>
      <point x="15" y="307"/>
      <point x="15" y="356" type="curve" smooth="yes"/>
      <point x="15" y="357"/>
      <point x="15" y="358"/>
      <point x="15" y="359" type="curve" smooth="yes"/>
      <point x="15" y="406"/>
      <point x="24" y="452"/>
      <point x="43" y="497" type="curve" smooth="yes"/>
      <point x="61" y="541"/>
      <point x="88" y="581"/>
      <point x="123" y="616" type="curve" smooth="yes"/>
      <point x="156" y="650"/>
      <point x="196" y="676"/>
      <point x="242" y="695" type="curve" smooth="yes"/>
      <point x="286" y="714"/>
      <point x="333" y="723"/>
      <point x="382" y="723" type="curve" smooth="yes"/>
      <point x="383" y="723"/>
      <point x="383" y="723"/>
      <point x="384" y="723" type="curve" smooth="yes"/>
      <point x="431" y="723"/>
      <point x="477" y="714"/>
      <point x="522" y="695" type="curve" smooth="yes"/>
      <point x="567" y="677"/>
      <point x="606" y="651"/>
      <point x="641" y="616" type="curve" smooth="yes"/>
      <point x="674" y="582"/>
      <point x="701" y="542"/>
      <point x="720" y="497" type="curve" smooth="yes"/>
      <point x="739" y="454"/>
      <point x="748" y="408"/>
      <point x="748" y="361" type="curve" smooth="yes"/>
      <point x="748" y="360"/>
      <point x="748" y="358"/>
      <point x="748" y="356" type="curve" smooth="yes"/>
      <point x="749" y="307"/>
      <point x="739" y="261"/>
    </contour>
    <contour>
      <point x="658" y="357" type="curve" smooth="yes"/>
      <point x="658" y="358"/>
      <point x="658" y="360"/>
      <point x="658" y="361" type="curve" smooth="yes"/>
      <point x="658" y="396"/>
      <point x="651" y="430"/>
      <point x="637" y="462" type="curve" smooth="yes"/>
      <point x="622" y="496"/>
      <point x="602" y="526"/>
      <point x="577" y="551" type="curve" smooth="yes"/>
      <point x="552" y="577"/>
      <point x="522" y="597"/>
      <point x="489" y="610" type="curve" smooth="yes"/>
      <point x="455" y="624"/>
      <point x="421" y="631"/>
      <point x="386" y="631" type="curve" smooth="yes"/>
      <point x="385" y="631"/>
      <point x="385" y="631"/>
      <point x="384" y="631" type="curve" smooth="yes"/>
      <point x="347" y="631"/>
      <point x="312" y="624"/>
      <point x="279" y="610" type="curve" smooth="yes"/>
      <point x="245" y="596"/>
      <point x="215" y="576"/>
      <point x="190" y="551" type="curve" smooth="yes"/>
      <point x="164" y="525"/>
      <point x="144" y="495"/>
      <point x="131" y="462" type="curve" smooth="yes"/>
      <point x="117" y="429"/>
      <point x="110" y="394"/>
      <point x="110" y="359" type="curve" smooth="yes"/>
      <point x="110" y="358"/>
      <point x="110" y="358"/>
      <point x="110" y="357" type="curve" smooth="yes"/>
      <point x="110" y="320"/>
      <point x="117" y="286"/>
      <point x="131" y="253" type="curve" smooth="yes"/>
      <point x="145" y="218"/>
      <point x="165" y="189"/>
      <point x="190" y="164" type="curve" smooth="yes"/>
      <point x="217" y="138"/>
      <point x="246" y="118"/>
      <point x="279" y="105" type="curve" smooth="yes"/>
      <point x="312" y="91"/>
      <point x="347" y="84"/>
      <point x="382" y="84" type="curve" smooth="yes"/>
      <point x="383" y="84"/>
      <point x="383" y="84"/>
      <point x="384" y="84" type="curve" smooth="yes"/>
      <point x="421" y="85"/>
      <point x="456" y="92"/>
      <point x="489" y="105" type="curve" smooth="yes"/>
      <point x="523" y="119"/>
      <point x="552" y="139"/>
      <point x="577" y="164" type="curve" smooth="yes"/>
      <point x="603" y="190"/>
      <point x="623" y="220"/>
      <point x="637" y="253" type="curve" smooth="yes"/>
      <point x="651" y="286"/>
      <point x="658" y="321"/>
    </contour>
    <contour>
      <point x="462" y="247" type="curve"/>
      <point x="471" y="254"/>
      <point x="488" y="270"/>
      <point x="514" y="293" type="curve"/>
      <point x="523" y="282"/>
      <point x="543" y="260"/>
      <point x="575" y="225" type="curve" smooth="yes"/>
      <point x="607" y="190"/>
      <point x="659" y="132"/>
      <point x="732" y="52" type="curve"/>
      <point x="720" y="41"/>
      <point x="702" y="24"/>
      <point x="679" y="2" type="curve"/>
      <point x="642" y="43"/>
      <point x="570" y="124"/>
    </contour>
  </outline>
</glyph>
<glyph name="R" format="2">
  <advance width="563"/>
  <unicode hex="0052"/>
  <outline>
    <contour>
      <point x="41" y="717" type="curve"/>
      <point x="76" y="717"/>
      <point x="147" y="717"/>
      <point x="253" y="718" type="curve" smooth="yes"/>
      <point x="255" y="718"/>
      <point x="257" y="718"/>
      <point x="259" y="718" type="curve" smooth="yes"/>
      <point x="292" y="718"/>
      <point x="321" y="711"/>
      <point x="348" y="698" type="curve" smooth="yes"/>
      <point x="376" y="685"/>
      <point x="398" y="667"/>
      <point x="414" y="644" type="curve" smooth="yes"/>
      <point x="429" y="622"/>
      <point x="440" y="597"/>
      <point x="447" y="569" type="curve" smooth="yes"/>
      <point x="454" y="541"/>
      <point x="455" y="513"/>
      <point x="450" y="486" type="curve" smooth="yes"/>
      <point x="445" y="459"/>
      <point x="435" y="434"/>
      <point x="420" y="409" type="curve" smooth="yes"/>
      <point x="404" y="384"/>
      <point x="384" y="364"/>
      <point x="359" y="349" type="curve"/>
      <point x="396" y="272"/>
      <point x="452" y="156"/>
      <point x="527" y="1" type="curve"/>
      <point x="510" y="1"/>
      <point x="476" y="1"/>
      <point x="424" y="1" type="curve"/>
      <point x="398" y="54"/>
      <point x="346" y="161"/>
      <point x="269" y="322" type="curve"/>
      <point x="262" y="321"/>
      <point x="253" y="321"/>
      <point x="243" y="321" type="curve" smooth="yes"/>
      <point x="219" y="320"/>
      <point x="183" y="320"/>
      <point x="135" y="319" type="curve"/>
      <point x="136" y="266"/>
      <point x="137" y="160"/>
      <point x="138" y="1" type="curve"/>
      <point x="122" y="1"/>
      <point x="90" y="1"/>
      <point x="43" y="1" type="curve"/>
      <point x="42" y="120"/>
      <point x="42" y="359"/>
    </contour>
    <contour>
      <point x="135" y="633" type="curve"/>
      <point x="135" y="623"/>
      <point x="135" y="604"/>
      <point x="135" y="575" type="curve" smooth="yes"/>
      <point x="135" y="546"/>
      <point x="135" y="489"/>
      <point x="135" y="403" type="curve"/>
      <point x="154" y="403"/>
      <point x="191" y="403"/>
      <point x="247" y="403" type="curve" smooth="yes"/>
      <point x="268" y="403"/>
      <point x="287" y="409"/>
      <point x="303" y="420" type="curve" smooth="yes"/>
      <point x="320" y="431"/>
      <point x="332" y="445"/>
      <point x="340" y="462" type="curve" smooth="yes"/>
      <point x="348" y="479"/>
      <point x="352" y="497"/>
      <point x="353" y="517" type="curve" smooth="yes"/>
      <point x="353" y="519"/>
      <point x="353" y="521"/>
      <point x="353" y="522" type="curve" smooth="yes"/>
      <point x="353" y="540"/>
      <point x="350" y="557"/>
      <point x="344" y="572" type="curve" smooth="yes"/>
      <point x="337" y="589"/>
      <point x="326" y="604"/>
      <point x="310" y="615" type="curve" smooth="yes"/>
      <point x="294" y="627"/>
      <point x="275" y="633"/>
      <point x="252" y="633" type="curve" smooth="yes"/>
      <point x="226" y="633"/>
      <point x="187" y="633"/>
    </contour>
  </outline>
</glyph>
<glyph name="S" format="2">
  <advance width="470"/>
  <unicode hex="0053"/>
  <outline>
    <contour>
      <point x="260" y="406" type="curve" smooth="yes"/>
      <point x="369" y="357"/>
      <point x="422" y="287"/>
      <point x="421" y="196" type="curve"/>
      <point x="421" y="194"/>
      <point x="421" y="192"/>
      <point x="421" y="190" type="curve" smooth="yes"/>
      <point x="422" y="63"/>
      <point x="350" y="-2"/>
      <point x="207" y="-4" type="curve"/>
      <point x="158" y="0"/>
      <point x="119" y="10"/>
      <point x="91" y="25" type="curve" smooth="yes"/>
      <point x="74" y="34"/>
      <point x="60" y="43"/>
      <point x="47" y="52" type="curve"/>
      <point x="47" y="74"/>
      <point x="47" y="107"/>
      <point x="47" y="151" type="curve"/>
      <point x="76" y="130"/>
      <point x="96" y="116"/>
      <point x="108" y="111" type="curve"/>
      <point x="144" y="91"/>
      <point x="175" y="81"/>
      <point x="200" y="82" type="curve" smooth="yes"/>
      <point x="283" y="83"/>
      <point x="324" y="121"/>
      <point x="323" y="195" type="curve"/>
      <point x="316" y="238"/>
      <point x="282" y="275"/>
      <point x="223" y="307" type="curve" smooth="yes"/>
      <point x="103" y="371"/>
      <point x="42" y="444"/>
      <point x="41" y="527" type="curve" smooth="yes"/>
      <point x="41" y="585"/>
      <point x="60" y="633"/>
      <point x="99" y="670" type="curve" smooth="yes"/>
      <point x="132" y="701"/>
      <point x="181" y="718"/>
      <point x="244" y="720" type="curve" smooth="yes"/>
      <point x="249" y="720"/>
      <point x="254" y="720"/>
      <point x="259" y="720" type="curve" smooth="yes"/>
      <point x="318" y="720"/>
      <point x="361" y="711"/>
      <point x="388" y="694" type="curve"/>
      <point x="387" y="677"/>
      <point x="385" y="651"/>
      <point x="382" y="616" type="curve"/>
      <point x="357" y="624"/>
      <point x="338" y="629"/>
      <point x="323" y="632" type="curve" smooth="yes"/>
      <point x="297" y="637"/>
      <point x="270" y="638"/>
      <point x="243" y="637" type="curve" smooth="yes"/>
      <point x="173" y="635"/>
      <point x="139" y="599"/>
      <point x="140" y="528" type="curve" smooth="yes"/>
      <point x="140" y="486"/>
      <point x="180" y="445"/>
    </contour>
  </outline>
</glyph>
<glyph name="T" format="2">
  <advance width="516"/>
  <unicode hex="0054"/>
  <outline>
    <contour>
      <point x="199" y="647" type="curve"/>
      <point x="169" y="647"/>
      <point x="109" y="647"/>
      <point x="20" y="647" type="curve"/>
      <point x="20" y="658"/>
      <point x="20" y="681"/>
      <point x="20" y="716" type="curve"/>
      <point x="95" y="716"/>
      <point x="245" y="716"/>
      <point x="470" y="716" type="curve"/>
      <point x="470" y="705"/>
      <point x="470" y="682"/>
      <point x="470" y="647" type="curve"/>
      <point x="441" y="647"/>
      <point x="381" y="647"/>
      <point x="292" y="647" type="curve"/>
      <point x="292" y="539"/>
      <point x="292" y="323"/>
      <point x="292" y="0" type="curve"/>
      <point x="276" y="0"/>
      <point x="245" y="0"/>
      <point x="198" y="0" type="curve"/>
      <point x="198" y="108"/>
      <point x="198" y="324"/>
    </contour>
  </outline>
</glyph>
<glyph name="V" format="2">
  <advance width="692"/>
  <unicode hex="0056"/>
  <outline>
    <contour>
      <point x="420" y="410" type="curve" smooth="yes"/>
      <point x="442" y="461"/>
      <point x="486" y="563"/>
      <point x="553" y="717" type="curve"/>
      <point x="570" y="717"/>
      <point x="605" y="717"/>
      <point x="658" y="717" type="curve"/>
      <point x="602" y="591"/>
      <point x="489" y="339"/>
      <point x="320" y="-38" type="curve"/>
      <point x="315" y="-25"/>
      <point x="304" y="1"/>
      <point x="288" y="40" type="curve" smooth="yes"/>
      <point x="240" y="153"/>
      <point x="144" y="378"/>
      <point x="0" y="717" type="curve"/>
      <point x="17" y="717"/>
      <point x="51" y="717"/>
      <point x="102" y="717" type="curve"/>
      <point x="125" y="666"/>
      <point x="169" y="563"/>
      <point x="236" y="410" type="curve" smooth="yes"/>
      <point x="251" y="371"/>
      <point x="280" y="292"/>
      <point x="325" y="174" type="curve"/>
      <point x="341" y="213"/>
      <point x="373" y="292"/>
    </contour>
  </outline>
</glyph>
<glyph name="W" format="2">
  <advance width="1104"/>
  <unicode hex="0057"/>
  <outline>
    <contour>
      <point x="761" y="0" type="curve"/>
      <point x="730" y="72"/>
      <point x="667" y="215"/>
      <point x="573" y="430" type="curve"/>
      <point x="568" y="444"/>
      <point x="557" y="471"/>
      <point x="540" y="512" type="curve"/>
      <point x="535" y="499"/>
      <point x="524" y="472"/>
      <point x="509" y="431" type="curve" smooth="yes"/>
      <point x="480" y="359"/>
      <point x="423" y="215"/>
      <point x="336" y="0" type="curve"/>
      <point x="330" y="0"/>
      <point x="318" y="0"/>
      <point x="301" y="0" type="curve"/>
      <point x="250" y="120"/>
      <point x="150" y="361"/>
      <point x="0" y="722" type="curve"/>
      <point x="16" y="722"/>
      <point x="48" y="722"/>
      <point x="96" y="723" type="curve"/>
      <point x="133" y="635"/>
      <point x="207" y="458"/>
      <point x="318" y="193" type="curve"/>
      <point x="354" y="280"/>
      <point x="426" y="455"/>
      <point x="535" y="717" type="curve"/>
      <point x="539" y="717"/>
      <point x="547" y="717"/>
      <point x="560" y="717" type="curve"/>
      <point x="596" y="632"/>
      <point x="668" y="463"/>
      <point x="775" y="208" type="curve"/>
      <point x="806" y="293"/>
      <point x="870" y="464"/>
      <point x="965" y="721" type="curve"/>
      <point x="981" y="720"/>
      <point x="1013" y="720"/>
      <point x="1061" y="719" type="curve"/>
      <point x="1016" y="600"/>
      <point x="925" y="360"/>
      <point x="790" y="0" type="curve"/>
      <point x="785" y="0"/>
      <point x="776" y="0"/>
    </contour>
  </outline>
</glyph>
<glyph name="X" format="2">
  <advance width="691"/>
  <unicode hex="0058"/>
  <outline>
    <contour>
      <point x="279" y="460" type="curve"/>
      <point x="305" y="503"/>
      <point x="356" y="588"/>
      <point x="432" y="717" type="curve"/>
      <point x="452" y="717"/>
      <point x="492" y="717"/>
      <point x="551" y="717" type="curve"/>
      <point x="498" y="632"/>
      <point x="457" y="566"/>
      <point x="426" y="517" type="curve" smooth="yes"/>
      <point x="395" y="468"/>
      <point x="367" y="422"/>
      <point x="341" y="379" type="curve"/>
      <point x="390" y="295"/>
      <point x="465" y="169"/>
      <point x="565" y="0" type="curve"/>
      <point x="546" y="0"/>
      <point x="508" y="0"/>
      <point x="451" y="0" type="curve"/>
      <point x="423" y="49"/>
      <point x="366" y="147"/>
      <point x="281" y="295" type="curve"/>
      <point x="254" y="246"/>
      <point x="200" y="147"/>
      <point x="119" y="0" type="curve"/>
      <point x="99" y="0"/>
      <point x="59" y="0"/>
      <point x="-1" y="0" type="curve"/>
      <point x="36" y="61"/>
      <point x="109" y="184"/>
      <point x="218" y="369" type="curve"/>
      <point x="181" y="427"/>
      <point x="108" y="543"/>
      <point x="-1" y="717" type="curve"/>
      <point x="19" y="717"/>
      <point x="59" y="717"/>
      <point x="119" y="717" type="curve"/>
      <point x="146" y="674"/>
      <point x="199" y="589"/>
    </contour>
  </outline>
</glyph>
<glyph name="Y" format="2">
  <advance width="657"/>
  <unicode hex="0059"/>
  <outline>
    <contour>
      <point x="-1" y="716" type="curve"/>
      <point x="18" y="716"/>
      <point x="54" y="716"/>
      <point x="108" y="716" type="curve"/>
      <point x="141" y="664"/>
      <point x="208" y="559"/>
      <point x="307" y="401" type="curve"/>
      <point x="340" y="454"/>
      <point x="405" y="559"/>
      <point x="503" y="716" type="curve"/>
      <point x="522" y="716"/>
      <point x="558" y="716"/>
      <point x="612" y="716" type="curve"/>
      <point x="570" y="649"/>
      <point x="485" y="516"/>
      <point x="358" y="315" type="curve"/>
      <point x="358" y="263"/>
      <point x="358" y="159"/>
      <point x="358" y="3" type="curve"/>
      <point x="340" y="2"/>
      <point x="304" y="1"/>
      <point x="250" y="0" type="curve"/>
      <point x="251" y="69"/>
      <point x="254" y="173"/>
      <point x="258" y="311" type="curve"/>
      <point x="215" y="378"/>
      <point x="128" y="513"/>
    </contour>
  </outline>
</glyph>
<glyph name="Z" format="2">
  <advance width="665"/>
  <unicode hex="005A"/>
  <outline>
    <contour>
      <point x="81" y="720" type="curve"/>
      <point x="168" y="720"/>
      <point x="343" y="720"/>
      <point x="606" y="720" type="curve"/>
      <point x="597" y="705"/>
      <point x="577" y="674"/>
      <point x="548" y="627" type="curve" smooth="yes"/>
      <point x="492" y="538"/>
      <point x="380" y="361"/>
      <point x="211" y="95" type="curve"/>
      <point x="276" y="95"/>
      <point x="405" y="95"/>
      <point x="599" y="95" type="curve"/>
      <point x="599" y="80"/>
      <point x="599" y="49"/>
      <point x="599" y="2" type="curve"/>
      <point x="504" y="2"/>
      <point x="315" y="1"/>
      <point x="31" y="0" type="curve"/>
      <point x="36" y="7"/>
      <point x="45" y="19"/>
      <point x="58" y="38" type="curve" smooth="yes"/>
      <point x="72" y="57"/>
      <point x="85" y="76"/>
      <point x="98" y="95" type="curve" smooth="yes"/>
      <point x="173" y="214"/>
      <point x="286" y="394"/>
      <point x="436" y="633" type="curve"/>
      <point x="377" y="633"/>
      <point x="258" y="633"/>
      <point x="81" y="633" type="curve"/>
      <point x="81" y="647"/>
      <point x="81" y="676"/>
    </contour>
  </outline>
</glyph>
<glyph name="bracketleft" format="2">
  <advance width="333"/>
  <unicode hex="005B"/>
  <outline>
    <contour>
      <point x="63" y="0" type="curve"/>
      <point x="63" y="90"/>
      <point x="63" y="270"/>
      <point x="63" y="541" type="curve" smooth="yes"/>
      <point x="63" y="571"/>
      <point x="63" y="631"/>
      <point x="63" y="721" type="curve"/>
      <point x="80" y="720"/>
      <point x="112" y="720"/>
      <point x="160" y="719" type="curve" smooth="yes"/>
      <point x="182" y="719"/>
      <point x="226" y="719"/>
      <point x="291" y="719" type="curve"/>
      <point x="290" y="709"/>
      <point x="289" y="689"/>
      <point x="287" y="659" type="curve"/>
      <point x="265" y="659"/>
      <point x="222" y="659"/>
      <point x="157" y="659" type="curve"/>
      <point x="157" y="560"/>
      <point x="157" y="361"/>
      <point x="157" y="63" type="curve"/>
      <point x="179" y="63"/>
      <point x="223" y="63"/>
      <point x="290" y="63" type="curve"/>
      <point x="290" y="52"/>
      <point x="291" y="31"/>
      <point x="292" y="0" type="curve"/>
      <point x="270" y="0"/>
      <point x="226" y="0"/>
      <point x="160" y="0" type="curve" smooth="yes"/>
      <point x="144" y="0"/>
      <point x="112" y="0"/>
    </contour>
  </outline>
</glyph>
<glyph name="backslash" format="2">
  <advance width="504"/>
  <unicode hex="005C"/>
  <outline>
    <contour>
      <point x="334" y="0" type="curve"/>
      <point x="288" y="120"/>
      <point x="197" y="360"/>
      <point x="60" y="719" type="curve"/>
      <point x="75" y="719"/>
      <point x="105" y="719"/>
      <point x="150" y="719" type="curve"/>
      <point x="197" y="599"/>
      <point x="290" y="359"/>
      <point x="430" y="0" type="curve"/>
      <point x="414" y="0"/>
      <point x="382" y="0"/>
    </contour>
  </outline>
</glyph>
<glyph name="bracketright" format="2">
  <advance width="293"/>
  <unicode hex="005D"/>
  <outline>
    <contour>
      <point x="132" y="0" type="curve" smooth="yes"/>
      <point x="110" y="0"/>
      <point x="66" y="0"/>
      <point x="0" y="0" type="curve"/>
      <point x="0" y="11"/>
      <point x="1" y="32"/>
      <point x="2" y="63" type="curve"/>
      <point x="24" y="63"/>
      <point x="68" y="63"/>
      <point x="135" y="63" type="curve"/>
      <point x="135" y="162"/>
      <point x="135" y="361"/>
      <point x="135" y="659" type="curve"/>
      <point x="113" y="659"/>
      <point x="70" y="659"/>
      <point x="5" y="659" type="curve"/>
      <point x="5" y="669"/>
      <point x="5" y="689"/>
      <point x="5" y="719" type="curve"/>
      <point x="26" y="719"/>
      <point x="69" y="719"/>
      <point x="132" y="719" type="curve" smooth="yes"/>
      <point x="148" y="719"/>
      <point x="180" y="719"/>
      <point x="228" y="719" type="curve"/>
      <point x="228" y="599"/>
      <point x="228" y="359"/>
      <point x="228" y="0" type="curve"/>
      <point x="212" y="0"/>
      <point x="180" y="0"/>
    </contour>
  </outline>
</glyph>
<glyph name="asciicircum" format="2">
  <advance width="297"/>
  <unicode hex="005E"/>
  <outline>
    <contour>
      <point x="41" y="799" type="curve"/>
      <point x="58" y="816"/>
      <point x="93" y="850"/>
      <point x="144" y="901" type="curve"/>
      <point x="147" y="901"/>
      <point x="154" y="901"/>
      <point x="164" y="901" type="curve"/>
      <point x="191" y="874"/>
      <point x="226" y="840"/>
      <point x="267" y="799" type="curve"/>
      <point x="253" y="799"/>
      <point x="232" y="799"/>
      <point x="205" y="799" type="curve"/>
      <point x="196" y="808"/>
      <point x="179" y="825"/>
      <point x="154" y="850" type="curve"/>
      <point x="141" y="836"/>
      <point x="124" y="819"/>
      <point x="103" y="799" type="curve"/>
      <point x="89" y="799"/>
      <point x="68" y="799"/>
    </contour>
  </outline>
</glyph>
<glyph name="underscore" format="2">
  <advance width="572"/>
  <unicode hex="005F"/>
  <outline>
    <contour>
      <point x="523" y="0" type="curve"/>
      <point x="523" y="-14"/>
      <point x="523" y="-42"/>
      <point x="523" y="-84" type="curve"/>
      <point x="444" y="-84"/>
      <point x="286" y="-84"/>
      <point x="49" y="-84" type="curve"/>
      <point x="49" y="-70"/>
      <point x="49" y="-42"/>
      <point x="49" y="0" type="curve"/>
      <point x="102" y="0"/>
      <point x="207" y="0"/>
      <point x="365" y="0" type="curve" smooth="yes"/>
      <point x="392" y="0"/>
      <point x="444" y="0"/>
    </contour>
  </outline>
</glyph>
<glyph name="grave" format="2">
  <advance width="261"/>
  <unicode hex="0060"/>
  <outline>
    <contour>
      <point x="154" y="799" type="curve"/>
      <point x="133" y="820"/>
      <point x="91" y="860"/>
      <point x="28" y="921" type="curve"/>
      <point x="28" y="926"/>
      <point x="28" y="938"/>
      <point x="28" y="955" type="curve"/>
      <point x="37" y="955"/>
      <point x="56" y="955"/>
      <point x="85" y="955" type="curve"/>
      <point x="104" y="929"/>
      <point x="143" y="877"/>
      <point x="200" y="799" type="curve"/>
      <point x="192" y="799"/>
      <point x="177" y="799"/>
    </contour>
  </outline>
</glyph>
<glyph name="b" format="2">
  <advance width="554"/>
  <unicode hex="0062"/>
  <outline>
    <contour>
      <point x="151" y="121" type="curve"/>
      <point x="164" y="108"/>
      <point x="180" y="95"/>
      <point x="199" y="82" type="curve" smooth="yes"/>
      <point x="219" y="69"/>
      <point x="243" y="63"/>
      <point x="270" y="63" type="curve" smooth="yes"/>
      <point x="289" y="63"/>
      <point x="310" y="67"/>
      <point x="331" y="75" type="curve" smooth="yes"/>
      <point x="350" y="82"/>
      <point x="367" y="94"/>
      <point x="382" y="110" type="curve"/>
      <point x="396" y="123"/>
      <point x="406" y="140"/>
      <point x="412" y="161" type="curve" smooth="yes"/>
      <point x="418" y="180"/>
      <point x="421" y="200"/>
      <point x="421" y="222" type="curve" smooth="yes"/>
      <point x="421" y="223"/>
      <point x="421" y="225"/>
      <point x="421" y="227" type="curve" smooth="yes"/>
      <point x="421" y="246"/>
      <point x="418" y="265"/>
      <point x="412" y="283" type="curve" smooth="yes"/>
      <point x="405" y="302"/>
      <point x="395" y="319"/>
      <point x="382" y="334" type="curve" smooth="yes"/>
      <point x="367" y="351"/>
      <point x="350" y="363"/>
      <point x="331" y="370" type="curve" smooth="yes"/>
      <point x="317" y="375"/>
      <point x="302" y="378"/>
      <point x="285" y="378" type="curve" smooth="yes"/>
      <point x="278" y="378"/>
      <point x="270" y="377"/>
      <point x="263" y="376" type="curve" smooth="yes"/>
      <point x="216" y="370"/>
      <point x="178" y="350"/>
      <point x="150" y="315" type="curve"/>
      <point x="151" y="186"/>
      <point x="151" y="121"/>
    </contour>
    <contour>
      <point x="142" y="0" type="curve"/>
      <point x="121" y="0"/>
      <point x="104" y="0"/>
      <point x="92" y="0" type="curve" smooth="yes"/>
      <point x="81" y="0"/>
      <point x="67" y="0"/>
      <point x="52" y="0" type="curve"/>
      <point x="52" y="103"/>
      <point x="52" y="258"/>
      <point x="52" y="464" type="curve" smooth="yes"/>
      <point x="52" y="529"/>
      <point x="52" y="627"/>
      <point x="52" y="757" type="curve"/>
      <point x="69" y="757"/>
      <point x="101" y="757"/>
      <point x="146" y="757" type="curve"/>
      <point x="145" y="748"/>
      <point x="145" y="633"/>
      <point x="145" y="412" type="curve"/>
      <point x="186" y="439"/>
      <point x="234" y="453"/>
      <point x="289" y="455" type="curve" smooth="yes"/>
      <point x="326" y="456"/>
      <point x="358" y="450"/>
      <point x="384" y="437" type="curve" smooth="yes"/>
      <point x="407" y="426"/>
      <point x="429" y="410"/>
      <point x="450" y="390" type="curve" smooth="yes"/>
      <point x="475" y="365"/>
      <point x="492" y="338"/>
      <point x="501" y="311" type="curve" smooth="yes"/>
      <point x="509" y="286"/>
      <point x="513" y="258"/>
      <point x="513" y="228" type="curve" smooth="yes"/>
      <point x="513" y="226"/>
      <point x="513" y="224"/>
      <point x="513" y="221" type="curve"/>
      <point x="512" y="188"/>
      <point x="508" y="158"/>
      <point x="501" y="132" type="curve" smooth="yes"/>
      <point x="492" y="103"/>
      <point x="477" y="77"/>
      <point x="454" y="54" type="curve" smooth="yes"/>
      <point x="430" y="31"/>
      <point x="406" y="14"/>
      <point x="382" y="3" type="curve" smooth="yes"/>
      <point x="357" y="-8"/>
      <point x="330" y="-13"/>
      <point x="300" y="-13" type="curve" smooth="yes"/>
      <point x="296" y="-13"/>
      <point x="292" y="-13"/>
      <point x="289" y="-13" type="curve" smooth="yes"/>
      <point x="243" y="-15"/>
      <point x="195" y="1"/>
      <point x="146" y="35" type="curve"/>
      <point x="145" y="27"/>
      <point x="144" y="15"/>
    </contour>
  </outline>
</glyph>
<glyph name="c" format="2">
  <advance width="418"/>
  <unicode hex="0063"/>
  <outline>
    <contour>
      <point x="376" y="16" type="curve"/>
      <point x="344" y="3"/>
      <point x="313" y="-5"/>
      <point x="284" y="-8" type="curve" smooth="yes"/>
      <point x="275" y="-9"/>
      <point x="265" y="-10"/>
      <point x="256" y="-10" type="curve" smooth="yes"/>
      <point x="226" y="-10"/>
      <point x="194" y="-5"/>
      <point x="160" y="5" type="curve" smooth="yes"/>
      <point x="131" y="15"/>
      <point x="106" y="32"/>
      <point x="84" y="56" type="curve"/>
      <point x="62" y="77"/>
      <point x="45" y="102"/>
      <point x="33" y="131" type="curve" smooth="yes"/>
      <point x="22" y="160"/>
      <point x="16" y="190"/>
      <point x="15" y="221" type="curve" smooth="yes"/>
      <point x="15" y="222"/>
      <point x="15" y="224"/>
      <point x="15" y="225" type="curve" smooth="yes"/>
      <point x="15" y="254"/>
      <point x="21" y="283"/>
      <point x="33" y="311" type="curve" smooth="yes"/>
      <point x="45" y="338"/>
      <point x="62" y="363"/>
      <point x="84" y="386" type="curve" smooth="yes"/>
      <point x="106" y="410"/>
      <point x="131" y="427"/>
      <point x="160" y="437" type="curve" smooth="yes"/>
      <point x="193" y="449"/>
      <point x="225" y="455"/>
      <point x="255" y="455" type="curve" smooth="yes"/>
      <point x="258" y="455"/>
      <point x="262" y="455"/>
      <point x="265" y="455" type="curve" smooth="yes"/>
      <point x="308" y="453"/>
      <point x="345" y="443"/>
      <point x="378" y="424" type="curve"/>
      <point x="377" y="407"/>
      <point x="374" y="383"/>
      <point x="371" y="350" type="curve"/>
      <point x="339" y="366"/>
      <point x="308" y="375"/>
      <point x="278" y="377" type="curve" smooth="yes"/>
      <point x="255" y="379"/>
      <point x="232" y="376"/>
      <point x="208" y="368" type="curve" smooth="yes"/>
      <point x="189" y="362"/>
      <point x="171" y="351"/>
      <point x="156" y="334" type="curve" smooth="yes"/>
      <point x="141" y="318"/>
      <point x="130" y="301"/>
      <point x="122" y="282" type="curve" smooth="yes"/>
      <point x="113" y="263"/>
      <point x="109" y="243"/>
      <point x="109" y="222" type="curve" smooth="yes"/>
      <point x="110" y="200"/>
      <point x="114" y="180"/>
      <point x="122" y="161" type="curve" smooth="yes"/>
      <point x="130" y="141"/>
      <point x="141" y="124"/>
      <point x="156" y="109" type="curve" smooth="yes"/>
      <point x="171" y="94"/>
      <point x="189" y="83"/>
      <point x="208" y="75" type="curve"/>
      <point x="237" y="67"/>
      <point x="261" y="63"/>
      <point x="282" y="63" type="curve"/>
      <point x="321" y="67"/>
      <point x="352" y="77"/>
      <point x="376" y="94" type="curve"/>
      <point x="376" y="77"/>
      <point x="376" y="51"/>
    </contour>
  </outline>
</glyph>
<glyph name="d" format="2">
  <advance width="537"/>
  <unicode hex="0064"/>
  <outline>
    <contour>
      <point x="380" y="333" type="curve"/>
      <point x="343" y="362"/>
      <point x="305" y="376"/>
      <point x="265" y="376" type="curve" smooth="yes"/>
      <point x="240" y="376"/>
      <point x="217" y="374"/>
      <point x="197" y="369" type="curve"/>
      <point x="177" y="362"/>
      <point x="160" y="351"/>
      <point x="146" y="334" type="curve" smooth="yes"/>
      <point x="133" y="319"/>
      <point x="123" y="302"/>
      <point x="116" y="283" type="curve" smooth="yes"/>
      <point x="110" y="265"/>
      <point x="107" y="246"/>
      <point x="107" y="227" type="curve" smooth="yes"/>
      <point x="107" y="225"/>
      <point x="107" y="223"/>
      <point x="107" y="222" type="curve" smooth="yes"/>
      <point x="107" y="200"/>
      <point x="110" y="180"/>
      <point x="116" y="161" type="curve" smooth="yes"/>
      <point x="122" y="140"/>
      <point x="132" y="123"/>
      <point x="146" y="110" type="curve"/>
      <point x="161" y="94"/>
      <point x="178" y="82"/>
      <point x="197" y="75" type="curve" smooth="yes"/>
      <point x="218" y="67"/>
      <point x="239" y="63"/>
      <point x="258" y="63" type="curve" smooth="yes"/>
      <point x="259" y="63"/>
      <point x="259" y="63"/>
      <point x="259" y="63" type="curve"/>
      <point x="327" y="63"/>
      <point x="366" y="89"/>
      <point x="377" y="142" type="curve"/>
      <point x="378" y="184"/>
      <point x="379" y="248"/>
    </contour>
    <contour>
      <point x="382" y="31" type="curve"/>
      <point x="347" y="3"/>
      <point x="299" y="-12"/>
      <point x="238" y="-13" type="curve" smooth="yes"/>
      <point x="207" y="-13"/>
      <point x="177" y="-7"/>
      <point x="150" y="5" type="curve" smooth="yes"/>
      <point x="126" y="16"/>
      <point x="102" y="33"/>
      <point x="78" y="56" type="curve" smooth="yes"/>
      <point x="54" y="79"/>
      <point x="37" y="104"/>
      <point x="27" y="132" type="curve" smooth="yes"/>
      <point x="19" y="157"/>
      <point x="15" y="184"/>
      <point x="15" y="214" type="curve" smooth="yes"/>
      <point x="15" y="217"/>
      <point x="15" y="219"/>
      <point x="15" y="221" type="curve" smooth="yes"/>
      <point x="16" y="254"/>
      <point x="20" y="284"/>
      <point x="27" y="311" type="curve"/>
      <point x="36" y="338"/>
      <point x="53" y="364"/>
      <point x="78" y="387" type="curve"/>
      <point x="100" y="410"/>
      <point x="124" y="426"/>
      <point x="150" y="437" type="curve" smooth="yes"/>
      <point x="177" y="448"/>
      <point x="208" y="454"/>
      <point x="245" y="455" type="curve" smooth="yes"/>
      <point x="298" y="455"/>
      <point x="344" y="445"/>
      <point x="383" y="425" type="curve"/>
      <point x="383" y="645"/>
      <point x="383" y="755"/>
      <point x="382" y="756" type="curve"/>
      <point x="403" y="756"/>
      <point x="434" y="756"/>
      <point x="476" y="756" type="curve"/>
      <point x="476" y="630"/>
      <point x="476" y="378"/>
      <point x="476" y="0" type="curve"/>
      <point x="461" y="0"/>
      <point x="431" y="0"/>
      <point x="386" y="0" type="curve"/>
      <point x="385" y="5"/>
      <point x="384" y="16"/>
    </contour>
  </outline>
</glyph>
<glyph name="f" format="2">
  <advance width="326"/>
  <unicode hex="0066"/>
  <outline>
    <contour>
      <point x="299" y="674" type="curve"/>
      <point x="224" y="693"/>
      <point x="185" y="667"/>
      <point x="183" y="596" type="curve"/>
      <point x="183" y="591"/>
      <point x="183" y="564"/>
      <point x="183" y="516" type="curve"/>
      <point x="182" y="467"/>
      <point x="182" y="440"/>
      <point x="182" y="434" type="curve"/>
      <point x="205" y="434"/>
      <point x="241" y="434"/>
      <point x="288" y="434" type="curve"/>
      <point x="288" y="424"/>
      <point x="288" y="404"/>
      <point x="288" y="375" type="curve"/>
      <point x="270" y="375"/>
      <point x="234" y="375"/>
      <point x="179" y="375" type="curve"/>
      <point x="179" y="312"/>
      <point x="179" y="249"/>
      <point x="180" y="185" type="curve" smooth="yes"/>
      <point x="180" y="120"/>
      <point x="180" y="59"/>
      <point x="180" y="0" type="curve"/>
      <point x="164" y="0"/>
      <point x="148" y="0"/>
      <point x="131" y="0" type="curve" smooth="yes"/>
      <point x="114" y="0"/>
      <point x="98" y="0"/>
      <point x="82" y="0" type="curve"/>
      <point x="82" y="63"/>
      <point x="82" y="126"/>
      <point x="82" y="191" type="curve" smooth="yes"/>
      <point x="82" y="256"/>
      <point x="82" y="318"/>
      <point x="82" y="377" type="curve"/>
      <point x="73" y="377"/>
      <point x="65" y="377"/>
      <point x="56" y="377" type="curve" smooth="yes"/>
      <point x="48" y="377"/>
      <point x="40" y="377"/>
      <point x="31" y="377" type="curve"/>
      <point x="31" y="381"/>
      <point x="31" y="387"/>
      <point x="31" y="394" type="curve" smooth="yes"/>
      <point x="31" y="403"/>
      <point x="31" y="417"/>
      <point x="31" y="434" type="curve"/>
      <point x="40" y="434"/>
      <point x="59" y="434"/>
      <point x="86" y="434" type="curve"/>
      <point x="86" y="439"/>
      <point x="86" y="461"/>
      <point x="86" y="499" type="curve" smooth="yes"/>
      <point x="87" y="538"/>
      <point x="87" y="560"/>
      <point x="87" y="565" type="curve"/>
      <point x="89" y="598"/>
      <point x="95" y="628"/>
      <point x="105" y="654" type="curve" smooth="yes"/>
      <point x="115" y="679"/>
      <point x="127" y="699"/>
      <point x="141" y="713" type="curve" smooth="yes"/>
      <point x="158" y="729"/>
      <point x="176" y="741"/>
      <point x="193" y="748" type="curve" smooth="yes"/>
      <point x="211" y="755"/>
      <point x="229" y="759"/>
      <point x="246" y="759" type="curve" smooth="yes"/>
      <point x="267" y="758"/>
      <point x="285" y="756"/>
      <point x="301" y="752" type="curve"/>
      <point x="300" y="726"/>
      <point x="300" y="700"/>
    </contour>
  </outline>
</glyph>
<glyph name="g" format="2">
  <advance width="535"/>
  <unicode hex="0067"/>
  <outline>
    <contour>
      <point x="387" y="291" type="curve" smooth="yes"/>
      <point x="387" y="318"/>
      <point x="367" y="342"/>
      <point x="327" y="363" type="curve"/>
      <point x="312" y="372"/>
      <point x="288" y="376"/>
      <point x="257" y="377" type="curve" smooth="yes"/>
      <point x="256" y="377"/>
      <point x="254" y="377"/>
      <point x="252" y="377" type="curve" smooth="yes"/>
      <point x="233" y="377"/>
      <point x="216" y="374"/>
      <point x="202" y="368" type="curve" smooth="yes"/>
      <point x="183" y="360"/>
      <point x="166" y="349"/>
      <point x="151" y="334" type="curve" smooth="yes"/>
      <point x="136" y="319"/>
      <point x="124" y="301"/>
      <point x="116" y="282" type="curve" smooth="yes"/>
      <point x="108" y="263"/>
      <point x="104" y="243"/>
      <point x="104" y="223" type="curve" smooth="yes"/>
      <point x="104" y="222"/>
      <point x="104" y="222"/>
      <point x="104" y="222" type="curve"/>
      <point x="104" y="200"/>
      <point x="108" y="180"/>
      <point x="116" y="161" type="curve" smooth="yes"/>
      <point x="125" y="141"/>
      <point x="136" y="124"/>
      <point x="151" y="109" type="curve" smooth="yes"/>
      <point x="166" y="94"/>
      <point x="183" y="82"/>
      <point x="202" y="75" type="curve"/>
      <point x="222" y="66"/>
      <point x="242" y="62"/>
      <point x="263" y="63" type="curve" smooth="yes"/>
      <point x="264" y="63"/>
      <point x="266" y="63"/>
      <point x="268" y="63" type="curve" smooth="yes"/>
      <point x="288" y="63"/>
      <point x="307" y="67"/>
      <point x="324" y="75" type="curve" smooth="yes"/>
      <point x="345" y="86"/>
      <point x="363" y="101"/>
      <point x="376" y="118" type="curve" smooth="yes"/>
      <point x="379" y="122"/>
      <point x="382" y="126"/>
      <point x="385" y="131" type="curve"/>
      <point x="386" y="166"/>
      <point x="386" y="220"/>
    </contour>
    <contour>
      <point x="334" y="5" type="curve" smooth="yes"/>
      <point x="305" y="-6"/>
      <point x="275" y="-12"/>
      <point x="244" y="-13" type="curve" smooth="yes"/>
      <point x="213" y="-13"/>
      <point x="184" y="-7"/>
      <point x="155" y="5" type="curve" smooth="yes"/>
      <point x="126" y="16"/>
      <point x="101" y="33"/>
      <point x="79" y="56" type="curve" smooth="yes"/>
      <point x="57" y="77"/>
      <point x="40" y="102"/>
      <point x="28" y="131" type="curve" smooth="yes"/>
      <point x="16" y="160"/>
      <point x="10" y="190"/>
      <point x="10" y="221" type="curve" smooth="yes"/>
      <point x="10" y="222"/>
      <point x="10" y="222"/>
      <point x="10" y="223" type="curve" smooth="yes"/>
      <point x="10" y="253"/>
      <point x="16" y="282"/>
      <point x="28" y="311" type="curve" smooth="yes"/>
      <point x="39" y="339"/>
      <point x="56" y="364"/>
      <point x="79" y="386" type="curve" smooth="yes"/>
      <point x="100" y="408"/>
      <point x="126" y="425"/>
      <point x="155" y="437" type="curve" smooth="yes"/>
      <point x="183" y="449"/>
      <point x="213" y="455"/>
      <point x="244" y="455" type="curve" smooth="yes"/>
      <point x="245" y="455"/>
      <point x="245" y="455"/>
      <point x="245" y="455" type="curve"/>
      <point x="276" y="455"/>
      <point x="305" y="449"/>
      <point x="334" y="437" type="curve" smooth="yes"/>
      <point x="359" y="426"/>
      <point x="376" y="414"/>
      <point x="386" y="401" type="curve"/>
      <point x="386" y="411"/>
      <point x="386" y="424"/>
      <point x="387" y="439" type="curve"/>
      <point x="418" y="439"/>
      <point x="450" y="439"/>
      <point x="481" y="439" type="curve"/>
      <point x="481" y="342"/>
      <point x="481" y="195"/>
      <point x="481" y="0" type="curve"/>
      <point x="478" y="-140"/>
      <point x="393" y="-210"/>
      <point x="227" y="-210" type="curve" smooth="yes"/>
      <point x="178" y="-210"/>
      <point x="122" y="-198"/>
      <point x="57" y="-173" type="curve"/>
      <point x="64" y="-157"/>
      <point x="73" y="-133"/>
      <point x="86" y="-100" type="curve"/>
      <point x="130" y="-121"/>
      <point x="183" y="-132"/>
      <point x="244" y="-132" type="curve" smooth="yes"/>
      <point x="339" y="-132"/>
      <point x="387" y="-88"/>
      <point x="387" y="0" type="curve" smooth="yes"/>
      <point x="387" y="7"/>
      <point x="387" y="19"/>
      <point x="386" y="34" type="curve"/>
      <point x="367" y="21"/>
      <point x="350" y="11"/>
    </contour>
  </outline>
</glyph>
<glyph name="h" format="2">
  <advance width="480"/>
  <unicode hex="0068"/>
  <outline>
    <contour>
      <point x="432" y="305" type="curve" smooth="yes"/>
      <point x="432" y="284"/>
      <point x="432" y="264"/>
      <point x="432" y="243" type="curve" smooth="yes"/>
      <point x="432" y="212"/>
      <point x="432" y="180"/>
      <point x="431" y="149" type="curve"/>
      <point x="431" y="97"/>
      <point x="431" y="47"/>
      <point x="431" y="0" type="curve"/>
      <point x="411" y="0"/>
      <point x="381" y="0"/>
      <point x="340" y="0" type="curve"/>
      <point x="340" y="45"/>
      <point x="340" y="135"/>
      <point x="341" y="270" type="curve"/>
      <point x="342" y="283"/>
      <point x="339" y="296"/>
      <point x="334" y="308" type="curve" smooth="yes"/>
      <point x="329" y="320"/>
      <point x="322" y="331"/>
      <point x="313" y="340" type="curve" smooth="yes"/>
      <point x="302" y="351"/>
      <point x="288" y="360"/>
      <point x="271" y="365" type="curve" smooth="yes"/>
      <point x="259" y="368"/>
      <point x="245" y="370"/>
      <point x="229" y="369" type="curve" smooth="yes"/>
      <point x="216" y="368"/>
      <point x="203" y="365"/>
      <point x="191" y="361" type="curve"/>
      <point x="179" y="356"/>
      <point x="166" y="349"/>
      <point x="152" y="340" type="curve"/>
      <point x="145" y="333"/>
      <point x="140" y="326"/>
      <point x="135" y="319" type="curve"/>
      <point x="135" y="300"/>
      <point x="135" y="256"/>
      <point x="135" y="186" type="curve" smooth="yes"/>
      <point x="135" y="117"/>
      <point x="135" y="55"/>
      <point x="135" y="0" type="curve"/>
      <point x="120" y="0"/>
      <point x="104" y="0"/>
      <point x="88" y="0" type="curve" smooth="yes"/>
      <point x="72" y="0"/>
      <point x="56" y="0"/>
      <point x="41" y="0" type="curve"/>
      <point x="41" y="39"/>
      <point x="41" y="91"/>
      <point x="41" y="157" type="curve" smooth="yes"/>
      <point x="41" y="216"/>
      <point x="41" y="286"/>
      <point x="41" y="367" type="curve" smooth="yes"/>
      <point x="41" y="539"/>
      <point x="41" y="662"/>
      <point x="41" y="735" type="curve"/>
      <point x="56" y="735"/>
      <point x="72" y="735"/>
      <point x="88" y="735" type="curve" smooth="yes"/>
      <point x="104" y="735"/>
      <point x="120" y="735"/>
      <point x="135" y="735" type="curve"/>
      <point x="135" y="728"/>
      <point x="135" y="671"/>
      <point x="135" y="564" type="curve" smooth="yes"/>
      <point x="135" y="457"/>
      <point x="135" y="400"/>
      <point x="135" y="393" type="curve"/>
      <point x="146" y="406"/>
      <point x="156" y="416"/>
      <point x="165" y="422" type="curve"/>
      <point x="184" y="433"/>
      <point x="200" y="440"/>
      <point x="214" y="444" type="curve"/>
      <point x="237" y="449"/>
      <point x="258" y="451"/>
      <point x="279" y="451" type="curve" smooth="yes"/>
      <point x="304" y="450"/>
      <point x="325" y="447"/>
      <point x="342" y="440" type="curve" smooth="yes"/>
      <point x="360" y="433"/>
      <point x="376" y="422"/>
      <point x="389" y="408" type="curve" smooth="yes"/>
      <point x="417" y="378"/>
      <point x="431" y="344"/>
    </contour>
  </outline>
</glyph>
<glyph name="i" format="2">
  <advance width="211"/>
  <unicode hex="0069"/>
  <outline>
    <contour>
      <point x="41" y="558" type="curve" smooth="yes"/>
      <point x="41" y="574"/>
      <point x="47" y="586"/>
      <point x="58" y="595" type="curve" smooth="yes"/>
      <point x="69" y="604"/>
      <point x="81" y="609"/>
      <point x="94" y="609" type="curve" smooth="yes"/>
      <point x="95" y="609"/>
      <point x="96" y="609"/>
      <point x="97" y="609" type="curve" smooth="yes"/>
      <point x="110" y="609"/>
      <point x="121" y="605"/>
      <point x="132" y="597" type="curve"/>
      <point x="143" y="588"/>
      <point x="148" y="576"/>
      <point x="148" y="559" type="curve" smooth="yes"/>
      <point x="148" y="542"/>
      <point x="143" y="529"/>
      <point x="132" y="519" type="curve" smooth="yes"/>
      <point x="121" y="509"/>
      <point x="108" y="504"/>
      <point x="94" y="504" type="curve" smooth="yes"/>
      <point x="81" y="504"/>
      <point x="69" y="509"/>
      <point x="58" y="518" type="curve" smooth="yes"/>
      <point x="47" y="527"/>
      <point x="41" y="541"/>
    </contour>
    <contour>
      <point x="49" y="440" type="curve"/>
      <point x="65" y="440"/>
      <point x="96" y="440"/>
      <point x="143" y="440" type="curve"/>
      <point x="143" y="366"/>
      <point x="143" y="219"/>
      <point x="143" y="-2" type="curve"/>
      <point x="128" y="-2"/>
      <point x="97" y="-2"/>
      <point x="51" y="-2" type="curve"/>
      <point x="51" y="71"/>
      <point x="50" y="219"/>
    </contour>
  </outline>
</glyph>
<glyph name="j" format="2">
  <advance width="212"/>
  <unicode hex="006A"/>
  <outline>
    <contour>
      <point x="52" y="558" type="curve" smooth="yes"/>
      <point x="52" y="574"/>
      <point x="58" y="586"/>
      <point x="69" y="595" type="curve" smooth="yes"/>
      <point x="80" y="604"/>
      <point x="92" y="609"/>
      <point x="105" y="609" type="curve" smooth="yes"/>
      <point x="106" y="609"/>
      <point x="108" y="609"/>
      <point x="109" y="609" type="curve" smooth="yes"/>
      <point x="121" y="609"/>
      <point x="132" y="605"/>
      <point x="143" y="597" type="curve"/>
      <point x="154" y="588"/>
      <point x="160" y="576"/>
      <point x="160" y="559" type="curve" smooth="yes"/>
      <point x="160" y="542"/>
      <point x="154" y="529"/>
      <point x="143" y="519" type="curve" smooth="yes"/>
      <point x="132" y="509"/>
      <point x="119" y="504"/>
      <point x="105" y="504" type="curve" smooth="yes"/>
      <point x="92" y="504"/>
      <point x="80" y="509"/>
      <point x="69" y="518" type="curve" smooth="yes"/>
      <point x="58" y="527"/>
      <point x="52" y="541"/>
    </contour>
    <contour>
      <point x="60" y="440" type="curve"/>
      <point x="76" y="440"/>
      <point x="108" y="440"/>
      <point x="155" y="440" type="curve"/>
      <point x="154" y="333"/>
      <point x="154" y="118"/>
      <point x="154" y="-204" type="curve"/>
      <point x="138" y="-204"/>
      <point x="107" y="-204"/>
      <point x="60" y="-204" type="curve"/>
      <point x="60" y="-137"/>
      <point x="60" y="-2"/>
      <point x="60" y="199" type="curve" smooth="yes"/>
      <point x="60" y="239"/>
      <point x="60" y="319"/>
    </contour>
  </outline>
</glyph>
<glyph name="k" format="2">
  <advance width="481"/>
  <unicode hex="006B"/>
  <outline>
    <contour>
      <point x="146" y="766" type="curve"/>
      <point x="146" y="679"/>
      <point x="146" y="505"/>
      <point x="145" y="244" type="curve"/>
      <point x="154" y="253"/>
      <point x="173" y="272"/>
      <point x="202" y="300" type="curve" smooth="yes"/>
      <point x="225" y="323"/>
      <point x="270" y="368"/>
      <point x="337" y="435" type="curve"/>
      <point x="357" y="435"/>
      <point x="397" y="435"/>
      <point x="458" y="434" type="curve"/>
      <point x="425" y="401"/>
      <point x="358" y="333"/>
      <point x="257" y="232" type="curve"/>
      <point x="296" y="193"/>
      <point x="373" y="116"/>
      <point x="488" y="0" type="curve"/>
      <point x="468" y="0"/>
      <point x="428" y="0"/>
      <point x="368" y="-1" type="curve"/>
      <point x="340" y="26"/>
      <point x="285" y="82"/>
      <point x="202" y="165" type="curve" smooth="yes"/>
      <point x="193" y="174"/>
      <point x="174" y="193"/>
      <point x="145" y="221" type="curve"/>
      <point x="145" y="184"/>
      <point x="145" y="111"/>
      <point x="145" y="0" type="curve"/>
      <point x="130" y="0"/>
      <point x="98" y="0"/>
      <point x="50" y="0" type="curve"/>
      <point x="50" y="127"/>
      <point x="50" y="383"/>
      <point x="51" y="766" type="curve"/>
      <point x="67" y="766"/>
      <point x="99" y="766"/>
    </contour>
  </outline>
</glyph>
<glyph name="l" format="2">
  <advance width="192"/>
  <unicode hex="006C"/>
  <outline>
    <contour>
      <point x="41" y="756" type="curve"/>
      <point x="41" y="740"/>
      <point x="41" y="708"/>
      <point x="41" y="661" type="curve" smooth="yes"/>
      <point x="41" y="551"/>
      <point x="41" y="331"/>
      <point x="41" y="0" type="curve"/>
      <point x="56" y="0"/>
      <point x="87" y="0"/>
      <point x="133" y="0" type="curve"/>
      <point x="133" y="126"/>
      <point x="133" y="378"/>
      <point x="133" y="756" type="curve"/>
      <point x="118" y="756"/>
      <point x="87" y="756"/>
    </contour>
  </outline>
</glyph>
<glyph name="m" format="2">
  <advance width="748"/>
  <unicode hex="006D"/>
  <outline>
    <contour>
      <point x="137" y="0" type="curve"/>
      <point x="121" y="0"/>
      <point x="105" y="0"/>
      <point x="90" y="0" type="curve" smooth="yes"/>
      <point x="74" y="0"/>
      <point x="58" y="0"/>
      <point x="42" y="0" type="curve"/>
      <point x="42" y="37"/>
      <point x="42" y="74"/>
      <point x="42" y="111" type="curve" smooth="yes"/>
      <point x="42" y="147"/>
      <point x="42" y="183"/>
      <point x="42" y="220" type="curve" smooth="yes"/>
      <point x="42" y="293"/>
      <point x="42" y="366"/>
      <point x="42" y="439" type="curve"/>
      <point x="58" y="439"/>
      <point x="74" y="439"/>
      <point x="90" y="439" type="curve" smooth="yes"/>
      <point x="105" y="439"/>
      <point x="121" y="439"/>
      <point x="137" y="439" type="curve"/>
      <point x="137" y="432"/>
      <point x="137" y="426"/>
      <point x="137" y="419" type="curve" smooth="yes"/>
      <point x="137" y="412"/>
      <point x="137" y="406"/>
      <point x="137" y="399" type="curve"/>
      <point x="144" y="407"/>
      <point x="151" y="414"/>
      <point x="159" y="419" type="curve"/>
      <point x="172" y="430"/>
      <point x="189" y="438"/>
      <point x="208" y="444" type="curve"/>
      <point x="229" y="449"/>
      <point x="250" y="451"/>
      <point x="271" y="451" type="curve"/>
      <point x="290" y="450"/>
      <point x="308" y="447"/>
      <point x="326" y="440" type="curve" smooth="yes"/>
      <point x="344" y="433"/>
      <point x="360" y="422"/>
      <point x="373" y="408" type="curve" smooth="yes"/>
      <point x="381" y="400"/>
      <point x="388" y="391"/>
      <point x="393" y="382" type="curve"/>
      <point x="402" y="394"/>
      <point x="416" y="406"/>
      <point x="434" y="419" type="curve"/>
      <point x="453" y="430"/>
      <point x="472" y="438"/>
      <point x="491" y="445" type="curve"/>
      <point x="507" y="449"/>
      <point x="523" y="451"/>
      <point x="540" y="451" type="curve" smooth="yes"/>
      <point x="543" y="451"/>
      <point x="546" y="451"/>
      <point x="549" y="451" type="curve" smooth="yes"/>
      <point x="574" y="451"/>
      <point x="595" y="447"/>
      <point x="613" y="440" type="curve" smooth="yes"/>
      <point x="630" y="433"/>
      <point x="646" y="422"/>
      <point x="660" y="408" type="curve" smooth="yes"/>
      <point x="673" y="395"/>
      <point x="684" y="379"/>
      <point x="691" y="361" type="curve"/>
      <point x="699" y="344"/>
      <point x="703" y="325"/>
      <point x="702" y="306" type="curve"/>
      <point x="702" y="285"/>
      <point x="702" y="264"/>
      <point x="702" y="243" type="curve" smooth="yes"/>
      <point x="702" y="212"/>
      <point x="702" y="180"/>
      <point x="702" y="149" type="curve" smooth="yes"/>
      <point x="702" y="97"/>
      <point x="702" y="47"/>
      <point x="702" y="0" type="curve"/>
      <point x="681" y="0"/>
      <point x="651" y="0"/>
      <point x="610" y="0" type="curve"/>
      <point x="611" y="45"/>
      <point x="611" y="136"/>
      <point x="612" y="271" type="curve" smooth="yes"/>
      <point x="612" y="284"/>
      <point x="609" y="297"/>
      <point x="604" y="308" type="curve"/>
      <point x="599" y="321"/>
      <point x="592" y="331"/>
      <point x="583" y="340" type="curve"/>
      <point x="574" y="351"/>
      <point x="560" y="359"/>
      <point x="543" y="364" type="curve" smooth="yes"/>
      <point x="530" y="368"/>
      <point x="518" y="370"/>
      <point x="505" y="369" type="curve"/>
      <point x="492" y="369"/>
      <point x="478" y="366"/>
      <point x="463" y="361" type="curve"/>
      <point x="451" y="356"/>
      <point x="440" y="349"/>
      <point x="431" y="340" type="curve" smooth="yes"/>
      <point x="424" y="333"/>
      <point x="419" y="326"/>
      <point x="414" y="319" type="curve"/>
      <point x="415" y="315"/>
      <point x="416" y="310"/>
      <point x="416" y="305" type="curve" smooth="yes"/>
      <point x="416" y="253"/>
      <point x="416" y="201"/>
      <point x="416" y="149" type="curve"/>
      <point x="415" y="97"/>
      <point x="415" y="47"/>
      <point x="415" y="0" type="curve"/>
      <point x="395" y="0"/>
      <point x="365" y="0"/>
      <point x="324" y="0" type="curve"/>
      <point x="324" y="45"/>
      <point x="324" y="135"/>
      <point x="325" y="270" type="curve"/>
      <point x="326" y="283"/>
      <point x="323" y="296"/>
      <point x="318" y="308" type="curve" smooth="yes"/>
      <point x="313" y="320"/>
      <point x="306" y="331"/>
      <point x="297" y="340" type="curve" smooth="yes"/>
      <point x="288" y="349"/>
      <point x="277" y="356"/>
      <point x="265" y="361" type="curve" smooth="yes"/>
      <point x="252" y="366"/>
      <point x="238" y="369"/>
      <point x="223" y="369" type="curve" smooth="yes"/>
      <point x="210" y="369"/>
      <point x="197" y="366"/>
      <point x="185" y="361" type="curve" smooth="yes"/>
      <point x="173" y="356"/>
      <point x="162" y="349"/>
      <point x="153" y="340" type="curve" smooth="yes"/>
      <point x="146" y="333"/>
      <point x="141" y="326"/>
      <point x="137" y="319" type="curve"/>
      <point x="137" y="266"/>
      <point x="137" y="212"/>
      <point x="137" y="159" type="curve" smooth="yes"/>
      <point x="137" y="105"/>
      <point x="137" y="52"/>
    </contour>
  </outline>
</glyph>
<glyph name="n" format="2">
  <advance width="480"/>
  <unicode hex="006E"/>
  <outline>
    <contour>
      <point x="428" y="297" type="curve"/>
      <point x="428" y="245"/>
      <point x="428" y="194"/>
      <point x="429" y="145" type="curve" smooth="yes"/>
      <point x="429" y="96"/>
      <point x="429" y="47"/>
      <point x="429" y="0" type="curve"/>
      <point x="409" y="0"/>
      <point x="379" y="0"/>
      <point x="338" y="0" type="curve"/>
      <point x="338" y="45"/>
      <point x="338" y="86"/>
      <point x="338" y="122" type="curve" smooth="yes"/>
      <point x="338" y="158"/>
      <point x="338" y="200"/>
      <point x="337" y="249" type="curve" smooth="yes"/>
      <point x="336" y="267"/>
      <point x="333" y="286"/>
      <point x="328" y="306" type="curve" smooth="yes"/>
      <point x="324" y="321"/>
      <point x="318" y="334"/>
      <point x="310" y="345" type="curve"/>
      <point x="301" y="356"/>
      <point x="287" y="363"/>
      <point x="268" y="367" type="curve"/>
      <point x="255" y="369"/>
      <point x="242" y="370"/>
      <point x="229" y="369" type="curve" smooth="yes"/>
      <point x="216" y="368"/>
      <point x="203" y="365"/>
      <point x="191" y="361" type="curve"/>
      <point x="179" y="356"/>
      <point x="166" y="349"/>
      <point x="152" y="340" type="curve"/>
      <point x="145" y="333"/>
      <point x="140" y="326"/>
      <point x="135" y="319" type="curve"/>
      <point x="135" y="266"/>
      <point x="135" y="212"/>
      <point x="135" y="159" type="curve" smooth="yes"/>
      <point x="135" y="105"/>
      <point x="135" y="52"/>
      <point x="135" y="0" type="curve"/>
      <point x="120" y="0"/>
      <point x="104" y="0"/>
      <point x="88" y="0" type="curve" smooth="yes"/>
      <point x="72" y="0"/>
      <point x="56" y="0"/>
      <point x="41" y="0" type="curve"/>
      <point x="41" y="37"/>
      <point x="41" y="74"/>
      <point x="41" y="111" type="curve" smooth="yes"/>
      <point x="41" y="147"/>
      <point x="41" y="183"/>
      <point x="41" y="220" type="curve" smooth="yes"/>
      <point x="41" y="293"/>
      <point x="41" y="366"/>
      <point x="41" y="439" type="curve"/>
      <point x="56" y="439"/>
      <point x="72" y="439"/>
      <point x="88" y="439" type="curve" smooth="yes"/>
      <point x="104" y="439"/>
      <point x="120" y="439"/>
      <point x="135" y="439" type="curve"/>
      <point x="135" y="432"/>
      <point x="135" y="426"/>
      <point x="135" y="419" type="curve" smooth="yes"/>
      <point x="135" y="412"/>
      <point x="135" y="406"/>
      <point x="135" y="399" type="curve"/>
      <point x="146" y="409"/>
      <point x="156" y="417"/>
      <point x="165" y="422" type="curve" smooth="yes"/>
      <point x="184" y="433"/>
      <point x="200" y="440"/>
      <point x="214" y="444" type="curve" smooth="yes"/>
      <point x="231" y="449"/>
      <point x="250" y="451"/>
      <point x="269" y="451" type="curve" smooth="yes"/>
      <point x="270" y="451"/>
      <point x="271" y="451"/>
      <point x="272" y="451" type="curve" smooth="yes"/>
      <point x="296" y="450"/>
      <point x="317" y="447"/>
      <point x="334" y="440" type="curve" smooth="yes"/>
      <point x="352" y="432"/>
      <point x="368" y="421"/>
      <point x="381" y="408" type="curve" smooth="yes"/>
      <point x="413" y="377"/>
      <point x="429" y="340"/>
    </contour>
  </outline>
</glyph>
<glyph name="o" format="2">
  <advance width="511"/>
  <unicode hex="006F"/>
  <outline>
    <contour>
      <point x="470" y="132" type="curve" smooth="yes"/>
      <point x="457" y="103"/>
      <point x="440" y="78"/>
      <point x="419" y="56" type="curve" smooth="yes"/>
      <point x="397" y="34"/>
      <point x="372" y="17"/>
      <point x="344" y="6" type="curve" smooth="yes"/>
      <point x="315" y="-6"/>
      <point x="285" y="-12"/>
      <point x="254" y="-12" type="curve" smooth="yes"/>
      <point x="223" y="-12"/>
      <point x="193" y="-6"/>
      <point x="165" y="6" type="curve" smooth="yes"/>
      <point x="136" y="18"/>
      <point x="110" y="35"/>
      <point x="89" y="56" type="curve" smooth="yes"/>
      <point x="67" y="79"/>
      <point x="50" y="104"/>
      <point x="38" y="132" type="curve" smooth="yes"/>
      <point x="27" y="161"/>
      <point x="21" y="191"/>
      <point x="20" y="221" type="curve"/>
      <point x="21" y="253"/>
      <point x="27" y="283"/>
      <point x="38" y="311" type="curve" smooth="yes"/>
      <point x="51" y="340"/>
      <point x="68" y="365"/>
      <point x="89" y="387" type="curve" smooth="yes"/>
      <point x="112" y="409"/>
      <point x="137" y="426"/>
      <point x="165" y="437" type="curve" smooth="yes"/>
      <point x="194" y="449"/>
      <point x="224" y="455"/>
      <point x="254" y="455" type="curve" smooth="yes"/>
      <point x="285" y="455"/>
      <point x="315" y="449"/>
      <point x="344" y="437" type="curve" smooth="yes"/>
      <point x="373" y="425"/>
      <point x="398" y="408"/>
      <point x="419" y="387" type="curve" smooth="yes"/>
      <point x="441" y="364"/>
      <point x="458" y="339"/>
      <point x="470" y="311" type="curve" smooth="yes"/>
      <point x="482" y="282"/>
      <point x="488" y="252"/>
      <point x="488" y="221" type="curve" smooth="yes"/>
      <point x="488" y="190"/>
      <point x="482" y="161"/>
    </contour>
    <contour>
      <point x="298" y="60" type="curve" smooth="yes"/>
      <point x="319" y="69"/>
      <point x="338" y="82"/>
      <point x="355" y="98" type="curve"/>
      <point x="370" y="115"/>
      <point x="382" y="134"/>
      <point x="393" y="155" type="curve"/>
      <point x="400" y="176"/>
      <point x="405" y="199"/>
      <point x="406" y="222" type="curve"/>
      <point x="405" y="245"/>
      <point x="401" y="268"/>
      <point x="393" y="289" type="curve"/>
      <point x="382" y="311"/>
      <point x="370" y="330"/>
      <point x="355" y="346" type="curve"/>
      <point x="337" y="363"/>
      <point x="318" y="375"/>
      <point x="298" y="384" type="curve"/>
      <point x="285" y="388"/>
      <point x="272" y="390"/>
      <point x="259" y="390" type="curve"/>
      <point x="246" y="391"/>
      <point x="234" y="389"/>
      <point x="221" y="384" type="curve" smooth="yes"/>
      <point x="199" y="375"/>
      <point x="180" y="362"/>
      <point x="164" y="346" type="curve" smooth="yes"/>
      <point x="147" y="329"/>
      <point x="135" y="310"/>
      <point x="126" y="289" type="curve" smooth="yes"/>
      <point x="117" y="268"/>
      <point x="112" y="246"/>
      <point x="113" y="223" type="curve" smooth="yes"/>
      <point x="113" y="222"/>
      <point x="113" y="222"/>
      <point x="113" y="222" type="curve"/>
      <point x="112" y="198"/>
      <point x="117" y="176"/>
      <point x="126" y="155" type="curve" smooth="yes"/>
      <point x="135" y="133"/>
      <point x="147" y="114"/>
      <point x="164" y="98" type="curve" smooth="yes"/>
      <point x="181" y="81"/>
      <point x="200" y="69"/>
      <point x="221" y="60" type="curve" smooth="yes"/>
      <point x="234" y="55"/>
      <point x="247" y="53"/>
      <point x="260" y="53" type="curve" smooth="yes"/>
      <point x="273" y="53"/>
      <point x="286" y="55"/>
    </contour>
  </outline>
</glyph>
<glyph name="p" format="2">
  <advance width="546"/>
  <unicode hex="0070"/>
  <outline>
    <contour>
      <point x="136" y="131" type="curve"/>
      <point x="139" y="126"/>
      <point x="143" y="122"/>
      <point x="146" y="118" type="curve" smooth="yes"/>
      <point x="159" y="101"/>
      <point x="177" y="86"/>
      <point x="198" y="75" type="curve" smooth="yes"/>
      <point x="215" y="67"/>
      <point x="234" y="63"/>
      <point x="254" y="63" type="curve" smooth="yes"/>
      <point x="255" y="63"/>
      <point x="257" y="63"/>
      <point x="259" y="63" type="curve" smooth="yes"/>
      <point x="280" y="62"/>
      <point x="300" y="66"/>
      <point x="319" y="75" type="curve"/>
      <point x="338" y="82"/>
      <point x="356" y="94"/>
      <point x="371" y="109" type="curve" smooth="yes"/>
      <point x="386" y="124"/>
      <point x="397" y="141"/>
      <point x="405" y="161" type="curve" smooth="yes"/>
      <point x="413" y="179"/>
      <point x="417" y="200"/>
      <point x="417" y="223" type="curve" smooth="yes"/>
      <point x="418" y="243"/>
      <point x="414" y="263"/>
      <point x="405" y="282" type="curve"/>
      <point x="398" y="301"/>
      <point x="386" y="319"/>
      <point x="371" y="334" type="curve" smooth="yes"/>
      <point x="356" y="349"/>
      <point x="339" y="360"/>
      <point x="319" y="368" type="curve"/>
      <point x="306" y="374"/>
      <point x="289" y="377"/>
      <point x="270" y="377" type="curve" smooth="yes"/>
      <point x="268" y="377"/>
      <point x="266" y="377"/>
      <point x="265" y="377" type="curve" smooth="yes"/>
      <point x="234" y="376"/>
      <point x="210" y="372"/>
      <point x="195" y="363" type="curve"/>
      <point x="155" y="342"/>
      <point x="135" y="318"/>
      <point x="135" y="291" type="curve" smooth="yes"/>
      <point x="135" y="256"/>
      <point x="135" y="202"/>
    </contour>
    <contour>
      <point x="136" y="34" type="curve"/>
      <point x="135" y="-5"/>
      <point x="135" y="-83"/>
      <point x="135" y="-200" type="curve"/>
      <point x="120" y="-200"/>
      <point x="88" y="-200"/>
      <point x="41" y="-200" type="curve"/>
      <point x="41" y="-159"/>
      <point x="41" y="-78"/>
      <point x="41" y="44" type="curve" smooth="yes"/>
      <point x="41" y="110"/>
      <point x="41" y="242"/>
      <point x="41" y="439" type="curve"/>
      <point x="72" y="439"/>
      <point x="104" y="439"/>
      <point x="135" y="439" type="curve"/>
      <point x="136" y="424"/>
      <point x="136" y="411"/>
      <point x="136" y="401" type="curve"/>
      <point x="146" y="414"/>
      <point x="163" y="426"/>
      <point x="188" y="437" type="curve" smooth="yes"/>
      <point x="216" y="449"/>
      <point x="246" y="455"/>
      <point x="278" y="455" type="curve" smooth="yes"/>
      <point x="309" y="455"/>
      <point x="339" y="449"/>
      <point x="367" y="437" type="curve" smooth="yes"/>
      <point x="396" y="425"/>
      <point x="422" y="408"/>
      <point x="443" y="386" type="curve" smooth="yes"/>
      <point x="466" y="364"/>
      <point x="483" y="339"/>
      <point x="494" y="311" type="curve" smooth="yes"/>
      <point x="506" y="282"/>
      <point x="512" y="253"/>
      <point x="512" y="223" type="curve" smooth="yes"/>
      <point x="512" y="222"/>
      <point x="512" y="222"/>
      <point x="512" y="221" type="curve" smooth="yes"/>
      <point x="512" y="190"/>
      <point x="506" y="160"/>
      <point x="494" y="131" type="curve" smooth="yes"/>
      <point x="482" y="102"/>
      <point x="465" y="77"/>
      <point x="443" y="56" type="curve" smooth="yes"/>
      <point x="421" y="33"/>
      <point x="396" y="16"/>
      <point x="367" y="5" type="curve" smooth="yes"/>
      <point x="338" y="-7"/>
      <point x="308" y="-13"/>
      <point x="278" y="-13" type="curve" smooth="yes"/>
      <point x="247" y="-12"/>
      <point x="217" y="-6"/>
      <point x="188" y="5" type="curve" smooth="yes"/>
      <point x="172" y="11"/>
      <point x="155" y="21"/>
    </contour>
  </outline>
</glyph>
